<?xml version="1.0" encoding="UTF-8" standalone="no"?>
<!-- Created with Inkscape (http://www.inkscape.org/) -->

<svg
   width="1024"
   height="1024"
   viewBox="0 0 270.93333 270.93333"
   version="1.1"
   id="svg1"
   xml:space="preserve"
   inkscape:version="1.4.2 (ebf0e940d0, 2025-05-08)"
   sodipodi:docname="logo_jacurutu.svg"
   xmlns:inkscape="http://www.inkscape.org/namespaces/inkscape"
   xmlns:sodipodi="http://sodipodi.sourceforge.net/DTD/sodipodi-0.dtd"
   xmlns="http://www.w3.org/2000/svg"
   xmlns:svg="http://www.w3.org/2000/svg"><sodipodi:namedview
     id="namedview1"
     pagecolor="#ffffff"
     bordercolor="#000000"
     borderopacity="0.25"
     inkscape:showpageshadow="2"
     inkscape:pageopacity="0.0"
     inkscape:pagecheckerboard="0"
     inkscape:deskcolor="#d1d1d1"
     inkscape:document-units="mm"
     inkscape:zoom="0.55195071"
     inkscape:cx="651.32628"
     inkscape:cy="373.22173"
     inkscape:window-width="1920"
     inkscape:window-height="1128"
     inkscape:window-x="0"
     inkscape:window-y="0"
     inkscape:window-maximized="1"
     inkscape:current-layer="layer1" /><defs
     id="defs1"><inkscape:path-effect
       effect="fillet_chamfer"
       id="path-effect17"
       is_visible="true"
       lpeversion="1"
       nodesatellites_param="F,0,0,1,0,0,0,1 @ F,0,0,1,0,0.43740583,0,1 @ F,0,0,1,0,0,0,1 @ F,0,0,1,0,0,0,1"
       radius="0"
       unit="px"
       method="auto"
       mode="F"
       chamfer_steps="1"
       flexible="false"
       use_knot_distance="true"
       apply_no_radius="true"
       apply_with_radius="true"
       only_selected="false"
       hide_knots="false" /></defs><g
     inkscape:groupmode="layer"
     id="layer1"
     inkscape:label="Circulo"><circle
       style="display:inline;fill:#ffffff;stroke:#000000;stroke-width:5.98003;stroke-dasharray:none;stroke-opacity:1;fill-opacity:1"
       id="path1"
       cx="135.46666"
       cy="135.46666"
       r="132.47665"
       inkscape:export-filename="logo_jacurutu_grande.png"
       inkscape:export-xdpi="96"
       inkscape:export-ydpi="96" /></g><g
     inkscape:groupmode="layer"
     id="layer5"
     inkscape:label="Galho"
     inkscape:highlight-color="#915500"
     style="display:inline"><path
       style="display:inline;opacity:1;fill:#000000;fill-opacity:1;stroke:none;stroke-width:5.82083"
       d="m 228.96659,206.35189 c 4.58253,4.75805 2.87452,15.39719 -1.77403,20.19246 l -126.3973,-3.19354 c -15.474697,0.26052 -19.737115,6.57463 -36.948958,10.30938 -3.521327,1.18673 -10.306331,-2.41678 -3.668149,-7.12573 l 15.820472,-8.86662 c -8.168338,-2.72242 -24.706427,-2.97076 -39.454759,-4.11398 -6.17624,-0.26034 -5.614568,-8.52195 -0.683781,-8.20325 9.272338,0.18353 15.75476,0.36705 24.921818,-1.81822 -7.991433,-5.71466 -20.98366,-14.00868 -23.658459,-18.72319 -0.406614,-2.25564 0.55541,-6.82744 5.88655,-3.92437 18.165442,11.83016 31.383031,23.38251 54.684901,23.65147 l 46.260335,2.36236 c 28.33712,-0.18226 48.11317,-0.88562 85.01136,-0.54677 z"
       id="path30"
       inkscape:label="contorno-galho"
       sodipodi:nodetypes="cccccccccccccc" /><path
       style="display:inline;opacity:1;fill:#8e542b;fill-opacity:1;stroke:none;stroke-width:5.66016"
       d="m 227.03031,208.74974 c 3.75707,4.48693 1.34268,11.61479 -1.08066,14.73997 l -123.61357,-2.8957 c -15.047555,0.25333 -20.830088,4.78553 -37.357145,10.09471 -3.843508,0.59481 -7.001471,0.66407 -0.896004,-3.14604 6.696924,-3.35604 11.856122,-6.29271 17.4347,-10.27782 -13.255012,-6.4217 -28.00183,-5.06752 -42.343066,-6.17918 -6.285345,0.4458 -5.739177,-3.95987 -0.8047,-2.8811 9.016396,0.17846 19.531366,-0.0409 28.095904,-3.98317 -7.561156,-4.92785 -21.388731,-15.2052 -25.38763,-18.95082 -1.443839,-0.72555 -2.88435,-4.10788 2.299636,-1.28495 17.664024,11.50362 29.361538,22.80699 52.020221,23.06853 43.894184,3.86679 87.654784,2.02741 131.632314,1.69557 z"
       id="path31"
       inkscape:label="interno-galho"
       sodipodi:nodetypes="ccccccccccccc" /></g><g
     inkscape:groupmode="layer"
     id="layer4"
     inkscape:label="Pe"
     style="display:inline"><path
       style="display:inline;opacity:1;fill:#000000;fill-opacity:1;stroke:none;stroke-width:5.82083"
       d="m 133.29829,198.27697 -10.99092,-1.4931 c 0.22871,0.36751 0.31568,0.80588 0.3318,1.24425 -0.14283,0.51848 -0.40377,0.68264 -0.99541,0.70508 -2.25348,-0.40092 -14.2951,-2.00463 -14.10155,6.26275 l 0.29033,2.98621 c 8.11531,-0.19355 14.49701,1.61206 18.133,3.40932 1.31451,0.50605 1.36552,0.65938 1.55016,1.99915 0.58834,3.53401 1.9076,3.97939 2.62241,4.57926 2.95624,2.21564 6.60304,1.4112 8.69336,-1.14488 2.37745,-2.24671 3.08186,-7.1787 0.623,-11.15282 -0.71946,-1.12349 -1.41529,-1.96352 -2.37096,-2.94528 -0.34718,-0.23173 -0.43453,-0.48709 -0.56912,-1.00228 l -0.55071,-2.5657 z"
       id="path26"
       inkscape:label="contorno-pe"
       sodipodi:nodetypes="ccccccccccccccc" /><path
       style="display:inline;opacity:1;fill:#f9a545;fill-opacity:1;stroke:none;stroke-width:4.3456"
       d="m 124.70471,197.8232 c 0.24656,0.31113 0.20294,3.46032 -1.97638,3.81713 -5.49253,0.5801 -13.07051,-1.87954 -12.72158,3.63889 7.56628,0.0919 18.28051,2.22488 19.88868,5.70414 0.96217,7.77317 6.07325,6.07006 7.69031,3.52411 1.84347,-4.39098 -1.39065,-9.13334 -3.71655,-11.21699 -0.30637,-0.30829 -0.36606,-0.48759 0.22919,-0.80483 -0.0759,-1.07761 -0.43527,-2.3442 -0.93636,-3.42181 -2.83611,0.66697 -5.788,-0.27203 -8.45731,-1.24064 z"
       id="path27"
       inkscape:label="interno-pe"
       sodipodi:nodetypes="ccccccccc" /></g><g
     inkscape:groupmode="layer"
     id="layer6"
     inkscape:label="Coruja"
     style="display:inline"><path
       style="display:inline;opacity:1;fill:#000000;fill-opacity:1;stroke:none;stroke-width:5.82083"
       d="m 154.96095,48.169721 c 31.60089,-4.193839 44.45461,42.710976 31.47147,62.682549 16.66748,6.45174 21.63543,58.77694 2.91968,81.87107 6.00572,20.70671 8.65742,45.13017 -9.48049,43.47206 -1.65008,4.55055 -11.11523,3.71738 -15.71767,-4.75719 -10.77527,2.8977 -18.07718,-12.87394 -16.08784,-32.63995 -0.16884,-0.23108 -2.61679,-1.02804 -2.99602,-1.00444 -0.66298,0.34719 -0.73951,1.66489 -1.863,2.05784 -0.68204,0.23855 -6.62538,0.67023 -9.8342,-1.08721 -23.1363,4.71361 -69.25708,-47.91928 -35.265378,-81.2427 C 72.62914,102.79294 86.987701,67.225691 96.993808,57.202625 116.67033,53.605011 135.4464,52.609592 154.96095,48.169721 Z"
       id="path33"
       inkscape:label="contorno"
       sodipodi:nodetypes="cccccccscccc" /><path
       style="display:inline;opacity:1;fill:#94582e;fill-opacity:1;stroke:none;stroke-width:5.62583"
       d="m 156.88021,50.372326 c 29.96969,0.767931 37.20985,41.944949 26.38129,60.798944 21.30618,15.61883 17.83776,64.24022 2.91987,80.83219 6.6122,20.82071 7.87123,44.89139 -7.00911,41.61193 -6.64913,8.15307 -13.5615,-3.74776 -15.63726,-8.26956 1.18667,10.23372 -17.87282,0.22194 -12.36669,-28.19884 -4.1589,-1.33434 -7.47992,-3.48848 -7.84644,-3.46567 -0.50433,1.73893 0.0748,3.17953 -1.48873,3.64566 -2.70326,0.41307 -6.92971,-0.26831 -7.67258,-1.36265 C 109.39597,199.91782 69.35174,148.61826 101.9242,116.72492 79.341745,105.05288 87.09436,71.126405 98.532369,60.080353 117.54975,56.603258 138.01939,54.663463 156.88021,50.372326 Z"
       id="path34"
       inkscape:label="interno-sup"
       sodipodi:nodetypes="cccccccccccc" /><path
       style="display:inline;opacity:1;fill:#6f3f1f;fill-opacity:1;stroke:none;stroke-width:5.62583"
       d="m 168.67089,157.00052 c -2.26332,8.78994 17.21297,16.31994 16.09458,2.29767 5.84044,2.38124 8.9632,-4.8409 9.63046,-6.92188 2.60124,14.31115 -1.13737,31.75576 -8.21456,39.62715 6.6122,20.82071 7.87123,44.89139 -7.00911,41.61193 -6.64913,8.15307 -13.5615,-3.74776 -15.63726,-8.26956 1.18667,10.23372 -17.87282,0.22194 -12.36669,-28.19884 -4.1589,-1.33434 -7.47992,-3.48848 -7.84644,-3.46567 -0.50433,1.73893 0.0748,3.17953 -1.48873,3.64566 -2.70326,0.41307 -6.92971,-0.26831 -7.67258,-1.36265 -17.61558,2.8122 -42.962316,-22.33243 -44.405188,-48.56305 7.521106,8.73167 13.146358,10.06029 11.872238,-4.58405 3.12069,8.74801 16.48597,20.42253 16.18005,0.95546 9.1868,15.73921 13.85985,9.98507 17.20663,4.17119 3.78087,6.05759 15.31141,11.49602 15.24043,-4.27234 3.15907,2.36091 10.22137,15.06684 17.26611,10.59486 1.627,2.33399 1.29192,0.87855 1.15006,2.73412 z"
       id="path42"
       inkscape:label="interno-inf"
       sodipodi:nodetypes="ccccccccccccccccc" /><path
       style="display:inline;opacity:1;fill:#94582e;fill-opacity:1;stroke:none;stroke-width:5.82083"
       d="m 104.01931,155.24931 c 0.78038,-0.0879 1.59373,0.0549 2.34113,0.52758 3.39629,3.27539 6.56177,3.8799 8.93587,4.05576 2.98961,1.25301 4.00081,8.24343 -1.51679,6.72664 -1.57174,-0.70344 -7.13331,-3.97883 -9.76021,-11.30998 z"
       id="path46"
       sodipodi:nodetypes="ccccc"
       inkscape:label="pena4" /><path
       style="display:inline;fill:#94582e;fill-opacity:1;stroke:none;stroke-width:5.82083"
       d="m 122.61647,157.19475 c 4.79218,3.11052 9.18867,2.39609 11.21106,-0.65947 l 0.56056,1.05516 c 8.73803,13.48624 -9.89212,12.89271 -11.77162,-0.39569 z"
       id="path45"
       sodipodi:nodetypes="cccc"
       inkscape:label="penas3" /><path
       style="display:inline;opacity:1;fill:#6f3f1f;fill-opacity:1;stroke:none;stroke-width:5.82083"
       d="m 166.89676,149.74734 c 6.57834,11.37218 11.89556,6.13056 11.86344,-2.0761 9.02939,8.60099 11.33617,2.37268 12.55547,-4.15221 l 0.88976,2.76814 c 1.12044,14.10431 -9.3642,9.807 -10.35476,9.19001 1.0889,3.22496 -7.27453,11.97519 -14.5007,-0.80272 -0.1635,-0.84286 -0.48685,-3.76073 -0.45316,-4.92712 z"
       id="path44"
       inkscape:label="penas2"
       sodipodi:nodetypes="cccccccc" /><path
       style="display:inline;opacity:1;fill:#6f3f1f;fill-opacity:1;stroke:none;stroke-width:5.82083"
       d="m 160.57225,130.92808 c 6.08057,8.33026 11.61903,5.63279 12.13998,-1.99314 5.26848,9.20937 13.27193,8.37355 13.35743,-0.19772 l 0.5026,3.01703 c -1.34074,10.09451 -11.38292,3.50193 -12.42879,1.61287 -0.43206,4.33111 -5.89184,10.28831 -12.56493,1.76908 -0.1635,-0.84286 -1.64831,-0.69116 -1.91881,-5.23131 z"
       id="path43"
       inkscape:label="penas1"
       sodipodi:nodetypes="cccccccc" /><path
       style="display:inline;opacity:1;fill:#000000;fill-opacity:1;stroke:none;stroke-width:5.82083"
       d="m 186.19408,192.0389 -1.12453,-8.90097 1.44855,2.26813 1.35325,5.41301 z"
       id="path35"
       inkscape:label="linha1" /><path
       style="display:inline;opacity:1;fill:#000000;fill-opacity:1;stroke:none;stroke-width:5.82083"
       d="m 181.94114,235.50497 0.0534,-1.12185 c -0.58764,-0.16027 -1.65607,-0.26711 -1.92318,-1.60265 -0.83694,-7.71053 -3.00942,-23.38088 -5.07506,-34.5104 -0.35614,-1.51361 -1.2465,-3.29433 -1.76291,-4.32715 2.51068,35.48208 7.14852,39.63983 2.88477,42.36338 z"
       id="path36"
       sodipodi:nodetypes="ccccccc"
       inkscape:label="linha2" /><path
       style="display:inline;fill:#000000;fill-opacity:1;stroke:none;stroke-width:5.82083"
       d="m 161.87757,201.98799 c -1.05423,-5.20143 -1.76228,-4.66909 -1.76714,0.10395 l 2.70268,27.70248 2.88291,-0.4158 z"
       id="path38"
       sodipodi:nodetypes="ccccc"
       inkscape:label="linha3" /><path
       style="display:inline;opacity:1;fill:#000000;fill-opacity:1;stroke:none;stroke-width:5.82083"
       d="m 141.94572,127.05271 c 16.98446,29.46982 17.73191,80.60324 -1.76179,42.21803 -0.0492,0.0948 0.12765,1.87965 0.20065,2.0405 20.23077,42.2811 22.79533,-17.19519 4.29767,-41.76318 z"
       id="path37"
       sodipodi:nodetypes="ccccc"
       inkscape:label="linha4" /><path
       style="display:inline;opacity:1;fill:#000000;fill-opacity:1;stroke:none;stroke-width:5.82083"
       d="m 128.47185,175.79167 c 4.17532,9.62411 14.94508,16.82172 15.96666,17.67897 3.89532,2.61761 5.07527,4.81528 6.26321,-1.76023 0.28732,-1.81996 0.61681,-4.57997 0.39481,-8.02454 0.43522,0.44704 1.41171,1.29303 2.62135,1.80009 0.21574,12.09965 -3.59942,14.4333 -8.43836,11.94288 -3.02088,-2.45749 -15.43532,-13.72456 -17.93749,-22.20988 z"
       id="path39"
       sodipodi:nodetypes="cccccccc"
       inkscape:label="linha5" /><path
       style="display:inline;opacity:1;fill:#000000;fill-opacity:1;stroke:none;stroke-width:5.82083"
       d="m 130.92327,197.4104 c -6.79219,-6.24882 -20.54543,-15.11928 -22.19027,-26.94503 l 1.70164,2.70875 c 7.54332,13.53644 22.36348,22.33621 23.72823,22.79027 z"
       id="path40"
       sodipodi:nodetypes="ccccc"
       inkscape:label="linha6" /><path
       style="fill:#000000;fill-opacity:1;stroke:none;stroke-width:5.82083"
       d="m 96.891228,122.65925 3.697472,-6.46164 c 12.55232,-7.94541 27.15083,-1.60344 32.05688,2.22568 l 3.23082,3.19492 c -15.04125,-7.44285 -27.74913,-9.96767 -38.985172,1.04104 z"
       id="path41"
       sodipodi:nodetypes="ccccc"
       inkscape:label="linha7" /></g><g
     inkscape:groupmode="layer"
     id="layer2"
     inkscape:label="Oculos e bico"
     style="display:inline"
     inkscape:highlight-color="#ba9e0f"><path
       style="display:inline;fill:#000000;fill-opacity:1;stroke:none;stroke-width:5.28388"
       d="m 117.60871,86.500636 c 0,0 3.04508,-0.03747 4.35652,-0.05791 0.73614,-0.01148 1.1414,-1.503903 0.63239,-2.084431 -0.92158,-1.051084 -3.50495,-1.125545 -4.70785,-0.289505 -0.75537,0.524997 -0.28106,2.43184 -0.28106,2.43184 z"
       id="path9"
       sodipodi:nodetypes="csaacc"
       inkscape:label="arco-oculos" /><path
       id="rect8"
       style="display:inline;fill:#000000;stroke:none;stroke-width:6.44116"
       d="m 164.03271,86.663081 c 0.21118,-0.0069 11.82326,-0.388557 12.03444,-0.395497 0.21118,-0.0069 0.76662,0.418683 0.77149,0.954046 l 0.008,0.880676 c 0.005,0.535364 -0.33133,0.973135 -0.75389,0.978674 l -11.75276,0.154059 c -0.42256,0.0055 -1.04829,-0.378443 -1.05317,-0.913807 l -0.008,-0.880675 c -0.005,-0.535364 0.54271,-0.770538 0.75389,-0.777478 z"
       sodipodi:nodetypes="zzssssssz"
       inkscape:label="perna-oculos" /><path
       id="path2"
       style="display:inline;opacity:1;fill:#000000;fill-opacity:1;stroke:none;stroke-width:6.1051"
       d="m 118.99017,87.121011 c 0,11.080701 -8.07166,20.138929 -17.9455,20.138929 -9.873821,0 -18.764629,-11.551723 -18.031568,-20.494342 0,-11.080731 7.955742,-20.1612 18.368238,-20.085669 10.41255,0.07554 18.52516,9.910149 17.60883,20.441082 z"
       sodipodi:nodetypes="csczc"
       inkscape:label="oculos-e" /><path
       id="path3"
       style="display:inline;opacity:1;fill:#ffc451;fill-opacity:1;stroke-width:4.95896"
       d="m 115.22845,86.973055 c 0,9.192209 -6.41957,16.706625 -14.27244,16.706625 -7.852846,0 -14.486624,-7.201129 -14.486624,-16.393344 0,-9.192234 6.473119,-17.333255 14.754394,-17.270589 8.2813,0.06265 14.00467,7.765065 14.00467,16.957308 z"
       sodipodi:nodetypes="csszc"
       inkscape:label="lente-e" /><ellipse
       style="display:inline;fill:#1a1a1a;fill-opacity:1;stroke:none;stroke-width:5.96597"
       id="path7"
       cx="109.10023"
       cy="82.679955"
       rx="7.1428456"
       ry="8.9751406"
       transform="rotate(2.4846113)"
       inkscape:label="olho-e" /><ellipse
       style="display:inline;fill:#f9f9f9;fill-opacity:1;stroke:none;stroke-width:4.89641"
       id="ellipse8"
       cx="127.64913"
       cy="-51.405491"
       rx="2.2096488"
       ry="1.5835438"
       transform="matrix(0.50355468,0.86396336,-0.86433957,0.50290865,0,0)"
       inkscape:label="reflexo-olho-e" /><path
       id="path10"
       style="display:inline;opacity:1;fill:#000000;stroke-width:5.56664"
       inkscape:label="bico-contorno"
       d="m 123.40361,104.94678 c -4.47711,3.8759 -8.19316,7.45749 -11.69165,5.45717 -3.7535,-2.14613 -3.05172,-11.495911 -0.0396,-15.827277 2.52889,-3.636426 9.22915,-7.457485 12.46864,-4.593847 3.23949,2.863636 6.99856,8.266836 -0.73741,14.963954 z"
       sodipodi:nodetypes="ssass" /><path
       id="path11"
       style="display:inline;opacity:1;fill:#fba845;fill-opacity:1;stroke-width:3.5859"
       inkscape:label="bico-interno"
       d="m 119.7746,104.1854 c -2.69886,2.86241 -4.83422,4.66211 -6.82471,3.20318 -2.13558,-1.56526 -0.60052,-8.657831 1.40686,-11.370886 2.00738,-2.713055 5.8936,-5.35273 7.73673,-3.264152 1.84313,2.088568 3.50009,5.26029 0.5301,8.410238 z"
       sodipodi:nodetypes="sszsss" /><path
       id="path4"
       style="display:inline;opacity:1;fill:#000000;fill-opacity:1;stroke:none;stroke-width:6.96228"
       d="m 164.53422,88.42174 c 0,11.93139 -9.74891,21.68506 -21.67447,21.68506 -11.92556,0 -21.99978,-9.34703 -21.99978,-21.278417 0,-11.931436 9.83024,-22.498392 22.40642,-22.417063 12.57619,0.08133 21.26783,10.078983 21.26783,22.01042 z"
       sodipodi:nodetypes="csszc"
       inkscape:label="oculos-d" /><path
       id="path5"
       style="display:inline;opacity:1;fill:#ffc451;fill-opacity:1;stroke-width:5.82137"
       d="m 160.95576,88.395047 c 0,9.976195 -8.15135,18.131513 -18.12266,18.131513 -9.97132,0 -18.39467,-7.815321 -18.39467,-17.791507 0,-9.976226 8.21935,-18.811569 18.73467,-18.743568 10.51532,0.068 17.78266,8.427335 17.78266,18.403562 z"
       sodipodi:nodetypes="csszc"
       inkscape:label="lente-d" /><ellipse
       style="display:inline;fill:#1a1a1a;fill-opacity:1;stroke:none;stroke-width:6.11768"
       id="path6"
       cx="142.83746"
       cy="89.193886"
       rx="8.05867"
       ry="10.134388"
       inkscape:label="olho-d" /><ellipse
       style="display:inline;fill:#f9f9f9;fill-opacity:1;stroke:none;stroke-width:5.89726"
       id="path8"
       cx="163.07552"
       cy="-60.374344"
       rx="2.7050667"
       ry="1.8763831"
       transform="matrix(0.62716952,0.77888279,-0.72795348,0.68562653,0,0)"
       inkscape:label="reflexo-olho-d" /></g><g
     inkscape:groupmode="layer"
     id="layer3"
     inkscape:label="Chapeu"
     style="display:inline"
     inkscape:highlight-color="#776b6b"><path
       style="display:inline;opacity:1;fill:#000000;fill-opacity:1;stroke:none;stroke-width:5.82083"
       d="m 155.58948,36.191656 1.29059,14.166564 C 143.14704,64.599636 120.664,69.499819 95.875224,59.560447 L 95.161205,44.427165 Z"
       id="path19"
       sodipodi:nodetypes="ccccc"
       inkscape:label="contorno-inf" /><path
       style="display:inline;opacity:1;fill:#272727;fill-opacity:1;stroke:none;stroke-width:5.0264"
       d="m 153.3392,38.720757 0.9525,10.803678 c -11.85873,12.297731 -34.77776,16.885248 -56.183348,8.302412 l -0.0963,-11.837464 z"
       id="path20"
       sodipodi:nodetypes="ccccc"
       inkscape:label="interno-inf" /><path
       style="display:inline;fill:#000000;fill-opacity:1;stroke:none;stroke-width:5.82083"
       d="m 125.6861,15.238522 c -3.33817,-0.83867 -5.49688,-0.261985 -8.24532,0.668539 L 71.311597,36.854624 c -5.327186,3.307445 -1.396905,5.447281 1.78277,5.794005 l 51.438833,6.999206 c 1.86464,0.209208 3.52008,0.470717 4.8094,0 L 177.38646,26.59005 c 2.08628,-1.001275 1.7023,-3.886569 -1.11423,-4.666135 z"
       id="path17"
       inkscape:label="contorno-sup"
       sodipodi:nodetypes="ccccccscc" /><path
       id="path25"
       style="display:inline;opacity:1;fill:#000000;stroke-width:5.47236"
       d="m 83.642801,58.509791 c 1.477851,0.06224 1.318241,-0.595638 1.295939,1.048758 l -0.250942,18.503067 c -0.0223,1.644398 -2.108446,2.464636 -3.586487,2.406866 -2.300458,-0.08991 -4.270609,-0.262407 -6.48849,-0.806493 -1.436569,-0.352416 -2.309502,-2.186014 -1.750116,-3.732502 L 79.01788,58.912802 c 0.559387,-1.546488 0.663543,-0.569843 2.1414,-0.507603 z"
       sodipodi:nodetypes="sssssssss"
       inkscape:label="contorno-felpudo-no" /><path
       id="rect25"
       style="display:inline;opacity:1;fill:#272727;fill-opacity:1;stroke-width:3.71196"
       d="m 82.070296,60.1679 c 0.880975,-0.238217 0.472603,0.03169 0.431974,1.265953 l -0.485278,14.742373 c -0.06108,1.855637 -1.128346,1.913426 -2.030486,1.827899 -1.404115,-0.133114 -2.727968,-0.205035 -4.041588,-0.740079 -1.155476,-0.470632 -0.375403,-1.777501 0.0097,-2.93281 l 4.62572,-13.875897 c 0.364543,-1.093531 0.482738,-0.0151 1.489923,-0.287442 z"
       sodipodi:nodetypes="sssssssss"
       inkscape:label="interno-felpudo-no" /><ellipse
       style="display:inline;opacity:1;fill:#000000;fill-opacity:1;stroke:none;stroke-width:4.97812"
       id="ellipse23"
       cx="86.965866"
       cy="55.667103"
       rx="3.9487002"
       ry="3.5151515"
       transform="matrix(0.99992139,0.01253846,-0.08568144,0.99632258,0,0)"
       inkscape:label="contorno-no-inf" /><ellipse
       style="display:inline;opacity:1;fill:#373737;fill-opacity:1;stroke:none;stroke-width:6.26953"
       id="ellipse24"
       cx="83.496986"
       cy="62.942261"
       rx="1.4886463"
       ry="1.5547687"
       transform="matrix(0.99710219,-0.07607384,-0.01621037,0.9998686,0,0)"
       inkscape:label="interno-no-inf" /><path
       style="display:inline;fill:#373737;fill-opacity:1;stroke:none;stroke-width:5.82083"
       d="m 71.60451,39.971094 49.68684,-22.594449 53.55721,7.322275 -46.86255,23.012863 z"
       id="path18"
       sodipodi:nodetypes="ccccc"
       inkscape:label="interno-sup" /><path
       style="display:inline;fill:#000000;fill-opacity:1;stroke:none;stroke-width:5.82083"
       d="m 117.65688,32.67724 -32.243399,11.49908 -0.781936,10.165186 -4.461643,-0.183986 2.069833,-5.013598 0.50596,-5.289576 2.161826,-2.115831 31.967419,-11.49908 z"
       id="path22"
       inkscape:label="cordao" /><ellipse
       style="display:inline;opacity:1;fill:#000000;fill-opacity:1;stroke:none;stroke-width:5.06025"
       id="path21"
       cx="115.81113"
       cy="47.204685"
       rx="4.5856271"
       ry="3.1276186"
       transform="matrix(0.99047722,-0.13767671,0.13447049,0.9909176,0,0)"
       inkscape:label="contorno-no-sup" /><ellipse
       style="display:inline;fill:#373737;fill-opacity:1;stroke:none;stroke-width:6.0703"
       id="path23"
       cx="111.90636"
       cy="52.479008"
       rx="2.0454531"
       ry="1.060763"
       transform="matrix(0.98285106,-0.18440117,0.21198779,0.97727231,0,0)"
       inkscape:label="interno-no-sup" /></g></svg>
