<?xml version="1.0" encoding="UTF-8" standalone="no"?>
<!-- Created with Inkscape (http://www.inkscape.org/) -->

<svg
   width="1024"
   height="1024"
   viewBox="0 0 270.93333 270.93333"
   version="1.1"
   id="svg1"
   xml:space="preserve"
   inkscape:version="1.4.2 (ebf0e940d0, 2025-05-08)"
   sodipodi:docname="logo_jacurutu.svg"
   xmlns:inkscape="http://www.inkscape.org/namespaces/inkscape"
   xmlns:sodipodi="http://sodipodi.sourceforge.net/DTD/sodipodi-0.dtd"
   xmlns="http://www.w3.org/2000/svg"
   xmlns:svg="http://www.w3.org/2000/svg"><sodipodi:namedview
     id="namedview1"
     pagecolor="#ffffff"
     bordercolor="#000000"
     borderopacity="0.25"
     inkscape:showpageshadow="2"
     inkscape:pageopacity="0.0"
     inkscape:pagecheckerboard="0"
     inkscape:deskcolor="#d1d1d1"
     inkscape:document-units="mm"
     inkscape:zoom="0.55195071"
     inkscape:cx="650.4204"
     inkscape:cy="371.40998"
     inkscape:window-width="1920"
     inkscape:window-height="1128"
     inkscape:window-x="0"
     inkscape:window-y="0"
     inkscape:window-maximized="1"
     inkscape:current-layer="layer6" /><defs
     id="defs1"><inkscape:path-effect
       effect="fillet_chamfer"
       id="path-effect17"
       is_visible="true"
       lpeversion="1"
       nodesatellites_param="F,0,0,1,0,0,0,1 @ F,0,0,1,0,0.43740583,0,1 @ F,0,0,1,0,0,0,1 @ F,0,0,1,0,0,0,1"
       radius="0"
       unit="px"
       method="auto"
       mode="F"
       chamfer_steps="1"
       flexible="false"
       use_knot_distance="true"
       apply_no_radius="true"
       apply_with_radius="true"
       only_selected="false"
       hide_knots="false" /></defs><g
     inkscape:groupmode="layer"
     id="layer5"
     inkscape:label="Galho"
     inkscape:highlight-color="#915500"
     style="display:inline"><path
       style="display:inline;opacity:1;fill:#000000;fill-opacity:1;stroke:none;stroke-width:5.82083"
       d="m 233.19995,214.28944 c 4.58253,4.75805 2.87452,15.39719 -1.77403,20.19246 l -126.3973,-3.19354 c -15.474721,0.26052 -19.737139,6.57463 -36.948982,10.30938 -3.521327,1.18673 -10.306331,-2.41678 -3.668149,-7.12573 l 15.820472,-8.86662 c -8.168338,-2.72242 -24.706427,-2.97076 -39.454759,-4.11398 -6.17624,-0.26034 -5.614568,-8.52195 -0.683781,-8.20325 9.272338,0.18353 15.75476,0.36705 24.921818,-1.81822 -7.991433,-5.71466 -20.98366,-14.00868 -23.658459,-18.72319 -0.406614,-2.25564 0.55541,-6.82744 5.88655,-3.92437 18.165442,11.83016 31.383031,23.38251 54.68491,23.65147 l 46.26035,2.36236 c 28.33712,-0.18226 48.11317,-0.88562 85.01136,-0.54677 z"
       id="path30"
       inkscape:label="contorno-galho"
       sodipodi:nodetypes="cccccccccccccc"
       sodipodi:insensitive="true" /><path
       style="display:inline;opacity:1;fill:#8e542b;fill-opacity:1;stroke:none;stroke-width:5.66016"
       d="m 231.26367,216.68729 c 3.75707,4.48693 1.34268,11.61479 -1.08066,14.73997 l -123.61357,-2.8957 c -15.047579,0.25333 -20.830112,4.78553 -37.357169,10.09471 -3.843508,0.59481 -7.001471,0.66407 -0.896004,-3.14604 6.696924,-3.35604 11.856122,-6.29271 17.4347,-10.27782 -13.255012,-6.4217 -28.00183,-5.06752 -42.343066,-6.17918 -6.285345,0.4458 -5.739177,-3.95987 -0.8047,-2.8811 9.016396,0.17846 19.531366,-0.0409 28.095904,-3.98317 -7.561156,-4.92785 -21.388731,-15.2052 -25.38763,-18.95082 -1.443839,-0.72555 -2.88435,-4.10788 2.299636,-1.28495 17.664024,11.50362 29.361538,22.80699 52.020221,23.06853 43.894208,3.86679 87.654808,2.02741 131.632338,1.69557 z"
       id="path31"
       inkscape:label="interno-galho"
       sodipodi:nodetypes="ccccccccccccc"
       sodipodi:insensitive="true" /></g><g
     inkscape:groupmode="layer"
     id="layer4"
     inkscape:label="Pe"
     style="display:inline"><path
       style="display:inline;opacity:1;fill:#000000;fill-opacity:1;stroke:none;stroke-width:5.82083"
       d="m 137.53165,206.21452 -10.99092,-1.4931 c 0.22871,0.36751 0.31568,0.80588 0.3318,1.24425 -0.14283,0.51848 -0.40377,0.68264 -0.99541,0.70508 -2.25348,-0.40092 -14.2951,-2.00463 -14.10155,6.26275 l 0.29033,2.98621 c 8.11531,-0.19355 14.49701,1.61206 18.133,3.40932 1.31451,0.50605 1.36552,0.65938 1.55016,1.99915 0.58834,3.53401 1.9076,3.97939 2.62241,4.57926 2.95624,2.21564 6.60304,1.4112 8.69336,-1.14488 2.37745,-2.24671 3.08186,-7.1787 0.623,-11.15282 -0.71946,-1.12349 -1.41529,-1.96352 -2.37096,-2.94528 -0.34718,-0.23173 -0.43453,-0.48709 -0.56912,-1.00228 l -0.55071,-2.5657 z"
       id="path26"
       inkscape:label="contorno-pe"
       sodipodi:nodetypes="ccccccccccccccc" /><path
       style="display:inline;opacity:1;fill:#f9a545;fill-opacity:1;stroke:none;stroke-width:4.3456"
       d="m 128.93807,205.76075 c 0.24656,0.31113 0.20294,3.46032 -1.97638,3.81713 -5.49253,0.5801 -13.07051,-1.87954 -12.72158,3.63889 7.56628,0.0919 18.28051,2.22488 19.88868,5.70414 0.96217,7.77317 6.07325,6.07006 7.69031,3.52411 1.84347,-4.39098 -1.39065,-9.13334 -3.71655,-11.21699 -0.30637,-0.30829 -0.36606,-0.48759 0.22919,-0.80483 -0.0759,-1.07761 -0.43527,-2.3442 -0.93636,-3.42181 -2.83611,0.66697 -5.788,-0.27203 -8.45731,-1.24064 z"
       id="path27"
       inkscape:label="interno-pe"
       sodipodi:nodetypes="ccccccccc" /></g><g
     inkscape:groupmode="layer"
     id="layer6"
     inkscape:label="Coruja"
     style="display:inline"><path
       style="display:inline;opacity:1;fill:#000000;fill-opacity:1;stroke:none;stroke-width:5.82083"
       d="m 159.19431,56.107226 c 31.60089,-4.193839 44.45461,42.710976 31.47147,62.682594 16.66748,6.45174 21.63543,58.77694 2.91968,81.87107 6.00572,20.70671 8.65742,45.13017 -9.48049,43.47206 -1.65008,4.55055 -11.11523,3.71738 -15.71767,-4.75719 -10.77527,2.8977 -18.07718,-12.87394 -16.08784,-32.63995 -0.16884,-0.23108 -2.61679,-1.02804 -2.99602,-1.00444 -0.66298,0.34719 -0.73951,1.66489 -1.863,2.05784 -0.68204,0.23855 -6.62538,0.67023 -9.8342,-1.08721 -23.1363,4.71361 -69.257104,-47.91928 -35.26539,-81.2427 -25.478374,-14.72881 -11.119813,-50.296104 -1.1137,-60.31917 19.67654,-3.597614 38.45261,-4.593033 57.96716,-9.032904 z"
       id="path33"
       inkscape:label="contorno"
       sodipodi:nodetypes="cccccccscccc" /><path
       style="display:inline;opacity:1;fill:#94582e;fill-opacity:1;stroke:none;stroke-width:5.62583"
       d="m 161.11357,58.309831 c 29.96969,0.767931 37.20985,41.944949 26.38129,60.798989 21.30618,15.61883 17.83776,64.24022 2.91987,80.83219 6.6122,20.82071 7.87123,44.89139 -7.00911,41.61193 -6.64913,8.15307 -13.5615,-3.74776 -15.63726,-8.26956 1.18667,10.23372 -17.87282,0.22194 -12.36669,-28.19884 -4.1589,-1.33434 -7.47992,-3.48848 -7.84644,-3.46567 -0.50433,1.73893 0.0748,3.17953 -1.48873,3.64566 -2.70326,0.41307 -6.92971,-0.26831 -7.67258,-1.36265 -24.76459,3.95349 -64.808844,-47.34607 -32.23636,-79.23941 -22.582479,-11.67204 -14.829864,-45.59856 -3.39184,-56.644612 19.01739,-3.477095 39.48703,-5.41689 58.34785,-9.708027 z"
       id="path34"
       inkscape:label="interno-sup"
       sodipodi:nodetypes="cccccccccccc" /><path
       style="display:inline;opacity:1;fill:#6f3f1f;fill-opacity:1;stroke:none;stroke-width:5.62583"
       d="m 172.90425,164.93807 c -2.26332,8.78994 17.21297,16.31994 16.09458,2.29767 5.84044,2.38124 8.9632,-4.8409 9.63046,-6.92188 2.60124,14.31115 -1.13737,31.75576 -8.21456,39.62715 6.6122,20.82071 7.87123,44.89139 -7.00911,41.61193 -6.64913,8.15307 -13.5615,-3.74776 -15.63726,-8.26956 1.18667,10.23372 -17.87282,0.22194 -12.36669,-28.19884 -4.1589,-1.33434 -7.47992,-3.48848 -7.84644,-3.46567 -0.50433,1.73893 0.0748,3.17953 -1.48873,3.64566 -2.70326,0.41307 -6.92971,-0.26831 -7.67258,-1.36265 -17.61558,2.8122 -42.96234,-22.33243 -44.405212,-48.56305 7.521112,8.73167 13.146382,10.06029 11.872262,-4.58405 3.12069,8.74801 16.48597,20.42253 16.18005,0.95546 9.1868,15.73921 13.85985,9.98507 17.20663,4.17119 3.78087,6.05759 15.31141,11.49602 15.24043,-4.27234 3.15907,2.36091 10.22137,15.06684 17.26611,10.59486 1.627,2.33399 1.29192,0.87855 1.15006,2.73412 z"
       id="path42"
       inkscape:label="interno-inf"
       sodipodi:nodetypes="ccccccccccccccccc" /><path
       style="display:inline;opacity:1;fill:#94582e;fill-opacity:1;stroke:none;stroke-width:5.82083"
       d="m 108.25267,163.18686 c 0.78038,-0.0879 1.59373,0.0549 2.34113,0.52758 3.39629,3.27539 6.56177,3.8799 8.93587,4.05576 2.98961,1.25301 4.00081,8.24343 -1.51679,6.72664 -1.57174,-0.70344 -7.13331,-3.97883 -9.76021,-11.30998 z"
       id="path46"
       sodipodi:nodetypes="ccccc"
       inkscape:label="pena4" /><path
       style="display:inline;fill:#94582e;fill-opacity:1;stroke:none;stroke-width:5.82083"
       d="m 126.84983,165.1323 c 4.79218,3.11052 9.18867,2.39609 11.21106,-0.65947 l 0.56056,1.05516 c 8.73803,13.48624 -9.89212,12.89271 -11.77162,-0.39569 z"
       id="path45"
       sodipodi:nodetypes="cccc"
       inkscape:label="penas3" /><path
       style="display:inline;opacity:1;fill:#6f3f1f;fill-opacity:1;stroke:none;stroke-width:5.82083"
       d="m 171.13012,157.68489 c 6.57834,11.37218 11.89556,6.13056 11.86344,-2.0761 9.02939,8.60099 11.33617,2.37268 12.55547,-4.15221 l 0.88976,2.76814 c 1.12044,14.10431 -9.3642,9.807 -10.35476,9.19001 1.0889,3.22496 -7.27453,11.97519 -14.5007,-0.80272 -0.1635,-0.84286 -0.48685,-3.76073 -0.45316,-4.92712 z"
       id="path44"
       inkscape:label="penas2"
       sodipodi:nodetypes="cccccccc" /><path
       style="display:inline;opacity:1;fill:#6f3f1f;fill-opacity:1;stroke:none;stroke-width:5.82083"
       d="m 164.80561,138.86563 c 6.08057,8.33026 11.61903,5.63279 12.13998,-1.99314 5.26848,9.20937 13.27193,8.37355 13.35743,-0.19772 l 0.5026,3.01703 c -1.34074,10.09451 -11.38292,3.50193 -12.42879,1.61287 -0.43206,4.33111 -5.89184,10.28831 -12.56493,1.76908 -0.1635,-0.84286 -1.64831,-0.69116 -1.91881,-5.23131 z"
       id="path43"
       inkscape:label="penas1"
       sodipodi:nodetypes="cccccccc" /><path
       style="display:inline;opacity:1;fill:#000000;fill-opacity:1;stroke:none;stroke-width:5.82083"
       d="m 190.42744,199.97645 -1.12453,-8.90097 1.44855,2.26813 1.35325,5.41301 z"
       id="path35"
       inkscape:label="linha1" /><path
       style="display:inline;opacity:1;fill:#000000;fill-opacity:1;stroke:none;stroke-width:5.82083"
       d="m 186.1745,243.44252 0.0534,-1.12185 c -0.58764,-0.16027 -1.65607,-0.26711 -1.92318,-1.60265 -0.83694,-7.71053 -3.00942,-23.38088 -5.07506,-34.5104 -0.35614,-1.51361 -1.2465,-3.29433 -1.76291,-4.32715 2.51068,35.48208 7.14852,39.63983 2.88477,42.36338 z"
       id="path36"
       sodipodi:nodetypes="ccccccc"
       inkscape:label="linha2" /><path
       style="display:inline;fill:#000000;fill-opacity:1;stroke:none;stroke-width:5.82083"
       d="m 166.11093,209.92554 c -1.05423,-5.20143 -1.76228,-4.66909 -1.76714,0.10395 l 2.70268,27.70248 2.88291,-0.4158 z"
       id="path38"
       sodipodi:nodetypes="ccccc"
       inkscape:label="linha3" /><path
       style="display:inline;opacity:1;fill:#000000;fill-opacity:1;stroke:none;stroke-width:5.82083"
       d="m 146.17908,134.99026 c 16.98446,29.46982 17.73191,80.60324 -1.76179,42.21803 -0.0492,0.0948 0.12765,1.87965 0.20065,2.0405 20.23077,42.2811 22.79533,-17.19519 4.29767,-41.76318 z"
       id="path37"
       sodipodi:nodetypes="ccccc"
       inkscape:label="linha4" /><path
       style="display:inline;opacity:1;fill:#000000;fill-opacity:1;stroke:none;stroke-width:5.82083"
       d="m 132.70521,183.72922 c 4.17532,9.62411 14.94508,16.82172 15.96666,17.67897 3.89532,2.61761 5.07527,4.81528 6.26321,-1.76023 0.28732,-1.81996 0.61681,-4.57997 0.39481,-8.02454 0.43522,0.44704 1.41171,1.29303 2.62135,1.80009 0.21574,12.09965 -3.59942,14.4333 -8.43836,11.94288 -3.02088,-2.45749 -15.43532,-13.72456 -17.93749,-22.20988 z"
       id="path39"
       sodipodi:nodetypes="cccccccc"
       inkscape:label="linha5" /><path
       style="display:inline;opacity:1;fill:#000000;fill-opacity:1;stroke:none;stroke-width:5.82083"
       d="m 135.15663,205.34795 c -6.79219,-6.24882 -20.54543,-15.11928 -22.19027,-26.94503 l 1.70164,2.70875 c 7.54332,13.53644 22.36348,22.33621 23.72823,22.79027 z"
       id="path40"
       sodipodi:nodetypes="ccccc"
       inkscape:label="linha6" /><path
       style="fill:#000000;fill-opacity:1;stroke:none;stroke-width:5.82083"
       d="m 101.12457,130.5968 3.69749,-6.46164 c 12.55232,-7.94541 27.15083,-1.60344 32.05688,2.22568 l 3.23082,3.19492 c -15.04125,-7.44285 -27.74913,-9.96767 -38.98519,1.04104 z"
       id="path41"
       sodipodi:nodetypes="ccccc"
       inkscape:label="linha7" /></g><g
     inkscape:groupmode="layer"
     id="layer2"
     inkscape:label="Oculos e bico"
     style="display:inline"
     inkscape:highlight-color="#ba9e0f"
     sodipodi:insensitive="true"><path
       style="display:inline;fill:#000000;fill-opacity:1;stroke:none;stroke-width:5.28388"
       d="m 121.84207,94.438141 c 0,0 3.04508,-0.03747 4.35652,-0.05791 0.73614,-0.01148 1.1414,-1.503903 0.63239,-2.084431 -0.92158,-1.051084 -3.50495,-1.125545 -4.70785,-0.289505 -0.75537,0.524997 -0.28106,2.43184 -0.28106,2.43184 z"
       id="path9"
       sodipodi:nodetypes="csaacc"
       inkscape:label="arco-oculos" /><path
       id="rect8"
       style="display:inline;fill:#000000;stroke:none;stroke-width:6.44124"
       transform="matrix(0.99986968,-0.01614328,0.00910643,0.99995855,0,0)"
       d="m 167.40177,97.307033 c 0.21124,-0.0035 11.8266,-0.197645 12.03784,-0.201175 0.21124,-0.0035 0.76279,0.431014 0.76279,0.9664 v 0.880712 c 0,0.535386 -0.34019,0.967683 -0.76279,0.9664 l -11.75397,-0.03569 c -0.4226,-0.0013 -1.04483,-0.395326 -1.04483,-0.930712 v -0.880712 c 0,-0.535386 0.54972,-0.761695 0.76096,-0.765225 z"
       sodipodi:nodetypes="zzssssssz"
       inkscape:label="perna-oculos" /><path
       id="path2"
       style="display:inline;opacity:1;fill:#000000;fill-opacity:1;stroke:none;stroke-width:6.1051"
       d="m 123.22353,95.058516 c 0,11.080734 -8.07166,20.138974 -17.9455,20.138974 -9.873845,0 -18.764653,-11.55175 -18.031592,-20.494387 0,-11.080731 7.955742,-20.1612 18.368262,-20.085669 10.41255,0.07554 18.52516,9.910149 17.60883,20.441082 z"
       sodipodi:nodetypes="csczc"
       inkscape:label="oculos-e" /><path
       id="path3"
       style="display:inline;opacity:1;fill:#ffc451;fill-opacity:1;stroke-width:4.95896"
       d="m 119.46181,94.91056 c 0,9.19223 -6.41957,16.70667 -14.27244,16.70667 -7.85287,0 -14.486648,-7.20115 -14.486648,-16.393389 0,-9.192234 6.473119,-17.333255 14.754418,-17.270589 8.2813,0.06265 14.00467,7.765065 14.00467,16.957308 z"
       sodipodi:nodetypes="csszc"
       inkscape:label="lente-e" /><ellipse
       style="display:inline;fill:#1a1a1a;fill-opacity:1;stroke:none;stroke-width:5.96597"
       id="path7"
       cx="113.6737"
       cy="90.426491"
       rx="7.1428456"
       ry="8.9751406"
       transform="rotate(2.4846113)"
       inkscape:label="olho-e" /><ellipse
       style="display:inline;fill:#f9f9f9;fill-opacity:1;stroke:none;stroke-width:4.89641"
       id="ellipse8"
       cx="136.63887"
       cy="-51.065968"
       rx="2.2096488"
       ry="1.5835438"
       transform="matrix(0.50355468,0.86396335,-0.86433956,0.50290865,0,0)"
       inkscape:label="reflexo-olho-e" /><path
       id="path10"
       style="display:inline;opacity:1;fill:#000000;stroke-width:5.59027"
       inkscape:label="bico-contorno"
       transform="matrix(0.74923372,0.66230569,-0.5596037,0.82876033,0,0)"
       d="m 170.38836,0.04240895 c -1.5546,5.91910425 -2.63919,11.10748305 -6.69218,11.93280905 -4.34842,0.885488 -9.03856,-6.6480436 -8.96546,-11.93280905 0.0614,-4.43686375 3.50508,-11.79946095 7.82882,-11.79945995 4.32374,-10e-7 10.515,1.571886 7.82882,11.79945995 z"
       sodipodi:nodetypes="ssass" /><path
       id="path11"
       style="display:inline;opacity:1;fill:#fba845;fill-opacity:1;stroke-width:3.5859"
       inkscape:label="bico-interno"
       d="m 124.00796,112.12295 c -2.69886,2.86241 -4.83422,4.66211 -6.82471,3.20318 -2.13558,-1.56526 -0.60052,-8.65784 1.40686,-11.37091 2.00738,-2.71307 5.8936,-5.352751 7.73673,-3.26417 1.84313,2.08858 3.50009,5.26032 0.5301,8.41028 z"
       sodipodi:nodetypes="sszsss" /><path
       id="path4"
       style="display:inline;opacity:1;fill:#000000;fill-opacity:1;stroke:none;stroke-width:6.96228"
       d="m 168.76758,96.359245 c 0,11.931435 -9.74891,21.685105 -21.67447,21.685105 -11.92556,0 -21.99978,-9.34703 -21.99978,-21.278462 0,-11.931436 9.83024,-22.498392 22.40642,-22.417063 12.57619,0.08133 21.26783,10.078983 21.26783,22.01042 z"
       sodipodi:nodetypes="csszc"
       inkscape:label="oculos-d" /><path
       id="path5"
       style="display:inline;opacity:1;fill:#ffc451;fill-opacity:1;stroke-width:5.82137"
       d="m 165.18912,96.332552 c 0,9.976228 -8.15135,18.131558 -18.12266,18.131558 -9.97132,0 -18.39467,-7.81533 -18.39467,-17.791552 0,-9.976226 8.21935,-18.811569 18.73467,-18.743568 10.51532,0.068 17.78266,8.427335 17.78266,18.403562 z"
       sodipodi:nodetypes="csszc"
       inkscape:label="lente-d" /><ellipse
       style="display:inline;fill:#1a1a1a;fill-opacity:1;stroke:none;stroke-width:6.11768"
       id="path6"
       cx="147.07074"
       cy="97.131393"
       rx="8.05867"
       ry="10.134388"
       inkscape:label="olho-d" /><ellipse
       style="display:inline;fill:#f9f9f9;fill-opacity:1;stroke:none;stroke-width:5.89726"
       id="path8"
       cx="171.78229"
       cy="-58.688393"
       rx="2.7050667"
       ry="1.8763831"
       transform="matrix(0.62716952,0.77888279,-0.72795348,0.68562653,0,0)"
       inkscape:label="reflexo-olho-d" /></g><g
     inkscape:groupmode="layer"
     id="layer3"
     inkscape:label="Chapeu"
     style="display:inline"
     sodipodi:insensitive="true"
     inkscape:highlight-color="#776b6b"><path
       style="display:inline;opacity:1;fill:#000000;fill-opacity:1;stroke:none;stroke-width:5.82083"
       d="m 159.82284,44.129161 1.29059,14.166564 C 147.3804,72.537141 124.89736,77.437324 100.10856,67.497952 L 99.394541,52.36467 Z"
       id="path19"
       sodipodi:nodetypes="ccccc"
       inkscape:label="contorno-inf" /><path
       style="display:inline;opacity:1;fill:#272727;fill-opacity:1;stroke:none;stroke-width:5.0264"
       d="m 157.57256,46.658262 0.9525,10.803678 C 146.66633,69.759671 123.7473,74.347188 102.3417,65.764352 l -0.0963,-11.837464 z"
       id="path20"
       sodipodi:nodetypes="ccccc"
       inkscape:label="interno-inf" /><path
       style="display:inline;fill:#000000;fill-opacity:1;stroke:none;stroke-width:5.82083"
       d="m 129.91946,23.176027 c -3.33817,-0.83867 -5.49688,-0.261985 -8.24532,0.668539 L 75.544933,44.792129 c -5.327186,3.307445 -1.396905,5.447281 1.78277,5.794005 l 51.438857,6.999206 c 1.86464,0.209208 3.52008,0.470717 4.8094,0 l 48.04386,-23.057785 c 2.08628,-1.001275 1.7023,-3.886569 -1.11423,-4.666135 z"
       id="path17"
       inkscape:label="contorno-sup"
       sodipodi:nodetypes="ccccccscc" /><path
       id="path25"
       style="display:inline;opacity:1;fill:#000000;stroke-width:5.47246"
       transform="matrix(0.9839107,0.178661,-0.17022238,0.98540567,0,0)"
       d="m 97.908055,49.679991 c 1.466932,-0.202804 1.197656,-0.821603 1.455602,0.80038 l 2.902463,18.250869 c 0.25795,1.621984 -1.6582,2.801782 -3.124557,3.009017 -2.282274,0.322546 -4.253106,0.504825 -6.531318,0.365736 -1.475647,-0.09009 -2.648002,-1.738288 -2.360016,-3.359894 l 3.16884,-17.843244 c 0.287986,-1.621606 0.556879,-0.679248 2.023816,-0.882053 z"
       sodipodi:nodetypes="sssssssss"
       inkscape:label="contorno-felpudo-no" /><path
       id="rect25"
       style="display:inline;opacity:1;fill:#272727;fill-opacity:1;stroke-width:3.71196"
       d="m 86.303632,68.105405 c 0.880975,-0.238217 0.472603,0.03169 0.431974,1.265953 l -0.485278,14.742373 c -0.06108,1.855637 -1.128346,1.913426 -2.030486,1.827899 -1.404115,-0.133114 -2.727968,-0.205035 -4.041588,-0.740079 -1.155476,-0.470632 -0.375403,-1.777501 0.0097,-2.93281 l 4.62572,-13.875897 c 0.364543,-1.093531 0.482738,-0.0151 1.489923,-0.287442 z"
       sodipodi:nodetypes="sssssssss"
       inkscape:label="interno-felpudo-no" /><ellipse
       style="display:inline;opacity:1;fill:#000000;fill-opacity:1;stroke:none;stroke-width:4.97812"
       id="ellipse23"
       cx="91.876945"
       cy="63.572102"
       rx="3.9487002"
       ry="3.5151515"
       transform="matrix(0.9999214,0.01253846,-0.08568144,0.99632257,0,0)"
       inkscape:label="contorno-no-inf" /><ellipse
       style="display:inline;opacity:1;fill:#373737;fill-opacity:1;stroke:none;stroke-width:6.26953"
       id="ellipse24"
       cx="87.877106"
       cy="71.214066"
       rx="1.4886463"
       ry="1.5547687"
       transform="matrix(0.99710219,-0.07607384,-0.01621037,0.9998686,0,0)"
       inkscape:label="interno-no-inf" /><path
       style="display:inline;fill:#373737;fill-opacity:1;stroke:none;stroke-width:5.82083"
       d="M 75.837846,47.908599 125.52471,25.31415 179.08192,32.636425 132.21937,55.649288 Z"
       id="path18"
       sodipodi:nodetypes="ccccc"
       inkscape:label="interno-sup" /><path
       style="display:inline;fill:#000000;fill-opacity:1;stroke:none;stroke-width:5.82083"
       d="m 121.89024,40.614745 -32.243423,11.49908 -0.781936,10.165186 -4.461643,-0.183986 2.069833,-5.013598 0.50596,-5.289576 2.161826,-2.115831 31.967443,-11.49908 z"
       id="path22"
       inkscape:label="cordao" /><ellipse
       style="display:inline;opacity:1;fill:#000000;fill-opacity:1;stroke:none;stroke-width:5.06025"
       id="path21"
       cx="118.93861"
       cy="55.649483"
       rx="4.5856271"
       ry="3.1276186"
       transform="matrix(0.99047721,-0.13767671,0.13447049,0.99091761,0,0)"
       inkscape:label="contorno-no-sup" /><ellipse
       style="display:inline;fill:#373737;fill-opacity:1;stroke:none;stroke-width:6.0703"
       id="path23"
       cx="114.36179"
       cy="61.064423"
       rx="2.0454531"
       ry="1.060763"
       transform="matrix(0.98285106,-0.18440117,0.21198779,0.97727231,0,0)"
       inkscape:label="interno-no-sup" /></g></svg>
