<?xml version="1.0" encoding="UTF-8" standalone="no"?>
<!-- Created with Inkscape (http://www.inkscape.org/) -->

<svg
   width="44mm"
   height="25mm"
   viewBox="0 0 44 25"
   version="1.1"
   id="svg1"
   inkscape:version="1.4.2 (ebf0e940d0, 2025-05-08)"
   sodipodi:docname="logo_ufrj_capa.svg"
   xmlns:inkscape="http://www.inkscape.org/namespaces/inkscape"
   xmlns:sodipodi="http://sodipodi.sourceforge.net/DTD/sodipodi-0.dtd"
   xmlns="http://www.w3.org/2000/svg"
   xmlns:svg="http://www.w3.org/2000/svg">
  <sodipodi:namedview
     id="namedview1"
     pagecolor="#ffffff"
     bordercolor="#000000"
     borderopacity="0.25"
     inkscape:showpageshadow="2"
     inkscape:pageopacity="0.0"
     inkscape:pagecheckerboard="0"
     inkscape:deskcolor="#d1d1d1"
     inkscape:document-units="mm"
     inkscape:zoom="4.4548521"
     inkscape:cx="79.463918"
     inkscape:cy="23.345332"
     inkscape:window-width="1920"
     inkscape:window-height="1048"
     inkscape:window-x="1920"
     inkscape:window-y="0"
     inkscape:window-maximized="1"
     inkscape:current-layer="layer1" />
  <defs
     id="defs1" />
  <g
     inkscape:label="Layer 1"
     inkscape:groupmode="layer"
     id="layer1">
    <g
       id="g18"
       transform="matrix(0.13552991,0,0,0.13552991,4.7716726,-7.4542632)"
       inkscape:export-filename="logo_universidade.pdf"
       inkscape:export-xdpi="96"
       inkscape:export-ydpi="96">
			
			
			
			
			<path
   fill="#003366"
   d="m 247.18,108.763 c 0.094,-0.085 0.164,-0.186 0.248,-0.315 0.05,-0.068 0.14,-0.204 0.214,-0.287 0.75,0.433 2.396,1.354 2.471,1.4 0.085,0.048 0.179,0.07 0.271,0.07 0.194,0 0.384,-0.104 0.488,-0.283 0.149,-0.267 0.056,-0.611 -0.214,-0.76 -0.02,-0.011 -1.913,-1.074 -2.574,-1.463 -0.791,-0.466 -1.387,0.41 -1.581,0.696 -0.029,0.044 -0.061,0.092 -0.079,0.115 -0.215,0.208 -0.229,0.547 -0.029,0.771 0.198,0.232 0.556,0.26 0.785,0.056"
   id="path5" />

			<path
   fill="#003366"
   d="m 247.194,193.992 c -0.496,0 -0.904,0.407 -0.904,0.91 0,0.501 0.408,0.905 0.904,0.905 0.503,0 0.91,-0.404 0.91,-0.905 0,-0.503 -0.407,-0.91 -0.91,-0.91"
   id="path6" />

			<path
   fill="#003366"
   d="m 233.257,205.007 c -0.164,0.258 -0.09,0.603 0.168,0.772 0.097,0.06 0.2,0.089 0.305,0.089 0.185,0 0.362,-0.095 0.469,-0.259 l 0.631,-0.98 c 0.085,-0.128 0.108,-0.287 0.069,-0.436 -0.035,-0.151 -0.134,-0.278 -0.27,-0.354 l -2.027,-1.119 c -0.269,-0.147 -0.606,-0.05 -0.762,0.22 -0.144,0.273 -0.049,0.613 0.226,0.762 l 1.5,0.827 z"
   id="path7" />

			<path
   fill="#003366"
   d="m 236.558,207.333 c 0.139,0 0.269,-0.055 0.373,-0.143 l 1.325,-1.188 c 0.204,-0.18 0.244,-0.482 0.101,-0.711 l -0.696,-1.119 c -0.014,-0.021 -0.029,-0.045 -0.044,-0.06 l -0.761,-0.917 0.637,-0.833 c 0.186,-0.242 0.139,-0.598 -0.104,-0.78 -0.249,-0.19 -0.598,-0.138 -0.785,0.104 l -0.909,1.185 c -0.16,0.209 -0.15,0.496 0.015,0.699 l 1.022,1.229 0.429,0.685 -0.796,0.713 -1.505,-0.119 c -0.311,-0.03 -0.578,0.202 -0.604,0.51 -0.023,0.312 0.204,0.58 0.514,0.604 l 1.744,0.138 c 0.014,0.003 0.028,0.003 0.044,0.003"
   id="path8" />

			<path
   fill="#003366"
   d="m 239.162,208.109 c 0.021,-0.307 -0.219,-0.57 -0.526,-0.592 l -1.721,-0.094 c -0.175,-0.005 -0.343,0.065 -0.457,0.199 l -1.067,1.256 c -0.204,0.236 -0.175,0.587 0.06,0.785 0.104,0.093 0.233,0.137 0.362,0.137 0.159,0 0.317,-0.067 0.428,-0.193 l 0.89,-1.052 1.447,0.08 c 0.302,0.018 0.569,-0.217 0.584,-0.526"
   id="path9" />

			<path
   fill="#003366"
   d="m 228.862,204.103 c -0.293,0.097 -0.451,0.414 -0.354,0.707 0,0.005 0.114,0.388 -0.107,0.695 -0.249,0.357 -0.886,0.556 -1.789,0.572 -0.307,0.005 -0.559,0.257 -0.553,0.564 0.004,0.306 0.253,0.549 0.557,0.549 h 0.01 c 1.31,-0.018 2.212,-0.368 2.688,-1.033 0.542,-0.767 0.284,-1.606 0.255,-1.7 -0.1,-0.295 -0.413,-0.453 -0.707,-0.354"
   id="path10" />

			<path
   fill="#003366"
   d="m 232.681,200.674 c 0.108,0.153 0.282,0.234 0.457,0.234 0.108,0 0.224,-0.037 0.322,-0.104 0.249,-0.182 0.31,-0.527 0.13,-0.777 -0.006,-0.007 -0.233,-0.335 -0.78,-1.152 -0.69,-1.036 -1.406,-1.229 -2.562,-1.229 -0.959,0 -2.628,-0.313 -2.644,-0.313 -0.305,-0.06 -0.598,0.138 -0.651,0.443 -0.06,0.303 0.141,0.594 0.441,0.654 0.076,0.011 1.79,0.333 2.854,0.333 0.899,0 1.203,0.09 1.631,0.73 0.558,0.836 0.792,1.164 0.802,1.181"
   id="path11" />

			<path
   fill="#003366"
   d="m 237.462,200.395 c 0.035,0 0.069,-0.006 0.104,-0.01 0.303,-0.056 0.502,-0.347 0.448,-0.649 -0.056,-0.313 -0.021,-0.673 0.028,-0.735 0,0 0.02,-0.005 0.063,0 0.339,0.028 0.626,0.111 0.91,0.192 0.491,0.143 1.005,0.292 1.536,0.025 0.277,-0.135 0.388,-0.474 0.248,-0.744 -0.134,-0.28 -0.473,-0.39 -0.746,-0.257 -0.14,0.07 -0.353,0.011 -0.729,-0.098 -0.299,-0.086 -0.671,-0.194 -1.106,-0.233 -0.505,-0.05 -0.813,0.165 -0.98,0.347 -0.508,0.559 -0.357,1.521 -0.323,1.706 0.05,0.267 0.288,0.456 0.547,0.456"
   id="path12" />

			<path
   fill="#003366"
   d="m 242.671,148.706 c -0.313,0.113 -0.789,0.125 -1.097,-0.086 -0.22,-0.145 -0.33,-0.399 -0.34,-0.764 -0.021,-0.917 1.193,-1.905 1.666,-2.208 0.258,-0.17 0.332,-0.511 0.169,-0.771 -0.169,-0.263 -0.513,-0.335 -0.775,-0.168 -0.224,0.145 -2.212,1.479 -2.173,3.172 0.021,0.929 0.457,1.421 0.825,1.662 0.384,0.265 0.824,0.362 1.232,0.362 0.327,0 0.637,-0.061 0.88,-0.151 0.289,-0.109 0.438,-0.429 0.328,-0.721 -0.103,-0.289 -0.427,-0.438 -0.715,-0.327"
   id="path13" />

			<path
   fill="#003366"
   d="m 237.596,134.054 c 0.605,-0.268 1.173,-0.471 1.699,-0.624 -0.353,0.876 -0.734,2.233 -0.242,3.214 -1.264,-0.095 -3.271,-0.544 -5.3,-1.134 0.939,-0.277 2.208,-0.727 3.843,-1.456 m -6.109,1.897 c 0.045,0.029 0.089,0.056 0.145,0.072 1.016,0.335 5.39,1.732 7.84,1.732 0.547,0 0.999,-0.071 1.297,-0.239 0.671,-0.379 1.173,-1.108 1.452,-2.118 0.118,-0.428 0.188,-0.895 0.212,-1.337 0.074,-0.03 0.149,-0.074 0.21,-0.139 l 0.85,-0.891 c 0.062,-0.03 0.109,-0.064 0.154,-0.113 0.14,-0.144 0.184,-0.353 0.125,-0.549 -0.021,-0.066 -0.109,-0.351 -0.259,-0.708 l 1.332,0.696 c 0.078,0.045 0.168,0.063 0.259,0.063 0.198,0 0.393,-0.109 0.491,-0.298 0.144,-0.273 0.041,-0.612 -0.232,-0.755 l -3.585,-1.872 c -0.14,-0.076 -0.293,-0.082 -0.432,-0.038 -1.367,-0.187 -3.416,0.46 -4.728,1.134 -1.016,0.522 -1.815,0.881 -2.925,1.373 l -0.297,0.133 c -0.278,0.125 -0.408,0.458 -0.283,0.737 0.124,0.282 0.457,0.406 0.74,0.282 l 0.293,-0.133 c 1.128,-0.498 1.938,-0.861 2.981,-1.397 1.811,-0.934 3.968,-1.277 4.454,-0.905 0.293,0.224 0.581,0.723 0.806,1.202 -1.055,-0.034 -2.903,0.115 -5.244,1.145 -3.854,1.728 -5.546,1.814 -5.563,1.814 -0.309,0.009 -0.553,0.27 -0.543,0.571 0.013,0.27 0.202,0.483 0.45,0.538"
   id="path14" />

			<path
   fill="#003366"
   d="m 285.691,154.491 c -3.504,1.992 -4.458,6.17 -4.499,6.352 -0.014,0.075 -0.014,0.153 0,0.229 -0.064,0.045 -0.128,0.078 -0.191,0.128 -0.592,0.421 -1.288,1.106 -2.055,2.616 0.18,-1.873 0.209,-3.578 0.035,-4.997 0.036,-0.055 0.063,-0.109 0.084,-0.172 l 0.623,-2.192 c 0.844,-2.37 3.479,-5.081 5.761,-5.936 0.63,-0.234 1.53,-0.432 2.231,-0.033 0.616,0.347 0.641,0.67 0.646,0.778 0.04,0.5 -0.388,1.462 -2.635,3.227 m -3.065,8.352 c -0.014,0.024 -0.02,0.055 -0.029,0.079 -0.164,0.646 -0.518,1.502 -0.965,2.583 -0.531,1.289 -1.198,2.89 -1.818,4.833 -0.979,3.07 -4.922,15.96 -4.961,16.091 -0.045,0.152 -0.021,0.313 0.049,0.436 -0.715,0.865 -1.45,1.896 -2.201,3.086 -2.863,4.559 -7.381,11.599 -8.485,13.322 -0.214,0.275 -0.422,0.554 -0.619,0.841 -0.007,0.004 -0.011,0.01 -0.018,0.015 -0.059,0.071 -5.965,6.965 -8.475,8.451 -0.034,0.018 -0.064,0.045 -0.094,0.067 -0.064,0.045 -0.125,0.082 -0.189,0.122 -1.665,1.015 -3.917,2.177 -6.438,3.373 9.897,-7.724 19.083,-20.017 19.192,-20.159 0.179,-0.249 0.13,-0.598 -0.119,-0.788 -0.244,-0.183 -0.597,-0.129 -0.779,0.116 -0.125,0.169 -12.473,16.699 -23.834,23.271 -0.056,0.033 -0.101,0.078 -0.142,0.119 -2.171,0.935 -4.383,1.838 -6.496,2.668 9.862,-6.035 16.578,-12.117 21.146,-17.479 7.693,-7.301 10.396,-11.899 12.933,-17.769 0.113,-0.085 0.189,-0.214 0.214,-0.365 0,-0.059 0.009,-0.111 0.016,-0.166 0.467,-1.102 0.935,-2.236 1.428,-3.455 l 0.402,-0.991 c 3.599,-8.816 3.847,-19.28 3.482,-20.832 -0.272,-1.173 -0.656,-1.963 -0.943,-2.538 -0.294,-0.602 -0.428,-0.906 -0.362,-1.219 0.068,-0.128 0.248,-0.357 0.716,-0.401 0.716,-0.065 1.719,0.357 2.182,0.91 1.021,2.419 0.586,7.25 -0.478,12.489 -0.039,0.149 -0.074,0.292 -0.115,0.443 -0.019,0.061 -0.019,0.118 -0.014,0.178 -1.228,5.817 -3.19,12.045 -4.807,15.998 -0.114,0.287 0.024,0.609 0.308,0.729 0.284,0.115 0.612,-0.02 0.729,-0.306 1.598,-3.923 3.704,-10.52 4.967,-16.708 1.66,-6.368 3.093,-7.382 3.653,-7.783 0.35,-0.266 0.553,-0.17 0.678,-0.07 0.261,0.196 0.365,0.603 0.286,0.809 m -1.304,22 c 2.352,1.076 2.511,2.453 2.422,3.395 -0.08,0.896 -1.356,0.983 -1.81,0.988 -0.203,-0.522 -0.538,-0.988 -0.979,-1.31 -0.452,-0.334 -1.66,-0.962 -3.2,0.317 -0.458,0.38 -0.86,0.85 -1.316,1.387 -0.434,0.511 -0.925,1.083 -1.607,1.769 -0.223,0.218 -0.223,0.571 0,0.789 0.215,0.22 0.568,0.22 0.786,0 0.721,-0.721 1.248,-1.338 1.67,-1.833 0.447,-0.521 0.795,-0.931 1.179,-1.254 0.473,-0.392 1.174,-0.754 1.829,-0.276 0.606,0.446 0.92,1.449 0.652,2.102 -0.398,0.981 -2.113,1.521 -3.36,1.914 -0.423,0.133 -0.819,0.264 -1.134,0.394 -4.126,1.714 -5.452,4.537 -5.508,4.657 -0.01,0.022 -0.021,0.049 -0.024,0.073 -1.072,0.514 -2.161,1.155 -3.212,1.934 1.829,-2.862 4.195,-6.565 5.939,-9.345 2.046,-3.265 5.045,-6.906 7.673,-5.701 m -6.288,12.918 c 3.207,-0.234 4.763,0.774 6.358,2.61 0.553,0.631 0.72,1.371 0.428,1.877 -0.233,0.415 -0.721,0.594 -1.303,0.482 -1.224,-0.224 -1.739,-0.357 -1.938,-0.416 -0.993,-1.135 -3.226,-2.924 -7.76,-0.795 -0.277,0.135 -0.402,0.466 -0.267,0.744 0.129,0.278 0.461,0.399 0.738,0.269 3.889,-1.83 5.651,-0.517 6.735,0.874 0.135,0.448 -0.055,0.642 -0.119,0.707 -0.343,0.351 -1.232,0.521 -2.261,0.179 -4.862,-1.76 -9.396,0.99 -11.319,2.908 -0.144,0.113 -0.706,0.631 -1.173,1.535 -1.009,0.079 -2.038,0.407 -3.037,0.856 1.69,-1.745 3.266,-3.537 3.952,-4.327 0.083,-0.044 0.158,-0.104 0.213,-0.187 0.146,-0.225 0.299,-0.434 0.448,-0.647 0.068,-0.045 0.13,-0.094 0.175,-0.165 0.004,-0.01 0.083,-0.138 0.228,-0.356 2.805,-3.545 6.866,-5.627 9.902,-6.148 m -9.598,12.545 c 0.165,0.142 1.08,0.959 1.011,2.249 -0.085,1.469 -1.441,3.076 -3.926,4.646 -0.791,-0.506 -2.248,-0.781 -4.505,-0.857 -0.305,-0.016 -0.566,0.226 -0.576,0.539 -0.016,0.307 0.229,0.568 0.536,0.574 3.867,0.14 4.131,0.855 4.14,0.89 0.036,0.12 -0.163,0.499 -0.839,1.004 -3.261,1.454 -5.323,1.067 -7.313,0.688 -0.908,-0.166 -1.854,-0.35 -2.883,-0.35 -3.285,0 -9.643,2.588 -9.931,2.709 -6.83,3.1 -11.994,4.131 -14.912,4.473 0.224,-0.113 0.442,-0.227 0.666,-0.338 0.005,0 0.011,0 0.015,0 0.105,0 0.208,-0.021 0.305,-0.08 0.144,-0.095 0.298,-0.205 0.457,-0.313 0.974,-0.505 1.925,-1.005 2.854,-1.509 7.426,-2.508 19.295,-7.531 24.867,-10.909 0.372,-0.226 0.805,-0.513 1.268,-0.816 2.453,-1.636 6.161,-4.094 8.766,-2.6 m -22.595,16.915 c 0.655,1.23 0.442,2.076 0.252,2.473 -0.103,0.223 -0.257,0.412 -0.426,0.549 -0.079,-0.01 -0.165,0.006 -0.238,0.038 -0.006,0 -0.079,0.027 -0.215,0.082 -0.434,-0.174 -0.813,-0.389 -1.237,-0.642 -1.536,-0.887 -3.559,-2.063 -10.354,-2.485 1.62,-0.373 3.494,-0.899 5.598,-1.646 0.06,0.027 0.129,0.039 0.198,0.039 h 0.005 c 2.142,-0.027 5.77,0.384 6.417,1.592 m -4.42,4.44 c -2.116,0.644 -4.27,1.064 -5.686,-0.168 -1.045,-0.904 -3.231,-2.322 -4.717,-3.254 8.604,0.249 10.786,1.52 12.392,2.453 0.119,0.068 0.238,0.131 0.353,0.196 -0.652,0.234 -1.457,0.506 -2.342,0.773 m -12.173,0.39 h -2.932 v -3.784 c 0.129,-0.043 0.263,-0.077 0.393,-0.114 0.056,0 0.118,0 0.193,0 0.378,0 0.989,-0.018 1.829,-0.095 0.045,0.09 0.114,0.162 0.203,0.215 0.006,0.007 0.119,0.071 0.313,0.192 z m -2.992,-4.967 c -0.004,0.004 -0.01,0.004 -0.02,0.01 -0.904,0.195 -1.834,0.355 -2.718,0.486 0.392,-0.301 0.733,-0.641 1.026,-1.015 1.84,-2.368 1.377,-5.735 1.074,-7.968 -0.08,-0.6 -0.148,-1.108 -0.169,-1.518 0,-0.009 -0.006,-0.026 -0.006,-0.041 -0.198,-1.646 0.14,-2.188 0.214,-2.281 -0.014,0.01 -0.03,0.015 -0.03,0.015 l -0.068,-0.097 c 1.574,0.037 3.833,0.048 5.389,-0.022 -0.068,0.363 -0.095,0.841 -0.119,1.496 -0.264,3.153 -1.774,6.117 -4.052,7.927 -0.243,0.19 -0.277,0.539 -0.09,0.784 0.109,0.138 0.273,0.208 0.438,0.208 0.125,0 0.245,-0.038 0.35,-0.119 2.51,-1.99 4.18,-5.25 4.47,-8.728 0.022,-0.714 0.059,-1.316 0.147,-1.526 0.024,-0.055 0.069,-0.08 0.442,-0.208 l 0.01,-0.004 c 1.824,-0.549 3.236,-0.521 4.204,0.103 0.797,0.506 1.074,1.287 1.169,1.643 -2.46,3.768 -5.57,7.322 -7.828,8.956 -1.237,0.637 -2.515,1.267 -3.833,1.899 m -1.058,6.877 h -22.582 v -4.811 c 0.342,0.016 0.697,0.021 1.054,0.033 0.839,0.054 1.909,0.126 3.137,0.186 0.348,0.028 0.682,0.045 1.005,0.045 1.569,0.07 3.34,0.115 5.193,0.115 4.11,0 8.613,-0.232 12.193,-0.998 z m -3.232,4.381 h -15.412 l -1.084,-3.264 h 17.699 z m -31.503,-19.724 c 0.03,-0.377 0.362,-0.744 0.816,-0.898 0.099,-0.036 0.252,-0.069 0.436,-0.069 0.294,0 0.656,0.093 0.985,0.459 0.272,0.31 0.481,0.669 0.74,1.126 0.74,1.311 1.869,3.297 6.147,6.385 0.016,0.012 0.034,0.021 0.056,0.033 1.288,0.719 2.371,1.359 3.23,1.893 0.029,0.025 0.061,0.043 0.088,0.07 -11.604,-3.264 -12.623,-7.346 -12.498,-8.999 m 11.035,14.416 h -3.538 v -4.34 c 1.112,0.167 2.294,0.309 3.538,0.391 z m -15.4,-9.617 c -0.01,-0.004 -0.02,-0.004 -0.028,-0.014 -0.011,-0.006 -0.021,-0.008 -0.025,-0.014 -0.382,-0.2 -0.755,-0.408 -1.133,-0.618 -1.107,-0.608 -2.162,-1.19 -3.221,-1.513 -2.109,-0.649 -3.496,-0.944 -5.105,-1.297 -1.063,-0.229 -2.172,-0.467 -3.629,-0.832 -1.733,-0.439 -2.648,-0.531 -4.165,0.441 -0.552,0.358 -0.846,0.582 -1.059,0.747 -0.288,0.216 -0.403,0.313 -0.899,0.511 -1.134,0.461 -2.625,0.328 -3.624,-0.322 -0.745,-0.489 -1.038,-1.307 -1.093,-1.668 0.178,-0.115 0.726,-0.313 1.854,-0.373 0.551,-0.004 1.038,-0.004 1.399,-0.006 0.011,0 0.021,0 0.031,0 0.022,0 0.055,-0.006 0.079,-0.01 0.015,-0.007 0.03,-0.012 0.044,-0.019 0.016,0 0.041,-0.011 0.06,-0.015 0.017,-0.008 0.025,-0.019 0.041,-0.022 0.021,-0.015 0.039,-0.022 0.056,-0.028 0.015,-0.012 0.023,-0.021 0.039,-0.031 0.015,-0.013 0.023,-0.026 0.04,-0.035 0.011,-0.016 0.024,-0.026 0.033,-0.041 0.012,-0.014 0.025,-0.022 0.036,-0.041 0.009,-0.014 0.015,-0.025 0.024,-0.043 0.01,-0.021 0.02,-0.033 0.023,-0.049 0.012,-0.019 0.015,-0.031 0.021,-0.049 0.005,-0.023 0.011,-0.037 0.016,-0.056 l 0.01,-0.05 c 0,-0.018 0.006,-0.037 0.006,-0.055 V 217.9 c 0,-0.021 -0.006,-0.032 -0.006,-0.042 0,-0.021 -0.005,-0.04 -0.005,-0.063 -0.005,-0.021 -0.01,-0.032 -0.016,-0.055 -0.005,-0.015 -0.011,-0.027 -0.014,-0.05 -0.012,-0.021 -0.021,-0.026 -0.03,-0.049 -0.005,-0.017 -0.011,-0.028 -0.024,-0.044 -0.005,-0.018 -0.021,-0.032 -0.029,-0.045 -0.017,-0.014 -0.021,-0.026 -0.034,-0.043 -0.011,-0.012 -0.026,-0.021 -0.04,-0.039 -0.017,-0.01 -0.025,-0.018 -0.041,-0.027 -0.015,-0.01 -0.034,-0.021 -0.049,-0.027 -0.016,-0.01 -0.03,-0.017 -0.045,-0.026 -0.017,-0.007 -0.035,-0.011 -0.056,-0.019 l -0.05,-0.02 c -0.021,-0.003 -0.04,-0.003 -0.055,-0.003 -0.017,-0.004 -0.028,-0.004 -0.045,-0.011 -0.395,-0.01 -0.875,-0.014 -1.381,0.011 -1.938,0.008 -5.245,0.034 -5.771,0.089 -0.412,0.039 -0.905,0.039 -1.322,0.033 0.136,-0.178 0.313,-0.399 0.577,-0.682 0.357,-0.393 0.605,-0.783 0.851,-1.16 0.542,-0.857 0.97,-1.525 2.514,-1.94 6.542,-1.744 14.929,2.751 16.782,3.81 0.021,0.022 0.039,0.045 0.06,0.063 0.09,0.103 0.209,0.155 0.334,0.165 0.259,0.152 0.595,0.076 0.755,-0.184 0.158,-0.262 0.079,-0.607 -0.179,-0.771 -0.036,-0.018 -0.13,-0.077 -0.27,-0.159 -2.698,-2.882 -3.978,-4.988 -4.831,-6.39 -0.637,-1.05 -1.055,-1.741 -1.685,-2.079 -0.011,-0.006 -0.026,-0.017 -0.042,-0.019 -1.938,-0.85 -2.211,-1.792 -2.24,-2.159 -0.024,-0.353 0.129,-0.587 0.273,-0.681 0.64,-0.412 1.083,-0.67 1.361,-0.824 0.158,0.681 0.562,1.537 1.45,2.514 0.104,0.12 0.261,0.18 0.414,0.18 0.133,0 0.269,-0.043 0.372,-0.146 0.229,-0.204 0.243,-0.556 0.039,-0.785 -1.694,-1.867 -1.183,-2.947 -1.152,-3.017 0.039,-0.066 0.063,-0.139 0.073,-0.209 0.434,-0.6 0.932,-0.894 1.447,-0.823 0.602,0.072 1.079,0.604 1.147,1.053 1.089,7.285 5.318,12.698 8.626,15.922 0.121,0.159 0.213,0.259 0.231,0.28 0.064,0.072 0.14,0.121 0.219,0.154 2.082,1.959 3.702,3 3.747,3.021 0.091,0.061 0.194,0.094 0.294,0.094 0.184,0 0.368,-0.099 0.479,-0.265 0.159,-0.263 0.083,-0.61 -0.181,-0.772 -0.039,-0.021 -1.764,-1.131 -3.927,-3.225 -0.88,-1.121 -4.148,-5.711 -2.282,-9.996 0.279,-0.636 0.991,-0.964 1.566,-1.057 0.601,-0.093 1.158,0.032 1.417,0.313 0.467,0.53 0.999,1.124 0,2.627 -0.01,0.011 -0.015,0.021 -0.021,0.028 -0.09,0.154 -2.133,3.772 1.178,8.071 0.189,0.246 0.543,0.291 0.786,0.101 0.244,-0.188 0.288,-0.537 0.104,-0.78 -2.319,-3.016 -1.629,-5.587 -1.262,-6.487 0.085,-0.05 0.159,-0.117 0.208,-0.209 0.006,-0.004 0.259,-0.427 0.722,-0.544 0.342,-0.093 0.751,0.003 1.198,0.281 0.91,0.558 0.656,1.791 0.268,3.218 -0.133,0.483 -0.253,0.906 -0.253,1.24 v 0.086 c 0,0.683 0,1.443 1.024,3.014 0.059,0.094 0.144,0.158 0.238,0.203 -0.159,2.188 1.134,6.06 10.486,9.263 -8.602,-0.974 -13.679,-4.35 -13.733,-4.391 m 3.729,6.271 c -0.916,0.545 -1.466,1.098 -1.909,1.536 -0.604,0.599 -0.909,0.899 -1.715,0.899 -1.411,0 -2.228,-1.162 -2.262,-1.217 -0.021,-0.033 -0.035,-0.055 -0.065,-0.078 0.483,-0.641 0.831,-1.431 1.149,-2.154 0.094,-0.227 0.192,-0.439 0.288,-0.645 0.423,-0.9 2.803,-1.683 3.827,-1.568 0.13,0.019 0.254,-0.015 0.356,-0.076 1.129,0.457 2.48,0.935 4.042,1.361 -1.505,0.637 -3.25,1.669 -3.711,1.942 m -7.531,1.113 c -0.333,0.188 -0.655,0.175 -0.871,0.115 0.498,-0.674 0.52,-2.109 0.449,-4.771 0.233,-1.85 2.646,-2.035 3.131,-2.051 0.159,0.092 0.328,0.181 0.493,0.269 0.145,0.095 0.851,0.56 2.072,1.162 -1.313,0.31 -2.788,1.017 -3.271,2.036 -0.095,0.206 -0.197,0.434 -0.298,0.663 -0.442,1.005 -0.944,2.144 -1.705,2.577 m -25.36,-16.537 c -0.243,-0.521 -0.377,-1.025 0.419,-1.898 1.241,-1.359 4.373,-4.129 7.768,-1.951 0.397,0.297 0.647,0.478 0.657,0.482 0.019,0.018 0.039,0.027 0.059,0.04 0.255,0.242 0.475,0.442 0.666,0.602 0.105,0.087 0.23,0.127 0.354,0.127 0.165,0 0.324,-0.072 0.434,-0.204 0.198,-0.246 0.159,-0.592 -0.079,-0.79 -1.983,-1.623 -8.104,-8.998 -8.161,-9.071 -0.08,-0.097 -1.063,-1.272 -2.183,-2.593 0,-0.123 -0.045,-0.247 -0.125,-0.342 -0.199,-0.339 -1.224,-2.609 -2.41,-5.226 -1.626,-3.582 -3.838,-8.487 -6.244,-13.582 -0.353,-0.745 -0.755,-1.606 -1.188,-2.516 -1.687,-3.565 -3.783,-7.999 -4.742,-10.181 l -0.016,-0.028 c -1.958,-4.458 -1.695,-5.291 -1.49,-5.444 0.079,-0.056 0.209,-0.063 0.388,-0.014 0.864,0.238 2.353,1.729 3.086,3.463 l 2.028,5.45 c 0.095,0.263 0.384,0.412 0.655,0.346 0.278,-0.075 0.458,-0.338 0.42,-0.619 -0.816,-5.951 -0.26,-11.98 -0.156,-12.981 0.553,-0.715 1.955,-2.217 3.137,-2.234 0.294,0.029 1.09,0.203 1.372,0.642 0.05,0.073 0.205,0.309 0.036,0.808 -0.104,0.309 -0.215,0.623 -0.323,0.933 -0.57,1.629 -1.219,3.478 -1.383,6.291 -0.536,9.444 0.647,17.194 8.624,33.331 0.1,0.202 0.294,0.313 0.503,0.313 0.078,0 0.164,-0.019 0.248,-0.057 0.273,-0.141 0.388,-0.475 0.253,-0.75 -7.867,-15.912 -9.041,-23.524 -8.515,-32.777 0.154,-2.655 0.746,-4.346 1.322,-5.979 0.101,-0.273 0.188,-0.548 0.283,-0.822 0.357,-0.336 1.84,-1.618 3.52,-1.337 0.845,0.142 2.604,0.434 2.798,1.051 0.06,0.188 0.055,0.748 -1.231,2.001 -3.933,3.813 -5.73,8.877 -4.815,13.545 0.055,0.264 0.288,0.454 0.552,0.454 0.033,0 0.069,-0.011 0.108,-0.017 0.298,-0.055 0.498,-0.351 0.438,-0.656 -0.839,-4.289 0.836,-8.97 4.494,-12.524 0.229,-0.22 0.434,-0.434 0.612,-0.635 0.022,0 0.053,0 0.078,-0.007 0.055,-0.01 0.356,-0.031 0.503,0.109 0.124,0.123 0.162,0.401 0.104,0.79 -0.119,0.79 -1.178,2.188 -2.202,3.534 -1.104,1.459 -2.241,2.968 -2.753,4.314 -0.104,0.292 0.039,0.61 0.327,0.722 0.07,0.025 0.129,0.037 0.199,0.037 0.229,0 0.438,-0.143 0.521,-0.367 0.137,-0.348 0.324,-0.719 0.554,-1.112 0.016,-0.008 0.035,-0.02 0.055,-0.03 0.284,-0.218 0.954,-0.558 1.263,-0.411 0.204,0.099 0.34,0.511 0.354,1.094 -0.05,0.36 -1.224,1.445 -2.499,2.319 -0.255,0.175 -0.323,0.522 -0.146,0.777 0.104,0.159 0.279,0.242 0.459,0.242 0.109,0 0.219,-0.028 0.318,-0.094 0.924,-0.636 2.364,-1.729 2.832,-2.665 0.159,0.034 0.349,0.104 0.472,0.247 0.142,0.158 0.189,0.405 0.154,0.728 -0.1,0.855 -0.173,0.899 -0.73,1.272 -0.286,0.188 -0.681,0.446 -1.179,0.881 -1.113,0.979 -2.128,2.157 -2.519,4.041 -0.051,0.158 -0.081,0.328 -0.09,0.498 -0.131,0.927 -0.115,2.021 0.099,3.328 0.045,0.275 0.278,0.467 0.546,0.467 0.031,0 0.065,0 0.091,-0.005 0.309,-0.049 0.513,-0.339 0.462,-0.641 -0.188,-1.174 -0.203,-2.135 -0.1,-2.941 0.006,-0.042 0.017,-0.081 0.017,-0.121 0,-0.03 0.003,-0.059 0.009,-0.087 0.011,-0.055 0.021,-0.104 0.03,-0.155 0.243,-0.893 1.681,-1.84 3.29,-2.121 0.467,-0.081 2.02,-0.274 2.393,0.688 0.009,0.043 0.028,0.075 0.055,0.107 -1.706,1.708 -3.104,3.423 -3.122,3.444 -0.979,1.241 -1.467,2.025 -0.899,5.013 0.149,0.78 0.214,1.18 0.269,1.563 0.075,0.468 0.14,0.902 0.354,1.946 0.039,0.21 0.09,0.452 0.14,0.715 0.344,1.702 0.854,4.278 1.467,6.308 0.213,0.717 0.447,1.487 0.736,2.272 -0.021,0.086 -0.021,0.18 0.005,0.268 0.009,0.049 1.252,4.733 3.533,9.263 1.396,2.771 5.638,6.622 8.245,8.832 -3.537,-1.345 -8.146,-2.451 -12.223,-1.361 -1.556,0.419 -2.281,1.133 -2.798,1.859 -0.256,0.022 -0.747,-0.002 -0.847,-0.211 m 2.017,-8.988 -0.022,-0.014 c -1.786,-0.673 -4.489,-1.697 -7.478,-0.35 -0.039,0.021 -0.015,-0.005 -0.044,0.026 -0.011,0.006 -0.766,0.343 -2.028,-1.163 0.626,-0.717 0.989,-1.462 1.015,-1.513 0.128,-0.273 0.016,-0.609 -0.265,-0.74 -0.277,-0.133 -0.611,-0.017 -0.744,0.259 -0.011,0.015 -0.706,1.451 -1.717,1.984 -0.959,0.506 -2.861,0.372 -3.99,-0.564 -0.469,-0.391 -0.7,-0.977 -0.621,-1.563 0.094,-0.707 0.621,-1.316 1.48,-1.731 1.799,-0.321 3.295,-0.38 3.782,-0.392 1.626,0.241 5.854,1.344 11.602,6.203 -0.353,-0.184 -0.681,-0.338 -0.97,-0.442 m -12.347,-8.662 c -0.023,-0.384 0.006,-0.889 0.289,-1.146 0.298,-0.274 0.779,-0.202 0.773,-0.202 0.249,0.044 0.493,-0.08 0.604,-0.303 0.108,-0.221 0.06,-0.488 -0.12,-0.658 -0.039,-0.035 -0.412,-0.368 -1.819,-1.212 -0.055,-0.034 -0.099,-0.06 -0.134,-0.089 0.284,-0.146 0.975,-0.313 1.8,-0.204 1.296,0.172 3.137,1.47 5.185,3.666 1.293,1.398 4.967,5.803 5.006,5.842 0.074,0.091 0.636,0.771 1.441,1.727 -5.181,-4.128 -9.07,-5.275 -10.9,-5.588 -0.836,-0.396 -2.089,-1.251 -2.125,-1.833 m -5.76,-40.801 c -2.063,-2.868 -2.579,-3.73 -2.161,-4.103 0.889,-0.227 5.874,2.396 7.279,5.505 -0.084,0.801 -0.436,4.603 -0.219,9.071 l -0.581,-1.561 c -0.129,-0.303 -0.276,-0.608 -0.447,-0.9 0,-0.06 -0.005,-0.125 -0.029,-0.188 -0.064,-0.189 -1.654,-4.643 -3.842,-7.824 m 135.643,0.291 c -0.015,0.033 -0.029,0.066 -0.039,0.104 -0.021,0.072 -0.031,0.143 -0.041,0.214 -0.068,-0.062 -0.139,-0.126 -0.208,-0.191 0.204,-3.001 2.033,-34.456 -5.82,-52.671 -10.479,-24.319 -28.76,-37.417 -54.328,-38.936 -1.331,-0.08 -2.676,-0.121 -3.978,-0.121 -29.645,0 -45.237,20.38 -51.889,32.535 -10.234,18.84 -9.002,51.255 -8.659,57.279 -0.571,-0.269 -1.144,-0.326 -1.242,-0.336 -0.015,0 -0.03,0 -0.05,0 -0.711,0 -1.401,0.303 -2.013,0.715 -0.175,-2.163 -2.744,-38.197 8.768,-59.391 7.039,-12.863 23.551,-34.436 55.025,-34.436 1.396,0 2.828,0.046 4.249,0.124 27.056,1.611 46.386,15.449 57.455,41.128 8.156,18.934 6.145,49.265 5.85,53.116 -0.485,-0.164 -0.986,-0.237 -1.439,-0.199 -0.75,0.073 -1.332,0.445 -1.641,1.066 m -10.696,40.253 c 5.208,-8.766 5.272,-15.029 5.264,-15.73 0.407,-2.579 -0.277,-5.628 -1.609,-7.12 -1.049,-1.167 -4.34,-2.808 -5.507,-3.363 0.192,-0.516 0.685,-0.833 1.466,-0.948 2.252,-0.318 3.961,0.243 4,0.258 0.006,0 0.021,0 0.025,0.005 1.063,0.331 2.644,1.179 3.23,3.604 0.029,0.317 0.073,0.642 0.119,0.978 0.229,1.638 0.562,4.086 -0.353,11.244 -1.75,4.092 -3.535,7.525 -6.989,11.656 0.12,-0.199 0.239,-0.393 0.354,-0.584 m -3.555,-2.375 c 0.716,-3.006 0.498,-5.279 -0.656,-6.754 -0.85,-1.095 -1.979,-1.447 -2.607,-1.562 0.072,-0.192 0.184,-0.342 0.352,-0.446 0.597,-0.372 1.69,-0.145 2.059,-0.031 0.04,0.016 0.078,0.021 0.114,0.026 1.848,1.157 3.271,3.041 2.033,7.221 -0.07,0.256 0.039,0.526 0.273,0.652 0.084,0.043 0.173,0.069 0.264,0.069 0.163,0 0.321,-0.069 0.432,-0.203 2.088,-2.521 4.43,-6.448 4.036,-14.583 -0.198,-2.238 0.273,-2.643 0.373,-2.695 0.161,-0.096 0.418,0.008 0.563,0.084 0.497,1.297 0.756,3.043 0.473,4.733 -0.006,0.033 -0.01,0.071 -0.01,0.109 0.004,0.063 0.129,6.417 -5.155,15.271 -1.297,2.177 -3.002,4.617 -5.234,7.24 -0.074,0.076 -0.153,0.148 -0.231,0.229 -0.065,0.059 -0.11,0.133 -0.141,0.209 -0.896,1.031 -1.867,2.09 -2.934,3.17 3.144,-4.71 5.441,-9.893 5.996,-12.739 m -14.152,18.083 c 0.101,-0.061 0.186,-0.154 0.235,-0.269 0.023,-0.072 0.049,-0.153 0.074,-0.226 5.015,-8.193 4.279,-12.374 3.977,-13.378 1.148,-0.87 1.083,-2.242 1.014,-3.685 v -0.055 c -0.033,-0.666 0.09,-1.475 0.226,-2.128 0.089,-0.045 0.163,-0.105 0.218,-0.192 0.576,-0.885 2.545,-3.28 4.001,-2.759 0.617,0.224 0.989,0.542 1.169,0.998 0.313,0.802 0.113,2.074 -0.621,3.929 -0.046,0.092 -0.091,0.195 -0.135,0.298 -0.01,0.024 -0.016,0.051 -0.021,0.074 -0.328,0.795 -0.745,1.682 -1.259,2.676 -2.938,5.687 -3.881,7.351 -3.892,7.371 -0.154,0.269 -0.055,0.604 0.21,0.753 0.089,0.054 0.184,0.076 0.277,0.076 0.193,0 0.384,-0.101 0.485,-0.285 0.035,-0.062 0.961,-1.689 3.908,-7.408 0.591,-1.144 1.059,-2.143 1.422,-3.04 0.353,-0.742 0.834,-1.054 1.067,-0.974 0.22,0.071 0.463,0.599 0.204,1.715 -1.472,4.436 -5.423,11.787 -9.955,16.261 -1.591,1.332 -3.321,2.678 -5.206,4.036 1.002,-1.347 1.863,-2.603 2.602,-3.788 m -3.926,-0.147 c 0.021,-0.457 0.04,-0.89 0.074,-1.247 0.144,-1.519 1.153,-2.879 1.591,-3.411 0.065,0.068 0.124,0.133 0.194,0.199 0.919,0.871 1.719,2.252 1.356,3.634 -1.035,1.676 -2.313,3.529 -3.901,5.566 0.543,-1.643 0.627,-3.394 0.686,-4.741 m -45.401,-2.458 c -0.06,-0.01 -0.125,-0.017 -0.184,-0.027 -1.069,-0.148 -2.157,-1.263 -2.426,-2.472 -0.164,-0.715 -0.094,-1.745 1.138,-2.559 0.815,-0.542 1.518,-0.723 2.083,-0.723 0.443,0 0.806,0.109 1.089,0.25 0.786,0.381 1.353,1.207 1.412,2.048 0.078,1.093 -1.809,2.67 -3.112,3.483 m 25.434,4.042 c -1.382,-0.088 -2.246,-0.894 -3.166,-1.744 -0.101,-0.089 -0.199,-0.186 -0.3,-0.281 -0.173,-0.153 -0.322,-0.307 -0.472,-0.455 -0.845,-0.854 -1.635,-1.656 -4.523,-1.595 -2.365,0.055 -5.063,1.563 -6.843,2.565 -0.684,0.38 -1.27,0.708 -1.586,0.813 -0.096,0.032 -0.211,0.076 -0.344,0.121 -1.685,0.583 -6.16,2.133 -9.758,1.093 -1.854,-0.695 -4.976,-2.395 -5.239,-6.056 -0.313,-4.284 2.094,-7.515 5.976,-8.041 0.915,-0.121 1.739,-0.159 2.49,-0.11 0.015,0.006 0.034,0.011 0.055,0.011 0.011,0 0.021,0 0.029,0 2.396,0.181 3.962,1.282 4.945,3.416 1.65,3.577 -1.321,5.408 -1.351,5.421 -0.076,0.047 -0.16,0.097 -0.253,0.159 -0.256,0.158 -0.584,0.365 -1.016,0.541 -0.317,0.109 -0.603,0.194 -0.86,0.259 -0.452,0.098 -0.988,0.138 -1.616,0.092 1.164,-0.887 2.729,-2.353 2.621,-3.817 -0.089,-1.238 -0.884,-2.406 -2.033,-2.968 -0.741,-0.364 -2.282,-0.776 -4.279,0.539 -1.356,0.9 -1.947,2.265 -1.616,3.74 0.373,1.656 1.846,3.116 3.359,3.336 0.324,0.043 0.608,0.098 0.88,0.146 1.025,0.193 1.805,0.304 2.992,0.013 0.354,-0.082 0.671,-0.181 0.946,-0.29 0.77,-0.276 1.708,-0.691 2.917,-1.295 4.2,-2.113 9.847,-3.884 13.072,-2.528 2.351,1.015 3.668,1.957 4.532,2.569 0.313,0.228 0.577,0.419 0.83,0.563 0.136,0.087 0.26,0.164 0.377,0.246 0.418,0.278 0.855,0.564 1.434,0.531 1.426,-0.086 2.018,-0.354 3.172,-1.167 2.048,-1.443 2.98,-1.284 4.389,-0.45 -2.303,2.041 -3.555,2.534 -3.569,2.534 -0.232,0.093 -0.388,0.333 -0.357,0.582 0.025,0.257 0.219,0.461 0.473,0.498 0.87,0.131 2.008,0.313 2.788,0.443 -0.323,0.209 -0.734,0.388 -1.059,0.478 -0.845,0.232 -6.227,0.21 -8.037,0.088 m -8.963,9.474 c 0.487,-5.595 7.401,-7.181 9.066,-7.483 -0.045,0.43 -0.045,0.979 0.035,1.663 0.024,0.454 0.1,0.986 0.185,1.591 0.293,2.168 0.699,5.135 -0.852,7.131 -0.924,1.185 -2.495,1.918 -4.657,2.185 -1.36,0.054 -2.321,-0.212 -2.923,-0.83 -0.758,-0.781 -1.037,-2.17 -0.854,-4.257 m -1.326,3.864 c 0.005,-0.016 0.011,-0.031 0.016,-0.043 0.123,-0.264 0.237,-0.521 0.337,-0.779 0.2,0.829 0.537,1.494 1.034,1.994 0.124,0.131 0.265,0.244 0.407,0.354 -1.179,0.028 -2.346,0.038 -3.473,0.028 0.85,-0.487 1.396,-1.069 1.679,-1.554 m 0.79,-15.997 c -0.023,0.044 -0.045,0.091 -0.054,0.142 -0.395,0.966 -1.959,3.253 -7.885,3.191 0.215,-0.07 0.407,-0.135 0.572,-0.197 0.124,-0.043 0.237,-0.081 0.327,-0.109 0.417,-0.138 1.015,-0.478 1.774,-0.903 1.422,-0.801 3.459,-1.933 5.313,-2.301 -0.008,0.045 -0.02,0.105 -0.047,0.177 m -1.108,7.12 c -1.01,-1.392 -2.361,-2.332 -3.424,-2.914 0.851,-0.152 1.619,-0.371 2.301,-0.662 0.57,0.326 1.734,1.173 1.825,2.121 0.043,0.472 -0.195,0.961 -0.702,1.455 m 1.631,-0.391 c 0.119,0.368 0.317,0.74 0.592,1.104 -0.407,0.51 -0.766,1.064 -1.043,1.691 -0.091,-0.314 -0.195,-0.623 -0.324,-0.918 -0.079,-0.183 -0.163,-0.354 -0.252,-0.521 0.49,-0.433 0.827,-0.888 1.027,-1.356 m 1.953,-4.015 c -0.627,0.418 -1.547,1.168 -1.922,2.203 -0.33,-0.869 -1.076,-1.545 -1.651,-1.961 0.22,-0.145 0.429,-0.289 0.621,-0.449 0.468,-0.384 0.8,-0.78 1.044,-1.148 0.382,0.422 0.978,0.918 1.908,1.355 m 5.741,1.081 c -1.688,0.422 -4.358,1.339 -6.327,3.198 -0.334,-0.489 -0.458,-0.965 -0.369,-1.432 0.255,-1.307 2.05,-2.201 2.079,-2.213 0.069,-0.037 0.128,-0.082 0.179,-0.143 1.127,0.339 2.579,0.574 4.438,0.59 m -7.033,-4.092 c 2.297,-0.032 2.844,0.51 3.583,1.261 0.164,0.167 0.328,0.33 0.518,0.504 0.096,0.085 0.193,0.172 0.289,0.269 0.313,0.281 0.636,0.584 0.987,0.857 -3.891,-0.372 -5.144,-1.871 -5.457,-2.371 0.064,-0.229 0.08,-0.378 0.08,-0.395 0.01,-0.047 0.004,-0.087 0,-0.125 m -14.684,13.925 c 0.552,0 1.084,-0.141 1.576,-0.432 0.298,-0.172 0.57,-0.396 0.814,-0.654 0.616,0.73 2.596,2.859 4.986,2.892 0.019,0 0.033,0 0.055,0 1.392,0 2.653,-0.7 3.745,-2.084 0.194,-0.233 0.155,-0.589 -0.089,-0.78 -0.237,-0.189 -0.59,-0.158 -0.785,0.088 -0.884,1.117 -1.872,1.681 -2.907,1.658 -2.28,-0.033 -4.283,-2.664 -4.306,-2.687 -0.014,-0.022 -0.022,-0.03 -0.039,-0.048 0.328,-0.635 0.538,-1.379 0.603,-2.202 0.219,-2.892 -0.478,-4.409 -1.153,-5.185 0.07,-0.016 0.14,-0.027 0.21,-0.043 0.084,0.082 0.198,0.143 0.332,0.16 0.99,0.092 1.929,0.143 2.803,0.143 0.318,0 0.633,-0.006 0.94,-0.019 0.035,0.019 0.074,0.044 0.119,0.056 0.041,0.012 3.932,1.33 5.317,4.562 0.801,1.854 0.632,4.008 -0.497,6.403 -0.452,0.777 -1.982,1.957 -4.88,1.994 -0.448,-0.015 -0.881,-0.03 -1.293,-0.055 -0.304,-0.027 -0.612,-0.064 -0.938,-0.119 -0.278,-0.193 -1.068,-0.736 -2.326,-1.514 -0.865,-0.627 -1.637,-1.361 -2.313,-2.141 0.007,0.003 0.017,0.007 0.026,0.007 m -3.748,-7.144 c -0.021,-0.6 0.134,-1.652 0.2,-2.048 0.372,0.066 0.746,0.12 1.118,0.153 0.039,0.05 0.083,0.086 0.134,0.127 0.01,0.004 1.067,0.73 2.211,3.904 0.085,0.226 0.3,0.373 0.527,0.373 0.063,0 0.129,-0.017 0.188,-0.039 0.287,-0.104 0.441,-0.426 0.332,-0.713 -0.66,-1.844 -1.318,-2.955 -1.813,-3.607 0.642,-0.023 1.271,-0.088 1.884,-0.171 0.029,0.017 0.059,0.026 0.085,0.034 0.02,0 1.744,0.636 1.421,4.804 -0.104,1.337 -0.677,2.437 -1.53,2.933 -0.618,0.363 -1.338,0.368 -2.078,0.023 -0.01,-0.01 -0.029,-0.018 -0.045,-0.021 -1.743,-2.485 -2.608,-5.025 -2.634,-5.752 m -7.684,-4.218 c -0.006,-0.055 -0.021,-0.105 -0.035,-0.149 0.064,-0.381 0.096,-0.78 0.069,-1.169 0.254,0.151 0.532,0.308 0.82,0.461 0.943,0.499 1.749,0.917 2.437,1.262 0.308,0.679 0.84,1.931 0.965,2.429 0.063,0.253 0.293,0.422 0.541,0.422 0.045,0 0.09,-0.004 0.139,-0.021 0.3,-0.07 0.482,-0.375 0.403,-0.676 -0.08,-0.336 -0.293,-0.888 -0.513,-1.414 0.989,0.449 1.592,0.674 1.964,0.772 -0.062,0.368 -0.243,1.591 -0.226,2.331 0.036,0.965 1.069,3.986 3.162,6.796 -3.455,-2.614 -4.389,-4.256 -5.079,-5.474 -0.279,-0.488 -0.521,-0.917 -0.875,-1.317 -0.243,-0.272 -0.527,-0.478 -0.83,-0.612 -0.05,-0.056 -0.12,-0.096 -0.194,-0.123 -0.025,-0.009 -2.545,-0.931 -2.748,-3.518 m -0.557,2.138 c 0,-0.022 0.006,-0.061 0.011,-0.092 0.376,0.709 0.896,1.244 1.387,1.637 -0.304,0.154 -0.563,0.358 -0.766,0.604 -0.632,-1.046 -0.632,-1.541 -0.632,-2.063 z m -8.519,-10.701 c 0.622,-0.8 1.236,-2.243 0.547,-3.638 h 0.104 c 0.486,0.954 1.316,1.903 2.76,2.534 0.01,0.007 0.029,0.016 0.044,0.019 1.112,0.41 1.849,0.672 1.749,2.192 -0.011,0.182 -0.033,0.362 -0.063,0.56 -0.023,0.181 -0.045,0.36 -0.054,0.534 -0.537,-0.426 -1.339,-0.602 -2.208,-0.462 -0.387,0.064 -0.751,0.186 -1.074,0.35 -0.069,-0.365 -0.214,-0.718 -0.437,-1.04 -0.344,-0.494 -0.832,-0.852 -1.368,-1.049 M 172.601,202 c 0.1,-0.477 0.93,-1.353 2.038,-1.678 0.357,-0.105 0.811,-0.172 1.271,-0.045 0.204,0.122 0.418,0.228 0.632,0.313 0.08,0.055 0.158,0.121 0.238,0.202 1.432,1.426 0.05,3.052 -0.114,3.231 -0.096,0.104 -0.141,0.237 -0.141,0.361 -0.063,0.006 -0.134,0.011 -0.192,0.022 -1.158,0.203 -2.118,0.949 -2.653,1.448 -0.255,-0.898 -0.464,-1.826 -0.611,-2.797 -0.055,-0.378 -0.224,-0.741 -0.474,-1.049 0,-0.003 0.006,-0.003 0.006,-0.008 m -22.2,-51.754 c -0.322,-0.163 -0.536,-0.279 -0.603,-0.396 0.164,-0.454 1.606,-1.762 3.211,-2.913 0.216,-0.157 0.288,-0.439 0.186,-0.684 -0.104,-0.242 -0.368,-0.376 -0.632,-0.317 -0.646,0.139 -0.975,-0.48 -1.077,-0.741 0.461,-0.055 0.963,-0.202 1.51,-0.436 2.649,-1.135 6.214,-4.996 8.569,-8.61 l -2.973,13.366 c -0.05,0.095 -0.114,0.249 -0.169,0.462 -0.125,0.049 -0.224,0.141 -0.282,0.265 -0.971,2.017 -3.77,3.463 -5.273,4.001 -0.047,0.019 -0.081,0.023 -0.101,0.03 -0.079,-0.146 -0.14,-0.563 -0.185,-0.841 -0.089,-0.598 -0.188,-1.272 -0.542,-1.845 -0.465,-0.759 -1.141,-1.096 -1.639,-1.341 m 3.813,-11.849 c -0.157,-0.269 -0.507,-0.349 -0.77,-0.196 -1.452,0.876 -3.032,1.18 -3.754,1.271 0.199,-0.893 0.572,-1.821 1.373,-3.069 0.879,-1.389 1.665,-1.487 1.709,-1.493 0.174,-0.005 0.334,-0.093 0.428,-0.221 0.255,0.024 0.521,0.039 0.801,0.039 2.421,0 5.745,-1.086 9.116,-5.552 l -0.682,3.084 c -0.012,0.012 -0.017,0.022 -0.021,0.037 -1.808,4.279 -6.873,10.159 -9.855,11.437 -0.963,0.413 -1.734,0.489 -2.231,0.22 -0.512,-0.283 -0.627,-0.889 -0.632,-0.91 -0.024,-0.18 -0.139,-0.329 -0.288,-0.401 0.011,-0.617 0.02,-1.249 0.035,-1.896 0.024,-0.04 0.045,-0.079 0.063,-0.122 0.543,-0.05 2.596,-0.313 4.515,-1.462 0.263,-0.156 0.352,-0.503 0.193,-0.766 m 117.44,-2.537 c 0.18,0.251 0.129,0.598 -0.123,0.783 -0.1,0.066 -0.215,0.104 -0.328,0.104 -0.174,0 -0.344,-0.075 -0.452,-0.229 l -1.77,-2.416 -1.497,2.35 c -0.104,0.165 -0.282,0.258 -0.473,0.258 -0.1,0 -0.203,-0.028 -0.298,-0.089 -0.259,-0.163 -0.339,-0.51 -0.17,-0.769 l 1.486,-2.336 -2.167,-0.384 c -0.304,-0.056 -0.502,-0.345 -0.453,-0.651 0.056,-0.304 0.344,-0.506 0.652,-0.446 l 2.302,0.406 -0.075,-2.112 c -0.011,-0.308 0.229,-0.568 0.537,-0.574 0.318,-0.022 0.57,0.225 0.58,0.536 l 0.076,2.118 2.515,-0.631 c 0.024,0.385 0.05,0.758 0.075,1.135 l -2.182,0.543 z m -20.966,-5.617 c -0.305,-0.055 -0.507,-0.342 -0.452,-0.645 0.055,-0.305 0.343,-0.507 0.646,-0.452 l 2.308,0.406 -0.074,-2.113 c -0.016,-0.307 0.228,-0.565 0.536,-0.575 0.308,-0.011 0.565,0.229 0.577,0.537 l 0.079,2.117 2.693,-0.67 c 0.298,-0.075 0.602,0.109 0.676,0.407 0.075,0.303 -0.108,0.607 -0.407,0.68 l -2.555,0.631 1.76,2.407 c 0.185,0.249 0.129,0.598 -0.118,0.78 -0.101,0.075 -0.215,0.109 -0.328,0.109 -0.174,0 -0.344,-0.077 -0.453,-0.229 l -1.77,-2.415 -1.496,2.347 c -0.104,0.164 -0.289,0.258 -0.474,0.258 -0.104,0 -0.208,-0.031 -0.297,-0.088 -0.265,-0.164 -0.339,-0.513 -0.176,-0.771 l 1.487,-2.331 z m 8.5,27.614 c 0.145,0.269 0.045,0.61 -0.229,0.753 -0.084,0.045 -0.174,0.07 -0.263,0.07 -0.199,0 -0.393,-0.108 -0.492,-0.29 l -1.427,-2.639 -1.799,2.124 c -0.11,0.129 -0.271,0.197 -0.43,0.197 -0.129,0 -0.254,-0.045 -0.361,-0.133 -0.234,-0.197 -0.264,-0.553 -0.062,-0.785 l 1.785,-2.111 -2.093,-0.673 c -0.293,-0.094 -0.453,-0.411 -0.357,-0.703 0.095,-0.295 0.407,-0.454 0.7,-0.36 l 2.232,0.717 0.208,-2.102 c 0.03,-0.311 0.299,-0.532 0.61,-0.504 0.31,0.029 0.532,0.302 0.503,0.611 l -0.214,2.109 2.765,-0.301 c 0.303,-0.033 0.58,0.189 0.61,0.499 0.034,0.307 -0.188,0.58 -0.492,0.614 l -2.618,0.285 z m 3.833,-12.492 c 0.243,0.189 0.287,0.541 0.1,0.779 -0.115,0.146 -0.279,0.218 -0.442,0.218 -0.119,0 -0.243,-0.042 -0.343,-0.12 l -2.356,-1.848 -0.812,2.665 c -0.067,0.239 -0.292,0.399 -0.53,0.399 -0.056,0 -0.109,-0.011 -0.164,-0.025 -0.293,-0.091 -0.462,-0.403 -0.372,-0.698 l 0.801,-2.648 -2.188,0.214 c -0.021,0 -0.034,0.005 -0.055,0.005 -0.283,0 -0.527,-0.219 -0.557,-0.504 -0.03,-0.31 0.198,-0.582 0.501,-0.615 l 2.331,-0.224 -0.646,-2.016 c -0.094,-0.295 0.07,-0.608 0.363,-0.7 0.293,-0.095 0.605,0.064 0.7,0.36 l 0.646,2.015 2.417,-1.373 c 0.27,-0.146 0.606,-0.055 0.76,0.208 0.154,0.269 0.062,0.612 -0.208,0.766 l -2.285,1.304 z m 4.254,-19.375 c 0.184,0.248 0.129,0.595 -0.119,0.78 -0.1,0.073 -0.213,0.108 -0.327,0.108 -0.175,0 -0.344,-0.08 -0.453,-0.229 l -1.77,-2.414 -1.496,2.344 c -0.104,0.164 -0.288,0.261 -0.472,0.261 -0.104,0 -0.21,-0.031 -0.3,-0.093 -0.263,-0.163 -0.337,-0.51 -0.174,-0.769 l 1.486,-2.332 -2.162,-0.386 c -0.304,-0.055 -0.507,-0.343 -0.452,-0.648 0.055,-0.302 0.343,-0.506 0.646,-0.451 l 2.306,0.407 -0.069,-1.937 c 0.519,-0.087 1.237,-0.204 1.113,-0.186 l 0.074,2.089 2.694,-0.673 c 0.299,-0.067 0.602,0.109 0.675,0.409 0.076,0.302 -0.108,0.604 -0.406,0.68 l -2.555,0.632 z m -47.254,5.678 c -0.045,0.012 -0.084,0.038 -0.13,0.066 -2.664,1.359 -5.288,2.89 -7.773,4.607 -0.214,-0.406 -0.527,-0.988 -0.92,-1.662 -0.025,-0.142 -0.099,-0.259 -0.209,-0.345 -1.616,-2.71 -4.407,-6.605 -7.208,-6.938 -3.329,-0.392 -3.616,1.256 -4.25,4.881 -0.203,1.152 -0.694,3.648 -1.327,6.719 l -0.003,0.011 c -0.041,0.082 -0.054,0.17 -0.051,0.253 -0.558,2.7 -1.213,5.818 -1.879,8.853 -0.083,0.126 -0.119,0.28 -0.089,0.428 -1.313,5.996 -2.625,11.578 -3.182,12.88 -1.541,-0.264 -7.779,-1.495 -12.477,-4.882 0.542,-0.435 1.387,-1.188 2.352,-2.271 0.02,0.021 0.044,0.042 0.068,0.054 1.147,0.67 7.193,2.841 7.451,2.93 0.061,0.021 0.123,0.028 0.188,0.028 0.204,0 0.398,-0.107 0.497,-0.296 2.705,-5.229 6.683,-27.25 6.852,-28.188 0.044,-0.24 -0.075,-0.477 -0.294,-0.593 -0.214,-0.114 -0.479,-0.069 -0.651,0.101 -2.608,2.604 -7.933,6.169 -9.568,7.24 -0.353,-0.626 -0.785,-1.272 -1.303,-1.947 3.142,-2.086 25.465,-16.95 33.592,-22.885 8.151,-5.95 12.8,-9.35 13.003,-14.748 1.895,0.586 3.58,1.228 7.207,2.666 3.957,1.568 12.696,5.604 13.597,6.445 0.033,0.273 -0.229,1.031 -0.617,1.8 -1.929,-1.258 -3.907,-2.556 -4.175,-2.765 -0.576,-0.429 -1.462,-0.343 -1.948,-0.253 -0.521,-0.467 -1.979,-1.657 -3.276,-1.557 -0.209,0.015 -0.417,0.075 -0.616,0.158 -0.034,-0.013 -0.073,-0.028 -0.113,-0.033 -0.135,-0.023 -2.49,-0.423 -4.777,0.17 0.598,-0.772 1.074,-1.487 1.229,-1.974 0.089,-0.275 -0.046,-0.568 -0.304,-0.681 l -4.149,-1.854 c -0.154,-0.064 -0.333,-0.061 -0.483,0.016 -0.147,0.072 -0.259,0.214 -0.293,0.38 -0.014,0.054 -1.292,5.945 -3.663,10.01 -0.02,0.032 -0.035,0.064 -0.045,0.103 -4.06,3.096 -11.01,7.738 -19.032,10.283 -0.223,0.068 -0.382,0.28 -0.388,0.518 -0.01,0.24 0.139,0.45 0.362,0.536 0.041,0.021 4.234,1.651 6.09,7.472 0.049,0.159 0.169,0.284 0.323,0.347 0.063,0.026 0.134,0.042 0.208,0.042 0.096,0 0.185,-0.025 0.269,-0.07 0.199,-0.109 20.012,-10.921 41.973,-12.434 0.308,-0.019 0.542,-0.287 0.519,-0.594 -0.021,-0.308 -0.29,-0.543 -0.592,-0.522 -1.775,0.123 -3.525,0.309 -5.261,0.534 0.284,-0.281 0.771,-0.784 1.67,-1.701 0.621,-0.638 0.97,-1.254 1.044,-1.854 1.372,0.819 3.103,1.839 5.284,3.084 1.218,0.702 2.241,1.304 3.103,1.821 -6.199,0.522 -29.139,3.177 -50.433,15.011 -0.349,-1.771 -1.746,-5.911 -7.301,-9.538 -0.26,-0.169 -0.606,-0.094 -0.777,0.158 -0.169,0.259 -0.094,0.605 0.165,0.776 6.625,4.33 6.913,9.465 6.913,9.515 0.012,0.192 0.119,0.373 0.288,0.466 0.085,0.05 0.181,0.07 0.274,0.07 0.093,0 0.188,-0.021 0.271,-0.07 24.336,-13.789 51.129,-15.324 52.231,-15.379 1.095,0.686 1.784,1.163 2.227,1.486 -3.25,0.521 -12.873,2.089 -21.773,3.822 -2.933,0.534 -15.757,3.119 -27.92,9.294 m 1.073,0.709 c 2.968,-1.477 5.969,-2.738 8.848,-3.813 -0.88,1.049 -2.222,2.5 -3.195,2.982 -0.877,0.434 -2.616,1.284 -5.653,0.831 m -7.257,4.151 c 1.854,-1.224 3.778,-2.341 5.727,-3.372 -0.124,0.718 -0.438,1.693 -1.185,2.401 -0.754,0.729 -1.844,1.053 -3.225,0.961 -0.507,-0.03 -0.94,-0.025 -1.317,0.01 m -9.981,6.411 -2.349,-1.244 c 0.081,-0.057 0.165,-0.122 0.245,-0.182 1.028,-0.735 2.759,-0.741 4.435,-0.751 1.203,-0.005 2.341,-0.011 3.229,-0.29 1.491,-0.461 2.117,-1.187 2.625,-1.772 0.621,-0.723 1.033,-1.196 3.036,-1.069 1.71,0.118 3.082,-0.308 4.076,-1.269 0.925,-0.883 1.322,-2.045 1.49,-2.922 0.786,0.135 1.492,0.189 2.134,0.189 0.517,0 0.988,-0.035 1.421,-0.101 -0.84,0.815 -1.755,1.814 -2.182,2.67 l -0.12,0.243 c -0.684,1.378 -1.06,2.138 -2.725,2.537 -0.446,0.109 -0.988,0.153 -1.564,0.197 -1.885,0.149 -4.459,0.357 -6.879,3.105 -1.012,1.006 -3.591,2.266 -6.872,0.659 m -0.925,-5.379 0.572,-0.033 c 2.978,-0.185 4.339,-0.272 5.283,-0.712 0.771,-0.352 1.355,-0.697 1.761,-1.021 0.356,0.63 0.649,1.186 0.854,1.619 0.033,0.069 0.078,0.125 0.133,0.174 -0.119,0.126 -0.229,0.255 -0.338,0.385 -0.477,0.549 -0.925,1.068 -2.112,1.436 -0.729,0.227 -1.784,0.233 -2.901,0.237 -1.851,0.011 -3.765,0.021 -5.074,0.96 -0.955,0.681 -1.88,1.601 -2.595,2.39 0.264,-1.25 0.516,-2.466 0.75,-3.603 0.212,-0.358 1.163,-1.667 3.667,-1.832 m -2.594,-3.512 c 0.136,-0.69 0.233,-1.229 0.294,-1.578 0.666,-3.817 0.813,-4.223 3.018,-3.96 0.85,0.099 1.755,0.667 2.635,1.486 -0.079,0.071 -0.146,0.164 -0.175,0.272 -0.01,0.03 -0.836,2.805 -5.772,3.78 m 6.755,-3.226 c 1.074,1.191 2.083,2.656 2.884,3.984 -0.194,0.186 -0.646,0.526 -1.654,0.997 -0.761,0.351 -2.138,0.435 -4.887,0.609 l -0.571,0.034 c -1.452,0.096 -2.481,0.527 -3.207,1.008 0.165,-0.812 0.313,-1.564 0.448,-2.231 5.138,-0.869 6.638,-3.555 6.987,-4.401 m -11.677,26.269 c -0.01,-0.021 -0.02,-0.039 -0.027,-0.055 0.393,-1.611 0.88,-3.698 1.48,-6.416 0.734,2.516 1.669,6.898 0.367,9.986 -0.411,0.987 -0.889,1.918 -1.536,2.856 0.905,-3.781 -0.223,-6.24 -0.284,-6.371 m -6.077,13.57 c 2.187,-1.443 3.816,-2.732 5.074,-3.963 0.064,-0.037 0.119,-0.098 0.164,-0.163 1.864,-1.854 2.883,-3.583 3.692,-5.496 1.903,-4.523 -0.412,-11.194 -0.93,-12.565 0.229,-1.048 0.457,-2.106 0.683,-3.152 0.004,-0.006 0.009,-0.011 0.015,-0.018 0.014,-0.017 1.184,-1.569 2.601,-2.867 0.044,0.065 0.104,0.12 0.184,0.164 l 1.935,1.015 c -0.69,0.187 -1.402,0.521 -1.955,1.145 -0.938,1.06 -1.144,2.638 -0.604,4.706 l 0.089,0.342 c 1.546,5.944 2.878,11.08 -3.028,17.43 -1.305,1.365 -2.911,2.657 -7.92,3.422 m 3.19,5.807 c -0.78,0.045 -1.168,0.447 -1.357,0.773 -0.457,0.795 -0.203,2.023 0.119,2.978 -0.814,-0.393 -1.844,-0.936 -2.5,-1.462 -0.657,-0.535 -0.835,-1.383 -0.715,-1.933 0.039,-0.197 0.163,-0.553 0.501,-0.656 2.584,-0.521 4.081,-1.426 4.443,-2.673 0.277,-0.966 -0.188,-1.831 -0.557,-2.323 1.063,-0.282 1.934,-0.605 2.684,-0.978 0,0.075 0.017,0.147 0.051,0.224 0.015,0.029 1.322,2.888 0.283,4.637 -0.492,0.834 -1.491,1.31 -2.952,1.413 m -0.041,3.763 c -0.354,-0.921 -0.605,-1.985 -0.348,-2.434 0.034,-0.058 0.114,-0.198 0.458,-0.217 0.727,-0.049 1.361,-0.181 1.907,-0.394 0.017,0.686 -0.072,1.711 -0.615,2.381 -0.327,0.403 -0.789,0.617 -1.402,0.664 m -3.046,5.097 c 0.282,-0.412 0.472,-0.889 0.437,-1.389 -0.059,-0.911 -0.794,-1.656 -2.181,-2.218 -3.346,-1.364 -3.228,-2.248 -2.938,-4.392 v -0.012 c 0,-0.011 0,-0.018 0,-0.021 0.373,-4.952 2.646,-5.288 2.76,-5.304 0.028,0 0.055,-0.01 0.089,-0.017 0.041,0.011 0.091,0.017 0.135,0.017 0.024,0 0.04,0 0.065,0 1.315,-0.149 2.448,-0.329 3.443,-0.537 0.029,0.039 0.056,0.075 0.084,0.105 0.005,0.004 0.846,0.827 0.606,1.622 -0.234,0.796 -1.517,1.474 -3.608,1.897 -0.015,0.005 -0.029,0.005 -0.041,0.01 -0.675,0.183 -1.151,0.735 -1.312,1.505 -0.229,1.09 0.219,2.303 1.107,3.026 1.299,1.055 3.738,2.074 4.021,2.188 0.056,0.029 0.181,0.095 0.368,0.199 0.005,0.011 0.016,0.016 0.021,0.021 0.075,0.067 0.309,0.268 0.181,0.733 -0.225,0.822 -1.309,1.847 -3.237,2.567 m 7.034,3.646 c -1.811,4.597 -4.852,3.989 -6.179,3.714 -1.507,-0.484 -2.477,-1.234 -2.884,-2.253 -0.521,-1.285 -0.039,-2.695 0.204,-3.271 l 0.299,-0.224 c 1.41,-0.313 2.54,-0.757 3.414,-1.258 1.621,0.726 3.476,1.56 5.458,2.459 z m -6.935,6.27 c 0.017,-0.05 0.017,-0.099 0.017,-0.144 0.373,-0.646 0.566,-1.037 0.671,-1.287 0.394,0.076 0.938,0.169 1.576,0.169 1.048,0 2.324,-0.259 3.514,-1.278 -0.045,1.656 0.407,3.67 2.107,4.888 l -0.344,1.094 c -0.711,-0.021 -1.472,0.02 -2.292,0.134 -1.431,0.188 -2.698,0.72 -3.747,1.51 -2.322,-1.632 -1.535,-4.934 -1.502,-5.086 m -5.477,2.238 c 0.377,0.081 0.789,0.129 1.222,0.129 1.021,0 2.123,-0.258 2.983,-0.894 0.005,1.333 0.347,3.137 1.913,4.361 -1.366,1.398 -2.207,3.317 -2.342,5.535 -0.309,-0.131 -0.735,-0.495 -0.845,-1.532 -0.219,-2.028 -0.512,-4.805 -3.658,-5.184 -0.011,0 -0.025,0 -0.035,0 -0.396,-0.021 -0.756,-0.048 -1.078,-0.103 1.065,-0.666 1.596,-1.687 1.84,-2.312 m -13.059,-24.018 c 0.498,-0.264 0.901,-0.686 1.129,-1.208 0.012,-0.005 0.021,-0.016 0.031,-0.026 0.024,-0.028 0.69,-0.764 1.704,-2.057 0.009,-0.013 0.025,-0.035 0.035,-0.049 0.601,-0.989 1.184,-1.526 1.714,-1.591 0.612,-0.068 1.277,0.497 1.846,1.073 0.801,0.929 0.874,1.642 0.349,3.161 -0.514,1.468 -1.045,1.814 -1.859,2.342 l -0.148,0.094 c -0.865,0.563 -1.734,0.871 -1.745,0.875 -0.069,0.024 -0.13,0.061 -0.186,0.111 -0.759,-0.095 -1.777,-0.186 -2.868,-0.248 z m -10.865,-18.546 c -0.373,-1.091 -0.571,-1.963 -0.666,-2.654 l 6.993,1.433 v 15.087 h -2.978 c -0.411,-2.03 -2.106,-10.207 -3.349,-13.866 m 4.708,-28.346 c 0.015,-0.055 0.028,-0.109 0.033,-0.164 l 1.153,-5.2 c 0.036,-0.021 0.064,-0.036 0.091,-0.055 0.252,-0.169 0.321,-0.516 0.153,-0.776 -0.016,-0.019 -0.03,-0.034 -0.046,-0.053 l 0.233,-1.045 v 33.28 l -7.072,-1.448 c 0.016,-0.74 0.174,-1.053 0.188,-1.085 0.039,-0.06 0.07,-0.121 0.083,-0.188 z m -12.497,4.697 c 0.87,-1.811 1.473,-2.156 2,-2.457 0.139,-0.079 0.28,-0.163 0.431,-0.269 0.503,-0.356 2.461,-1.326 3.178,-1.669 0.27,-0.13 0.388,-0.448 0.272,-0.719 -0.114,-0.274 -0.423,-0.409 -0.7,-0.316 -0.453,0.159 -0.667,0.042 -0.737,0 -0.525,-0.313 -0.744,-1.449 -0.845,-2.002 -0.004,-0.034 -0.014,-0.068 -0.019,-0.099 0.695,-0.209 2.42,-0.518 3.9,-0.726 h 0.01 c 0.006,0 0.011,-0.006 0.017,-0.006 0.005,0 0.014,0 0.019,-0.004 0.39,-0.081 3.099,-0.646 4.901,-1.257 l -0.993,4.433 c -5.051,8.425 -10.105,7.75 -12.109,7.027 0.013,-0.265 0.189,-0.922 0.675,-1.936 m 71.055,-29.252 c 1.601,0.392 2.888,0.868 2.9,0.873 0.132,0.05 0.279,0.05 0.408,-0.01 1.581,-0.66 2.06,-2.958 2.078,-3.056 0.035,-0.159 -0.005,-0.318 -0.099,-0.444 -0.095,-0.127 -0.239,-0.213 -0.398,-0.221 -0.02,0 -1.705,-0.148 -5.521,-0.97 l -0.553,-0.122 c -3.634,-0.777 -4.19,-0.893 -4.871,-0.118 -0.22,0.249 -0.9,1.184 -1.62,2.188 -0.925,-1.794 -2.664,-2.754 -3.515,-3.138 l 0.751,-2.991 c 0.402,0.149 0.919,0.308 1.619,0.518 2.128,0.624 3.058,1.991 3.066,2.001 0.104,0.16 0.285,0.256 0.468,0.256 0.085,0 0.165,-0.021 0.244,-0.06 l 3.98,-1.955 c 0.154,-0.074 0.265,-0.213 0.3,-0.374 0.038,-0.167 0,-0.337 -0.105,-0.472 l -4.503,-5.765 c 0.114,0.006 0.203,0.01 0.259,0.015 3.431,0.342 6.282,1.739 8.574,2.858 0.87,0.429 1.62,0.8 2.299,1.054 1.911,0.725 2.011,0.942 2.091,1.119 0.01,0.025 0.024,0.055 0.038,0.082 0.145,0.658 0.284,1.781 0.301,1.959 0.144,3.839 -1.945,6.428 -6.915,10.35 -0.006,-0.044 -0.017,-0.088 -0.03,-0.134 z m -38.075,30.6 c -0.045,-0.048 -0.094,-0.093 -0.147,-0.121 -1.984,-1.135 -11.164,-7.02 -8.884,-17.522 0.074,0.021 0.155,0.031 0.238,0.031 0.751,0 1.784,-0.835 3.392,-2.709 1.286,-1.525 2.187,-2.625 2.719,-3.281 0.147,0.215 0.353,0.429 0.626,0.632 0.108,0.1 0.219,0.176 0.328,0.237 -0.949,1.771 -1.525,3.848 -1.721,5.237 -0.238,1.732 -0.964,4.059 -4.453,4.218 -0.198,0.011 -0.379,0.125 -0.473,0.303 -0.09,0.18 -0.079,0.389 0.03,0.557 0.104,0.166 2.5,3.817 5.353,3.892 -0.427,1.04 -0.321,2.177 -0.316,2.243 0.019,0.192 0.139,0.36 0.313,0.448 l 3.002,1.441 c 0.075,0.038 0.16,0.058 0.245,0.058 0.089,0 0.184,-0.024 0.264,-0.068 0.158,-0.087 0.264,-0.239 0.287,-0.417 0,-0.017 0.203,-1.491 0.79,-2.495 0.225,-0.384 0.532,-0.767 0.826,-1.145 0.571,-0.715 1.113,-1.396 1.113,-2.117 0,-0.292 -0.06,-0.643 -0.125,-1.049 -0.06,-0.317 -0.114,-0.691 -0.149,-1.042 1.168,0.674 3.391,2.08 4.047,3.056 0.085,0.125 0.219,0.213 0.363,0.236 l 3.489,0.652 c 0.034,0.005 0.069,0.011 0.104,0.011 0.131,0 0.255,-0.044 0.353,-0.131 0.374,-0.302 2.228,-1.878 2.393,-3.1 0.021,-0.16 -0.028,-0.319 -0.134,-0.438 -0.099,-0.121 -0.25,-0.194 -0.409,-0.194 l -3.846,-0.088 -2.715,-2.407 c 0.717,-0.233 1.471,-0.542 2.223,-0.985 2.018,-1.192 3.017,-2.617 3.389,-3.255 0.588,0.03 1.8,0.079 2.979,0.079 0.834,0 1.649,-0.023 2.222,-0.104 1.313,-0.173 3.268,-1.383 6.153,-3.802 0.886,-0.746 1.436,-1.224 1.739,-1.486 0.683,0.611 1.321,1.198 1.774,1.625 0.676,0.645 1.236,0.958 1.749,0.958 0.077,0 0.148,-0.005 0.22,-0.017 0.665,-0.126 0.954,-0.747 1.152,-1.175 0.149,-0.313 0.433,-0.948 0.795,-1.755 0.706,-1.59 2.073,-4.651 2.664,-5.764 l 1.104,4.481 c 0.063,0.247 0.292,0.423 0.541,0.423 0.034,0 0.064,0 0.099,-0.011 l 2.771,-0.482 c -1.383,1.063 -2.964,2.227 -4.758,3.535 -8.187,5.979 -30.842,21.056 -33.631,22.91 -0.033,-0.036 -0.063,-0.07 -0.088,-0.103 m 3.39,6.232 c 0.035,-0.011 0.064,-0.022 0.091,-0.045 0.228,-0.147 2.026,-1.3 4.186,-2.835 -1.021,5.032 -2.67,12.676 -4.087,17.015 -1.794,-0.67 -3.229,-1.235 -3.887,-1.53 0.82,-1.256 1.64,-2.747 2.352,-4.482 0.005,-0.011 0.012,-0.021 0.015,-0.031 0.119,-0.356 0.255,-0.72 0.389,-1.098 0.718,-1.953 1.542,-4.197 0.941,-6.994 m -4.345,13.541 c 0.986,0.466 3.783,1.51 4.684,1.843 0.064,0.029 0.13,0.041 0.193,0.041 0.086,0 0.165,-0.02 0.244,-0.055 0.134,-0.066 0.238,-0.179 0.287,-0.325 1.616,-4.676 3.565,-13.977 4.589,-19.099 0.045,-0.227 -0.055,-0.46 -0.249,-0.58 -0.192,-0.123 -0.445,-0.117 -0.632,0.021 -2.276,1.667 -4.393,3.054 -5.079,3.495 -0.125,-0.385 -0.288,-0.78 -0.478,-1.188 1.338,-0.87 5.655,-3.743 8.591,-6.295 -0.966,5.16 -4.027,20.913 -6.229,25.779 -1.908,-0.69 -5.707,-2.097 -6.695,-2.618 0.258,-0.315 0.516,-0.658 0.774,-1.019 m -16.79,1.386 6.936,-1.387 c -0.104,0.664 -0.293,1.494 -0.647,2.528 -1.235,3.659 -2.931,11.836 -3.345,13.865 h -2.942 z m 8.392,-54.631 c -1.293,1.824 -2.506,3.845 -3.641,6.108 -0.557,0.043 -1.829,0.172 -3.245,0.554 -0.994,0.271 -2.275,0.896 -3.28,1.438 0.397,-0.806 0.854,-1.778 1.214,-2.635 0.694,-1.64 2.559,-3.816 2.732,-4.014 0.762,-0.751 3.948,-1.253 6.22,-1.451 m 2.593,-6.293 c 0.159,0 0.298,-0.07 0.396,-0.175 0.813,-0.028 1.69,-0.015 2.508,0.133 -1.646,1.557 -3.191,3.257 -4.647,5.176 -0.05,-0.016 -0.1,-0.02 -0.147,-0.016 -0.543,0.033 -4.645,0.313 -6.771,1.244 0.333,-0.619 0.806,-1.397 1.392,-2.222 2.591,-3.658 3.411,-3.954 3.495,-3.977 0.495,-0.12 2.576,-0.163 3.774,-0.163 m 6.009,-5.594 c 0.831,0.034 2.093,0.089 2.586,0.517 0.094,0.086 0.214,0.131 0.328,0.135 -1.77,1.264 -3.46,2.58 -5.061,4.018 -0.056,-0.034 -0.114,-0.066 -0.181,-0.08 -1.568,-0.427 -3.363,-0.299 -4.676,-0.206 -0.264,0.021 -0.553,0.043 -0.812,0.053 0.502,-0.425 1.292,-0.986 1.879,-1.408 0.513,-0.368 1.039,-0.75 1.478,-1.092 0.858,-0.668 1.152,-1.07 1.341,-1.333 0.169,-0.233 0.229,-0.319 0.771,-0.552 0.551,-0.233 0.824,-0.287 0.942,-0.299 0.272,0.197 0.724,0.213 1.405,0.247 m 8.963,-2.665 c -1.862,0.846 -3.688,1.826 -5.478,2.938 0.067,-0.208 0.011,-0.447 -0.169,-0.602 -0.785,-0.681 -2.223,-0.746 -3.267,-0.79 -0.159,-0.007 -0.349,-0.017 -0.513,-0.022 0.198,-0.423 0.701,-1.125 1.53,-1.453 1.299,-0.521 1.581,-0.715 2.525,-1.349 l 0.368,-0.248 c 0.855,-0.571 1.5,-0.785 1.755,-0.86 0.495,0.509 1.436,1.26 3.249,2.386 m 5.632,-2.112 c -1.477,0.448 -2.938,0.97 -4.373,1.572 -1.756,-1.063 -3.641,-2.383 -3.912,-2.84 v -0.018 c 0.107,-0.053 0.338,-0.115 0.557,-0.176 0.402,-0.115 0.949,-0.269 1.72,-0.541 1.094,-0.39 1.8,-0.791 2.316,-1.089 0.655,-0.372 0.905,-0.502 1.308,-0.427 0.766,0.143 1.104,1.146 1.108,1.158 0.049,0.147 0.152,0.269 0.283,0.33 0.311,0.774 0.705,1.525 0.993,2.031 m 7.361,-1.531 c -2.118,0.253 -4.204,0.662 -6.253,1.218 -1.114,-1.902 -1.685,-3.626 -1.441,-3.932 0.935,-0.362 4.458,-0.73 5.915,-0.857 0.004,0.006 0.004,0.013 0.011,0.018 0.228,0.478 0.486,0.954 0.739,1.416 0.408,0.746 0.802,1.462 1.029,2.137 m 7.257,-0.296 c -2.07,-0.082 -4.116,-0.021 -6.123,0.171 -0.254,-0.851 -0.726,-1.708 -1.185,-2.547 -0.242,-0.449 -0.496,-0.91 -0.709,-1.359 -0.05,-0.109 -0.086,-0.188 -0.115,-0.259 0.154,-0.016 0.357,-0.027 0.543,-0.044 0.394,-0.031 0.929,-0.076 1.591,-0.164 1.561,-0.208 1.658,-0.08 1.877,0.204 0.13,0.174 0.313,0.411 0.633,0.662 0.188,0.153 0.451,0.16 0.655,0.023 0.278,-0.183 0.467,-0.389 0.621,-0.551 0.328,-0.349 0.514,-0.543 1.694,-0.339 1.322,0.225 2.022,0.279 2.381,0.289 -1.073,1.194 -1.674,3.198 -1.863,3.914 m 6.502,0.734 c -1.063,-0.201 -2.202,-0.383 -3.426,-0.526 l -0.243,-0.021 c -0.562,-0.054 -1.128,-0.099 -1.688,-0.133 0.401,-1.397 1.342,-3.648 2.405,-3.757 1.5,-0.165 4.905,0.473 6.789,1.092 -1.75,0.939 -3.534,2.991 -3.837,3.345 m 9.634,-0.14 c -1.731,0.69 -2.557,1.479 -2.944,2.006 -1.48,-0.577 -3.274,-1.14 -5.423,-1.608 1.188,-1.3 3.052,-2.95 4.101,-2.95 1.949,0 2.854,0.159 4.021,0.715 0.637,0.3 1.576,0.821 2.372,1.271 -0.726,0.093 -1.418,0.278 -2.127,0.566 m 8.161,3.317 c -2.671,-0.303 -4.594,0.919 -5.593,1.789 -0.015,-0.018 -0.02,-0.036 -0.039,-0.046 -0.01,-0.016 -0.031,-0.028 -0.041,-0.039 -0.701,-0.587 -2.082,-1.574 -4.354,-2.571 0.349,-0.373 1.015,-0.904 2.276,-1.411 1.5,-0.601 3.018,-0.828 5.944,-0.119 2.55,0.626 3.391,1.893 3.659,2.773 -0.441,-0.146 -1.038,-0.288 -1.852,-0.376 m -63.744,65.274 c 0.021,0.073 0.041,0.123 0.085,0.188 0,0.007 0.188,0.351 0.188,1.205 l -7.033,1.4 v -33.333 z m 23.924,-63.804 c -2.703,0.943 -4.239,1.925 -4.696,3.007 -0.328,0.776 -0.034,1.402 0.089,1.665 0.145,0.309 0.388,0.597 0.727,0.807 -1.536,0.764 -3.081,1.669 -4.519,2.776 -1.605,1.239 -3.077,2.593 -4.239,3.74 -0.069,-0.444 -0.29,-0.83 -0.643,-1.135 -0.457,-0.391 -1.014,-0.562 -1.615,-0.485 -1.649,0.21 -3.37,2.195 -4.526,3.846 -0.568,0.554 -5.38,5.617 -9.355,22.469 l -0.938,-4.226 c 0.045,-0.06 0.09,-0.125 0.109,-0.197 4.472,-16.207 11.128,-23.584 19.741,-29.667 2.084,-1.312 4.221,-2.44 6.409,-3.38 0.144,0 0.276,-0.059 0.381,-0.158 6.686,-2.798 13.839,-3.856 21.329,-3.148 l 0.229,0.021 c 4.39,0.527 7.669,1.473 10.045,2.427 0.064,0.069 0.15,0.124 0.243,0.153 0.062,0.017 0.12,0.021 0.182,0.021 2.464,1.032 3.87,2.053 4.456,2.535 0,0.005 0.007,0.021 0.007,0.037 0,0.027 -0.007,0.055 -0.017,0.094 -0.029,0.049 -0.045,0.104 -0.055,0.159 -0.113,0.263 -0.372,0.624 -0.766,0.992 -0.293,0.274 -0.469,0.203 -0.513,0.175 -0.028,-0.026 -0.023,-0.021 -0.055,-0.043 -4.976,-3.213 -10.3,-4.52 -15.189,-4.834 -0.04,-0.015 -0.074,-0.024 -0.118,-0.029 -0.052,-0.006 -0.329,-0.029 -0.771,-0.021 -7.249,-0.294 -13.422,1.527 -15.932,2.399 m 7.352,2.358 c -0.683,0.835 -1.343,1.814 -1.974,2.962 -0.145,-0.294 -0.345,-0.576 -0.597,-0.826 -0.379,-0.38 -0.846,-0.665 -1.356,-0.853 1.56,-0.548 2.978,-0.997 3.927,-1.283 m -16.583,24.414 -2.559,2.774 c 0.005,-0.064 0.005,-0.125 0.005,-0.189 0.069,-2.737 0.695,-4.95 1.63,-5.761 0.1,-0.083 0.193,-0.148 0.293,-0.198 -0.089,0.828 -0.074,2.168 0.631,3.374 m 2.06,5.231 3.259,2.88 c 0.101,0.093 0.224,0.143 0.356,0.143 l 3.224,0.073 c -0.359,0.525 -0.98,1.156 -1.507,1.61 l -3.013,-0.563 c -1.197,-1.505 -4.514,-3.342 -4.656,-3.423 -0.006,0 -0.012,-0.005 -0.017,-0.005 0.011,-0.012 0.011,-0.018 0.017,-0.024 0.197,-0.284 0.999,-0.493 1.844,-0.718 0.123,-0.032 0.258,-0.065 0.392,-0.103 0.025,0.045 0.06,0.088 0.101,0.13 m 32.277,-12.822 -2.021,0.356 -1.024,-4.173 c 0.502,0.054 1.163,0.196 1.79,0.329 0.01,0.025 0.01,0.043 0.015,0.064 z M 210.163,90.039 c 0.025,0.071 0.587,1.821 1.109,2.642 0.223,0.347 0.407,0.599 0.671,0.808 l -0.93,3.718 c -0.07,0.282 0.089,0.572 0.367,0.664 0.024,0.011 2.693,0.934 3.563,3.231 0.011,0.027 0.03,0.05 0.046,0.081 -0.632,0.884 -1.179,1.652 -1.308,1.844 -0.18,0.252 -0.114,0.599 0.134,0.774 0.254,0.181 0.602,0.119 0.78,-0.133 0.869,-1.239 3.212,-4.546 3.594,-4.981 0.232,-0.268 0.696,-0.189 3.798,0.48 l 0.552,0.114 c 2.561,0.553 4.165,0.801 4.985,0.91 -0.194,0.553 -0.546,1.25 -1.063,1.572 -0.531,-0.189 -1.908,-0.652 -3.475,-0.99 l -0.478,-0.104 c -1.908,-0.413 -3.167,-0.686 -3.831,0.075 -0.354,0.402 -1.313,2.485 -3.078,6.431 -0.357,0.795 -0.637,1.428 -0.79,1.754 -0.074,0.165 -0.238,0.509 -0.338,0.527 -0.011,0 -0.272,0.042 -0.994,-0.649 -1.53,-1.457 -5.104,-4.563 -5.258,-4.692 -0.234,-0.204 -0.588,-0.178 -0.786,0.054 -0.204,0.234 -0.179,0.582 0.055,0.785 0.021,0.021 1.264,1.101 2.604,2.286 -0.313,0.274 -0.835,0.729 -1.619,1.383 -2.64,2.215 -4.52,3.41 -5.582,3.554 -1.139,0.149 -3.472,0.076 -4.638,0.026 0.144,-0.701 0.197,-1.831 -0.363,-3.138 -0.118,-0.283 -0.447,-0.417 -0.73,-0.294 -0.283,0.12 -0.417,0.448 -0.298,0.732 0.727,1.685 0.174,2.937 0.148,2.996 -0.01,0.015 -0.796,1.716 -3.132,3.104 -1.218,0.719 -2.516,1.059 -3.56,1.329 -1.137,0.3 -2.036,0.532 -2.479,1.156 -0.587,0.844 -0.378,2.085 -0.209,3.084 0.056,0.345 0.109,0.667 0.109,0.866 0,0.333 -0.462,0.914 -0.87,1.425 -0.316,0.406 -0.649,0.821 -0.915,1.273 -0.412,0.707 -0.66,1.562 -0.795,2.162 l -2.043,-0.979 c 0.005,-0.498 0.085,-1.492 0.671,-2.023 0.061,-0.055 0.104,-0.125 0.142,-0.198 1.738,-1.035 2.295,-3.927 2.479,-6.642 0.146,-0.004 0.288,-0.065 0.394,-0.18 l 3.354,-3.632 c 0.179,-0.192 0.194,-0.493 0.039,-0.707 -1.122,-1.524 -0.572,-3.599 -0.566,-3.616 0.044,-0.159 0.017,-0.323 -0.073,-0.465 -0.091,-0.133 -0.234,-0.222 -0.397,-0.242 -0.642,-0.077 -1.258,0.125 -1.772,0.571 -1.706,1.482 -1.98,5.095 -2.02,6.58 -0.125,4.998 -1.04,7.486 -2.784,7.607 -0.446,0.029 -0.891,-0.076 -1.321,-0.269 0.789,-0.433 1.77,-1.419 2.67,-3.57 0.117,-0.284 -0.017,-0.613 -0.306,-0.729 -0.281,-0.119 -0.61,0.014 -0.726,0.298 -1.355,3.252 -2.743,3.227 -2.894,3.211 -0.621,-0.507 -1.156,-1.105 -1.525,-1.565 2.586,-0.439 4.102,-2.145 4.508,-5.074 0.194,-1.398 0.846,-3.691 1.914,-5.415 0.175,-0.135 0.284,-0.288 0.344,-0.367 0.023,-0.032 0.05,-0.075 0.089,-0.141 1.069,-1.854 3.818,-2.737 5.937,-3.149 5.401,-1.06 7.4,-1.249 7.415,-1.255 0.31,-0.022 0.533,-0.296 0.508,-0.605 -0.031,-0.307 -0.294,-0.525 -0.607,-0.503 -0.084,0.006 -2.052,0.189 -7.528,1.267 -2.405,0.472 -4.234,1.225 -5.469,2.26 -0.014,0.011 -0.028,0.021 -0.051,0.032 -0.501,0.41 -0.954,0.938 -1.359,1.531 -0.04,-0.023 -0.104,-0.062 -0.185,-0.133 l -0.04,-0.033 c -0.543,-0.394 -0.61,-0.855 -0.616,-0.86 -0.021,-0.23 -0.18,-0.417 -0.398,-0.482 -0.217,-0.064 -0.451,0.011 -0.595,0.187 -0.007,0.018 -1.069,1.354 -3.268,3.964 -1.451,1.691 -2.128,2.147 -2.396,2.277 -0.004,-0.109 0.005,-0.255 0.023,-0.411 0.075,-0.251 0.159,-0.51 0.254,-0.763 1.089,-3.275 4.962,-9.071 7.564,-11.88 0.016,-0.021 0.046,-0.055 0.091,-0.104 1.108,-1.206 3.369,-3.535 5.935,-5.512 2.58,-1.99 5.566,-3.317 8.161,-4.351 1.497,-0.62 2.858,-0.197 3.551,0.494 0.298,0.296 0.721,0.894 0.531,1.757 -0.021,0.042 -0.039,0.086 -0.056,0.126 -0.034,0.07 -0.05,0.143 -0.05,0.218 -0.01,0.024 -0.021,0.05 -0.025,0.072 -1.009,2.418 -1.439,3.631 -0.317,4.854 0.209,0.229 0.567,0.243 0.791,0.033 0.229,-0.213 0.243,-0.564 0.029,-0.795 -0.546,-0.594 -0.57,-1.031 0.527,-3.663 0.063,-0.154 0.119,-0.307 0.158,-0.466 3.522,-7.756 8.608,-8.646 10.374,-8.705 0.943,0.043 1.907,0.12 2.887,0.244 l -0.78,2.398 c -0.009,0.033 -0.019,0.072 -0.019,0.111 -0.006,0.016 -0.006,0.025 -0.006,0.043 0,0.027 0,0.054 0.006,0.078 l 0.004,0.042 c 0.006,0.026 0.011,0.051 0.021,0.081 0.004,0.013 0.012,0.024 0.016,0.035 0.016,0.026 0.029,0.049 0.04,0.075 0.004,0.011 0.01,0.019 0.014,0.029 l 0.012,0.006 c 0,0.004 0.005,0.01 0.011,0.014 l 4.811,6.165 -2.961,1.451 c -0.483,-0.551 -1.567,-1.543 -3.376,-2.075 -2.232,-0.653 -2.281,-0.733 -2.685,-1.37 -0.372,-0.577 -0.841,-1.915 -0.989,-2.382 -0.094,-0.291 -0.405,-0.456 -0.7,-0.361 -0.297,0.093 -0.461,0.405 -0.368,0.702 m -48.08,27.312 c -0.075,-0.238 -0.308,-0.397 -0.547,-0.387 -0.521,0.018 -0.835,-0.044 -1.014,-0.115 1.788,-1.262 3.409,-3.63 3.812,-5.643 0.294,-1.46 0.408,-1.849 0.438,-1.943 0.029,-0.048 0.039,-0.103 0.055,-0.158 0.357,-0.219 2.952,-1.783 4.553,-2.218 0.91,-0.241 1.771,-0.377 2.388,-0.453 -1.353,2.88 -2.591,6.136 -3.703,9.878 l -0.493,-2.237 c -0.055,-0.258 -0.282,-0.436 -0.545,-0.436 -0.264,0 -0.488,0.178 -0.547,0.436 l -1.417,6.373 c -1.154,0.482 -3.708,1.107 -5.385,1.463 -0.433,0.05 -1.099,-0.783 -1.271,-1.567 -0.06,-0.258 -0.044,-0.493 0.031,-0.517 1.274,-0.395 3.344,-1.781 3.429,-1.838 0.206,-0.141 0.295,-0.4 0.216,-0.638 m 24.49,44.467 c -0.119,0.709 -0.735,1.883 -3.053,3.423 -2.326,1.553 -3.414,3.701 -3.222,6.149 -1.098,-1.575 -1.585,-2.951 -1.446,-4.109 0.21,-1.705 1.75,-2.774 2.994,-3.636 0.174,-0.116 0.338,-0.231 0.496,-0.347 1.749,-1.256 2.089,-2.565 2.132,-3.264 0.637,0.275 1.268,0.529 1.885,0.759 0.016,0.081 0.05,0.164 0.104,0.234 0.006,0.001 0.189,0.287 0.11,0.791 m -5.597,30.568 c 0.021,-0.077 0.021,-0.158 0.005,-0.237 0.317,-0.636 0.567,-1.479 0.656,-2.593 0.005,0 0.011,0 0.021,0.004 1.564,0.123 3.017,0.117 4.428,-0.91 -0.063,0.681 -0.016,1.447 0.289,2.196 0.457,1.139 1.396,2.01 2.793,2.604 -0.109,0.24 -0.356,0.736 -0.925,1.678 -0.9,1.482 -3.141,1.564 -4.354,1.158 -3.494,-1.322 -2.943,-3.784 -2.913,-3.9 m -1.943,-6.6 c -0.021,-0.224 -0.056,-0.437 -0.1,-0.646 1.568,0.834 3.186,1.055 4.438,1.055 1.078,0 1.885,-0.159 2.172,-0.226 0.283,0.791 0.025,1.414 0.017,1.437 -0.039,0.092 -0.061,0.187 -0.051,0.279 -1.14,0.874 -2.297,0.874 -3.763,0.764 -1.774,-0.148 -2.337,-1.295 -2.362,-1.354 -0.067,-0.145 -0.191,-0.249 -0.338,-0.298 0.041,-0.309 0.036,-0.648 -0.013,-1.011 m 11.745,-23.676 c 1.391,0.323 2.316,0.459 2.426,0.472 0.024,0.005 0.055,0.005 0.079,0.005 0.099,0 0.2,-0.022 0.289,-0.072 0.193,-0.12 0.446,-0.274 1.263,-3.311 0.208,1.451 0.174,3.782 -1.158,6.645 -1.53,1.506 -3.647,3.117 -6.74,5.014 -0.078,0.057 -0.145,0.127 -0.188,0.204 -0.99,0.421 -2.764,1.776 -3.098,6.121 -0.334,2.48 -0.323,3.96 3.624,5.566 0.93,0.378 1.461,0.824 1.485,1.257 0.051,0.728 -1.148,1.662 -1.74,2.003 -0.124,0.071 -0.208,0.186 -0.247,0.318 -0.04,-0.313 -0.12,-0.65 -0.279,-1.004 -0.626,-1.385 -2.146,-2.46 -4.521,-3.183 -0.892,-0.271 -1.412,-0.714 -1.606,-1.345 -0.502,-1.677 1.332,-4.399 2.084,-5.309 0.034,-0.039 0.06,-0.083 0.078,-0.133 0.189,-0.195 0.239,-0.532 0.299,-0.986 0.184,-1.397 0.621,-4.672 3.997,-6.495 2.102,-1.135 3.389,-2.487 3.837,-4.013 0.196,-0.679 0.192,-1.282 0.116,-1.754 m -3.091,-0.857 c 0.66,0.213 1.288,0.396 1.869,0.549 0.104,0.285 0.27,0.938 0.033,1.751 -0.361,1.232 -1.471,2.351 -3.3,3.345 -3.191,1.721 -4.101,4.603 -4.424,6.367 -0.85,-2.255 -0.87,-4.995 2.277,-7.091 2.127,-1.419 3.313,-2.825 3.532,-4.177 0.048,-0.284 0.037,-0.531 0.013,-0.744 m -5.98,-2.62 c 0.546,0.316 1.1,0.609 1.65,0.882 -0.021,0.076 -0.021,0.155 0,0.235 0,0.018 0.213,1.289 -1.666,2.64 -0.153,0.114 -0.317,0.224 -0.481,0.344 -1.271,0.879 -2.987,2.064 -3.398,4.043 -0.643,-1.431 -0.815,-2.606 -0.519,-3.503 0.408,-1.23 1.686,-1.838 2.709,-2.332 l 0.232,-0.108 c 0.842,-0.401 1.338,-0.919 1.473,-1.536 0.055,-0.249 0.045,-0.474 0,-0.665 m 53.711,-54.744 c -0.212,0.211 -0.412,0.423 -0.575,0.635 -0.487,0.526 -0.965,1.021 -1.371,1.433 -0.029,0.032 -0.061,0.072 -0.08,0.115 -0.269,0.225 -0.602,0.514 -1.003,0.846 1.355,-2.98 2.206,-6.173 2.539,-7.537 l 3.012,1.35 c -0.453,0.769 -1.472,1.991 -2.522,3.158 m 1.258,5.111 c 0.071,0.333 0.385,1.457 1.479,2.045 0.89,0.467 2.008,0.435 3.32,-0.103 0.552,-0.217 0.954,-0.759 1.049,-1.411 0.094,-0.66 -0.146,-1.293 -0.617,-1.661 -0.407,-0.313 -1.147,-0.574 -2.386,-0.06 -0.282,0.12 -0.417,0.449 -0.304,0.734 0.124,0.28 0.45,0.415 0.736,0.301 0.571,-0.243 1.034,-0.273 1.269,-0.087 0.188,0.143 0.223,0.411 0.191,0.613 -0.035,0.254 -0.174,0.462 -0.352,0.532 -0.999,0.406 -1.802,0.456 -2.387,0.144 -0.682,-0.362 -0.876,-1.126 -0.909,-1.277 -0.07,-0.342 -0.358,-2.08 1.083,-2.612 1.348,-0.478 2.439,-0.468 3.251,0.033 1.241,0.768 1.48,2.47 1.48,2.47 0.14,1.387 -0.085,2.433 -0.661,3.113 -0.854,0.998 -2.386,1.088 -3.286,1.136 h -0.078 c -3.515,0 -4.435,-2.967 -4.629,-3.884 -0.228,-1.057 -0.313,-2.397 0.776,-3.784 0.185,-0.197 0.376,-0.405 0.57,-0.632 0.021,-0.014 0.035,-0.03 0.051,-0.043 1.556,-1.194 3.941,-1.234 5.269,-1.15 -0.441,0.477 -0.774,0.985 -0.953,1.277 -0.661,0 -1.389,0.136 -2.167,0.411 -1.795,0.665 -2.088,2.513 -1.795,3.895 m -9.071,6.966 c -0.07,-0.138 -0.185,-0.226 -0.313,-0.271 0.958,-0.617 1.799,-1.188 2.387,-1.634 l 1.857,3.533 c -0.846,0.292 -1.711,0.607 -2.604,0.943 -0.012,-0.022 -0.016,-0.044 -0.024,-0.065 z m -2.793,1.393 c -0.021,-0.028 -0.034,-0.055 -0.055,-0.078 0.61,-0.368 1.214,-0.746 1.795,-1.113 -0.012,0.104 0.006,0.208 0.061,0.308 l 1.271,2.456 c -0.616,0.237 -1.241,0.488 -1.875,0.739 z m -2.549,3.888 c -0.657,0.291 -1.322,0.583 -1.999,0.89 -0.18,-0.462 -0.473,-1.103 -0.876,-1.663 0.447,-0.258 1.113,-0.643 1.899,-1.108 z m -0.016,-2.457 c 0.501,-0.291 1.028,-0.609 1.565,-0.933 0,0.006 0.005,0.01 0.005,0.017 l 1.153,2.22 c -0.553,0.23 -1.113,0.463 -1.682,0.704 z m 23.149,-5.579 c 0.119,0.209 0.243,0.391 0.368,0.556 -3.067,0.521 -7.541,1.556 -13.157,3.46 l -2.257,-4.294 c -0.006,-0.006 -0.011,-0.006 -0.011,-0.01 -0.01,-0.022 -0.021,-0.034 -0.029,-0.051 -0.016,-0.016 -0.024,-0.028 -0.034,-0.045 -0.006,-0.004 -0.006,-0.01 -0.01,-0.015 -0.012,-0.006 -0.021,-0.016 -0.025,-0.019 -0.02,-0.018 -0.035,-0.031 -0.05,-0.047 -0.011,-0.006 -0.03,-0.018 -0.04,-0.024 -0.021,-0.011 -0.035,-0.02 -0.05,-0.03 -0.017,-0.008 -0.035,-0.014 -0.051,-0.019 -0.015,-0.006 -0.033,-0.016 -0.049,-0.016 -0.021,-0.004 -0.036,-0.012 -0.051,-0.012 -0.02,-0.005 -0.04,-0.01 -0.055,-0.01 h -0.056 c -0.016,0 -0.033,0 -0.055,0 -0.02,0.005 -0.034,0.01 -0.054,0.01 -0.021,0.008 -0.035,0.012 -0.051,0.018 -0.021,0.004 -0.04,0.015 -0.056,0.021 -0.014,0.008 -0.022,0.008 -0.033,0.012 -0.007,0.007 -0.012,0.007 -0.016,0.012 -0.016,0.011 -0.03,0.021 -0.045,0.031 -0.016,0.008 -0.035,0.023 -0.05,0.033 0,0.004 -0.005,0.011 -0.01,0.011 -1.75,1.614 -11.119,6.993 -11.216,7.048 -0.147,0.084 -0.252,0.236 -0.272,0.412 -0.023,0.176 0.035,0.345 0.16,0.467 0.791,0.796 1.248,2.331 1.252,2.348 0.05,0.158 0.159,0.284 0.303,0.351 0.075,0.038 0.156,0.051 0.235,0.051 0.078,0 0.158,-0.013 0.231,-0.051 14.008,-6.444 24.844,-8.644 28.819,-8.962 0.637,-0.038 1.308,-0.063 1.82,0.021 0.62,0.1 1.212,0.346 1.71,0.565 -16.977,2.693 -31.33,9.818 -34.357,11.393 -1.432,-3.95 -3.861,-5.985 -5.323,-6.901 9.876,-3.438 17.959,-9.783 20.853,-12.244 -0.067,0.742 0.024,1.417 0.145,1.979 0.501,2.314 2.268,4.771 5.722,4.771 0.04,0 0.085,0 0.13,0 1.093,-0.066 2.922,-0.17 4.086,-1.531 0.779,-0.926 1.093,-2.251 0.919,-3.962 -0.01,-0.09 -0.298,-2.241 -1.993,-3.295 -0.265,-0.159 -0.542,-0.285 -0.835,-0.373 0.458,-0.652 1.148,-1.405 1.725,-1.458 0.638,-0.055 1.581,0.549 2.223,1.085 l -0.959,1.015 c -0.213,0.225 -0.204,0.576 0.02,0.791 0.225,0.208 0.576,0.203 0.79,-0.022 l 1.244,-1.31 c 0.399,-0.079 0.948,-0.11 1.147,0.032 0.321,0.246 2.614,1.75 4.566,3.027 0.031,0.045 0.075,0.097 0.125,0.131 0.05,0.039 0.87,0.642 3.379,2.177 0.105,0.12 0.194,0.258 0.229,0.412 0.101,0.493 -0.338,1.074 -0.73,1.471 -1.093,1.119 -1.585,1.616 -1.828,1.87 -0.09,0.094 -0.145,0.147 -0.188,0.192 -0.129,-0.05 -0.323,-0.133 -0.482,-0.204 -0.547,-0.242 -1.307,-0.58 -2.132,-0.713 -0.229,-0.037 -0.473,-0.056 -0.725,-0.065 -0.018,-0.006 -0.035,-0.01 -0.062,-0.01 -0.185,-0.011 -0.467,-0.007 -0.836,0.02 -0.282,0.012 -0.572,0.029 -0.84,0.045 -0.561,0.034 -1.416,0.088 -1.604,0 -0.17,-0.109 -0.363,-0.356 -0.548,-0.687 -0.148,-0.268 -0.487,-0.368 -0.757,-0.219 -0.27,0.149 -0.364,0.487 -0.219,0.761 m -75.508,60.527 v 2.139 c -1.479,-0.071 -2.979,-0.105 -4.098,-0.062 -0.563,0.019 -1.118,0.083 -1.654,0.175 v -2.247 h 5.726 c 0.01,0 0.02,-0.005 0.026,-0.005 m -0.027,-1.113 h -6.005 c -0.407,0 -0.771,-0.184 -1.02,-0.468 -0.033,-0.086 -0.089,-0.155 -0.148,-0.209 -0.118,-0.197 -0.193,-0.432 -0.193,-0.686 0,-0.751 0.611,-1.363 1.361,-1.363 h 6.005 c 0.751,0 1.367,0.612 1.367,1.363 0,0.751 -0.616,1.363 -1.367,1.363 m 5.747,3.98 c 0.253,-0.135 0.525,-0.284 0.8,-0.467 l 0.149,-0.095 c 0.895,-0.577 1.675,-1.078 2.311,-2.911 0.165,-0.48 0.289,-0.921 0.354,-1.349 0.417,0.637 0.929,1.294 1.534,1.979 0.046,0.05 0.095,0.083 0.148,0.112 0.145,0.367 0.319,0.741 0.513,1.112 -0.632,0.822 -2.804,3.866 -2.123,6.131 0.304,1.009 1.095,1.714 2.347,2.091 1.477,0.453 2.586,1.051 3.256,1.755 -1.327,0.235 -5.199,0.57 -7.889,-2.886 0.35,-0.533 0.526,-1.179 0.571,-1.805 0,-0.02 0,-0.039 0,-0.061 -0.072,-2.239 -1.156,-3.198 -1.971,-3.606 m 1.421,12.347 c 0.606,-0.158 1.088,-0.427 1.432,-0.815 0.056,-0.053 0.1,-0.117 0.146,-0.184 0.294,0.412 0.89,1.038 1.928,1.377 -0.124,1.883 -0.755,3.153 -1.804,3.588 -0.637,0.263 -1.238,0.295 -1.715,0.246 0.438,-0.477 0.626,-1.069 0.734,-1.641 0.164,-1.133 -0.209,-1.984 -0.721,-2.571 m 0.88,10.817 c -0.244,-0.023 -0.551,-0.078 -0.864,-0.187 -0.21,-0.137 -0.427,-0.247 -0.661,-0.323 -0.175,-0.121 -0.334,-0.271 -0.473,-0.449 0.507,-0.665 0.562,-1.576 0.552,-2.479 -0.009,-1.098 -0.432,-1.859 -0.896,-2.363 0.011,-0.002 0.021,-0.008 0.03,-0.008 0.17,0.067 0.855,0.347 1.79,0.347 0.525,0 1.133,-0.089 1.77,-0.357 0.214,-0.089 0.468,-0.225 0.725,-0.423 0.182,1.099 0.881,2.59 3.117,3.6 -0.253,0.636 -0.895,1.782 -2.331,2.122 -0.006,0 -0.016,0.005 -0.019,0.005 -0.623,-0.373 -1.21,-0.96 -1.925,-1.898 -0.136,-0.18 -0.368,-0.259 -0.587,-0.2 -0.22,0.06 -0.379,0.24 -0.412,0.465 0.001,0.014 -0.129,0.969 0.184,2.148 m 28.005,-6.543 c -0.463,1.83 -1.427,3.213 -2.709,3.889 -1.169,0.62 -2.596,0.65 -4.136,0.088 -3.584,-1.306 -2.49,-5.745 -2.44,-5.935 0.016,-0.045 0.016,-0.093 0.016,-0.138 0.313,-0.5 0.609,-1.08 0.875,-1.759 l 0.288,-0.766 c 2.698,1.223 5.576,2.534 8.354,3.806 z m 2.014,12.741 c -1.785,0.558 -3.387,1.245 -4.461,1.749 0.22,-0.402 0.398,-0.855 0.504,-1.356 0.209,0.03 0.462,0.057 0.734,0.057 0.655,0 1.442,-0.146 2.079,-0.681 0.222,-0.186 0.422,-0.416 0.594,-0.657 0.127,0.338 0.311,0.64 0.55,0.888 m -0.478,-3.741 c -0.171,0.646 -0.646,2.03 -1.387,2.655 -0.593,0.499 -1.479,0.444 -1.983,0.36 -0.016,-0.745 -0.188,-1.57 -0.605,-2.474 -1.06,-2.293 -2.794,-3.609 -5.254,-3.975 l 0.201,-0.644 c 0.085,0.034 0.177,0.071 0.265,0.104 0.859,0.312 1.694,0.472 2.489,0.472 0.911,0 1.775,-0.207 2.551,-0.624 0.519,-0.271 0.99,-0.635 1.414,-1.065 -0.038,1.867 0.46,4.092 2.309,5.191 m 8.668,3.136 c -2.009,-0.638 -4.474,-0.373 -6.773,0.208 -0.016,-0.011 -0.03,-0.016 -0.052,-0.021 -1.173,-0.413 -1.013,-1.761 -0.889,-2.321 0.015,-0.089 0.01,-0.179 -0.011,-0.264 0.035,-0.109 0.064,-0.208 0.091,-0.295 0.04,0.012 0.067,0.022 0.108,0.038 0.744,0.197 1.436,0.297 2.082,0.297 1.441,0 2.625,-0.51 3.569,-1.536 0.023,0.762 0.178,1.606 0.608,2.402 0.308,0.587 0.736,1.077 1.267,1.492 m -0.448,-6.263 c 0.186,-0.46 0.351,-0.949 0.498,-1.48 l 0.146,-0.498 c 2.312,1.097 3.912,1.887 4.313,2.156 0.025,0.015 0.049,0.03 0.079,0.047 l 2.879,1.311 c -0.269,1.889 -0.93,3.25 -1.988,4.036 -1.174,0.88 -2.466,0.775 -2.873,0.715 -1.389,-0.361 -2.355,-1.048 -2.884,-2.03 -0.953,-1.776 -0.203,-3.987 -0.193,-4.009 0.023,-0.084 0.034,-0.171 0.023,-0.248 m -9.239,-3.989 c 0.229,-0.491 0.416,-1.019 0.563,-1.585 l 0.193,-0.641 c 2.986,1.372 5.811,2.678 8.098,3.752 l -0.188,0.675 c -1.06,3.855 -2.974,5.188 -6.208,4.311 -3.574,-0.958 -2.491,-6.01 -2.441,-6.227 0.018,-0.096 0.013,-0.195 -0.017,-0.285 m -3.594,-46.264 c 0.417,2.172 0.021,4.16 -0.392,5.453 -0.255,-1.586 -0.667,-3.165 -1.084,-4.768 l -0.09,-0.349 c -0.434,-1.68 -0.313,-2.918 0.361,-3.683 1.065,-1.21 3.241,-0.937 3.261,-0.937 0.051,0.011 0.1,0.011 0.146,0 0.069,0.021 0.144,0.043 0.213,0.055 -1.456,0.807 -2.807,2.195 -2.415,4.229 m 43.667,39.416 c -0.294,-0.593 -0.695,-1.054 -1.072,-1.411 0.839,0.407 1.659,0.824 2.46,1.252 -0.509,-0.024 -1.016,0.064 -1.388,0.159 m 2.707,2.956 c -0.247,0.185 -0.444,0.313 -0.584,0.398 -0.566,-0.251 -1.22,-0.349 -1.854,-0.257 0.193,-0.772 0.204,-1.446 0.095,-2.033 0.547,-0.131 1.237,-0.193 1.556,0.069 0.788,0.654 0.875,1.039 0.788,1.65 -0.02,0.059 -0.014,0.119 -10e-4,0.173 m -7.21,-2.394 v -0.005 c 0.083,-0.778 -0.02,-1.423 -0.244,-1.962 0.468,-0.105 1.604,-0.295 2.336,0.306 0.581,0.477 1.158,1.021 1.478,1.74 -0.005,0.088 0,0.18 0.034,0.257 0.031,0.083 0.068,0.141 0.12,0.195 0.17,0.65 0.134,1.43 -0.26,2.405 -0.015,0.039 -0.023,0.076 -0.029,0.114 -0.368,0.259 -0.706,0.608 -0.979,1.068 -0.01,0.018 -0.018,0.036 -0.031,0.056 l -0.117,-1.426 c 0,-0.015 -0.004,-0.037 -0.004,-0.055 -0.247,-1.308 -1.206,-2.146 -2.304,-2.693 m -4.082,0.841 c 0.075,-0.229 0.097,-0.465 0.079,-0.697 0.582,0.045 4.737,0.423 5.2,2.728 l 0.089,1.105 c -1.138,-0.598 -2.544,-0.617 -3.528,-0.458 -0.287,-1.283 -1.294,-1.994 -2.032,-2.276 0.079,-0.129 0.142,-0.264 0.192,-0.402 m 2.059,-4.684 0.078,-0.527 c 0.916,0.373 1.835,0.767 2.75,1.173 -0.855,-0.019 -1.558,0.209 -1.605,0.225 -0.021,0.007 -0.034,0.013 -0.055,0.024 -0.348,-0.39 -0.761,-0.687 -1.168,-0.895 m -3.5,1.283 c 0.16,-0.197 0.272,-0.433 0.349,-0.706 l 1.823,0.124 c 0.278,0.057 2.315,0.556 2.258,2.705 -1.441,-0.466 -2.818,-0.532 -2.934,-0.537 -0.095,-0.006 -0.188,0.021 -0.272,0.059 -0.335,-0.696 -0.876,-1.299 -1.224,-1.645 m -0.537,-3.061 c 0.045,-0.109 0.08,-0.219 0.104,-0.323 0.964,0.361 1.949,0.74 2.947,1.138 l -0.089,0.574 c -0.023,-0.006 -0.055,-0.012 -0.078,-0.018 -0.021,0 -0.047,-0.006 -0.065,-0.006 l -1.929,-0.129 c -0.165,-0.582 -0.567,-1.009 -0.89,-1.236 m -0.442,3.666 c 0.587,0.536 1.59,1.736 1.356,2.44 -0.104,0.313 -0.576,0.84 -2.549,1.035 -0.186,-1.141 -0.413,-2.216 -0.692,-3.219 0.791,-0.021 1.407,-0.103 1.885,-0.256 m -3.554,-4.011 c -0.408,-0.735 -0.853,-1.366 -1.322,-1.887 1.322,0.438 2.793,0.942 4.345,1.51 0.015,0.14 -0.017,0.398 -0.373,0.547 -0.453,0.188 -1.75,0.024 -2.65,-0.17 m 1.968,1.373 c 0.422,0 0.815,-0.051 1.113,-0.177 0.04,-0.012 0.075,-0.033 0.108,-0.049 0.03,0.025 0.061,0.047 0.096,0.066 0.075,0.037 0.701,0.437 0.526,1.156 -0.081,0.325 -0.188,0.772 -2.477,0.783 -0.218,-0.679 -0.457,-1.311 -0.72,-1.902 0.42,0.069 0.902,0.123 1.354,0.123 m 11.895,19.41 c -0.733,-0.68 -0.869,-1.869 -0.875,-1.882 -0.011,-0.076 -0.029,-0.152 -0.064,-0.215 0.04,-0.115 0.074,-0.225 0.109,-0.316 0.393,-1.18 1.317,-1.991 1.666,-2.271 0.34,0.011 1.013,-0.007 1.704,-0.237 0.214,0.99 0.507,4.344 -2.917,10.564 -0.289,-1.042 -0.937,-1.964 -1.646,-2.643 -0.706,-0.664 -0.638,-1.51 -0.542,-1.921 0.328,-0.363 0.65,-0.932 0.939,-1.528 0.185,0.428 0.457,0.893 0.864,1.27 0.108,0.1 0.242,0.149 0.377,0.149 0.155,0 0.304,-0.065 0.413,-0.181 0.211,-0.229 0.195,-0.58 -0.028,-0.789 m 3.459,-9.132 v 0.049 c 0.075,1.514 0.08,2.319 -0.66,2.809 -0.859,0.58 -2.068,0.473 -2.078,0.473 -0.13,-0.013 -0.259,0.018 -0.362,0.086 -0.063,0.044 -1.636,1.107 -2.246,2.946 -0.221,0.652 -0.482,1.305 -0.747,1.847 -0.033,-0.12 -0.107,-0.229 -0.214,-0.312 -0.139,-0.098 -0.316,-0.127 -0.48,-0.078 -1.044,0.293 -2.147,0.497 -2.729,0.514 0.021,-0.02 0.045,-0.051 0.069,-0.074 0.089,-0.093 0.199,-0.16 0.348,-0.261 0.282,-0.183 0.676,-0.436 1.202,-1.012 0.643,-0.696 1.22,-0.893 1.22,-0.893 0.145,-0.044 0.272,-0.148 0.337,-0.286 0.368,-0.762 1.536,-2.864 2.462,-3.486 0.253,-0.166 0.327,-0.511 0.158,-0.765 -0.006,-0.015 -0.852,-1.332 -0.125,-2.555 0.475,-0.8 1.158,-1.074 1.801,-1.074 0.433,0 0.845,0.131 1.144,0.298 0.158,0.09 0.348,0.096 0.512,0.021 0.021,-0.009 0.229,-0.11 0.58,-0.336 -0.127,0.651 -0.222,1.419 -0.192,2.089 m 1.889,-4.564 c -0.185,0.196 -0.353,0.384 -0.508,0.569 -0.1,-0.061 -0.208,-0.088 -0.317,-0.08 -0.055,-0.494 -0.248,-0.9 -0.547,-1.263 0.387,0.229 0.766,0.46 1.133,0.696 0.075,0.05 0.16,0.071 0.239,0.078 m 7.098,-6.158 c -0.039,-0.019 -0.079,-0.028 -0.118,-0.044 l -0.394,-0.094 c -1.272,-0.309 -2.068,-0.532 -2.382,-1.209 -0.01,-0.014 -0.014,-0.03 -0.023,-0.044 -0.12,-0.2 -0.237,-0.471 -0.145,-0.641 0.203,-0.353 1.193,-0.543 1.824,-0.543 0.104,0 0.197,-0.027 0.282,-0.076 0.469,0.374 0.954,0.728 1.438,1.063 1.074,0.768 2.093,1.487 2.36,2.271 0.085,0.23 0.3,0.378 0.531,0.378 0.062,0 0.119,-0.01 0.185,-0.036 0.289,-0.1 0.442,-0.418 0.344,-0.71 -0.389,-1.118 -1.546,-1.939 -2.774,-2.808 -0.783,-0.56 -1.591,-1.136 -2.261,-1.816 -0.541,-0.969 -0.477,-1.376 -0.428,-1.436 0.06,-0.071 0.497,-0.181 1.64,0.263 1.531,0.726 2.735,1.661 3.387,2.167 0.507,0.394 0.814,0.632 1.188,0.328 0.16,-0.135 0.289,-0.399 0.139,-0.722 -1.386,-3.369 -1.003,-4.269 -0.44,-4.712 0.074,-0.061 0.148,-0.078 0.249,-0.067 0.462,0.06 1.099,0.709 1.337,1.016 0.06,0.082 0.145,0.141 0.231,0.176 -0.067,0.542 -0.067,1.194 0,1.959 0.284,5.819 -0.896,9.355 -2.33,11.759 0.257,-3.775 -1.981,-5.457 -3.84,-6.422 m 1.815,-12.819 c 1.23,0.568 4.632,2.269 5.542,3.285 0.078,0.088 0.147,0.186 0.229,0.29 -0.164,0.019 -0.333,0.074 -0.492,0.17 -0.229,0.127 -0.412,0.328 -0.562,0.587 -0.378,-0.404 -1.059,-1.014 -1.795,-1.109 -0.397,-0.046 -0.771,0.053 -1.078,0.303 -1.174,0.916 -1.144,2.402 -0.522,4.334 -0.687,-0.488 -1.564,-1.054 -2.595,-1.541 -0.015,-0.005 -0.023,-0.011 -0.04,-0.016 -1.445,-0.561 -2.396,-0.55 -2.906,0.048 -0.502,0.58 -0.39,1.509 0.338,2.777 0.01,0.02 0.024,0.038 0.045,0.059 -0.035,0.005 -0.063,0.01 -0.101,0.017 -0.085,-0.05 -0.188,-0.083 -0.293,-0.075 l -22.254,0.65 c -0.035,0.005 -0.074,0.012 -0.108,0.017 -1.938,-0.68 -3.693,-1.249 -5.109,-1.695 1.49,-1.009 5.011,-3.361 6.427,-4.111 1.693,-0.886 2.694,-1.009 4.896,-0.594 0.289,0.051 0.577,0.137 0.88,0.22 2.416,0.691 4.37,0.712 7.486,-5.288 3.837,-6.702 4.114,-6.725 5.928,-6.882 l 0.105,-0.007 c 1.388,-0.12 4.768,4.208 6.14,6.748 -0.349,0.463 -0.453,0.955 -0.481,1.249 -0.023,0.237 0.101,0.458 0.32,0.564 m -97.758,28.991 c -0.167,-0.151 -0.337,-0.306 -0.506,-0.448 -2.049,-1.783 -2.805,-4.285 -3.467,-6.493 -0.591,-1.976 -1.098,-4.521 -1.436,-6.203 -0.056,-0.264 -0.105,-0.507 -0.146,-0.72 -0.202,-1.019 -0.272,-1.441 -0.337,-1.893 -0.064,-0.394 -0.125,-0.795 -0.278,-1.603 -0.497,-2.625 -0.129,-3.091 0.682,-4.113 0.021,-0.021 2.117,-2.605 4.289,-4.539 0.482,-0.435 0.84,-0.699 1.079,-0.856 0.238,0.219 0.517,0.389 0.829,0.502 v 2.557 c 0,0.023 0.006,0.051 0.006,0.073 -1.655,0.404 -2.889,0.954 -2.963,0.99 -0.278,0.129 -0.408,0.462 -0.278,0.74 0.13,0.276 0.462,0.407 0.741,0.276 0.03,-0.008 2.654,-1.202 5.308,-1.301 2.811,-0.104 8.029,0.28 8.903,0.527 0.616,0.175 1.65,0.766 1.725,2.769 -0.045,0.562 -0.282,1.778 -1.481,1.889 -0.212,0 -0.356,0.01 -0.376,0.01 -0.012,0 -0.021,0.005 -0.035,0.005 -2.4,0.045 -12.896,-0.108 -13.008,-0.115 h -0.012 c -0.304,0 -0.552,0.248 -0.558,0.554 0,0.313 0.245,0.565 0.553,0.565 0.402,0.005 8.271,0.126 11.845,0.126 0.741,0 1.299,-0.006 1.563,-0.017 0.024,-0.005 0.045,-0.005 0.063,-0.01 0.451,0.017 1.327,0.115 1.987,0.665 0.532,0.448 0.84,1.118 0.915,2 0.005,0.01 0.005,0.012 0.005,0.029 0.09,0.65 -0.01,1.149 -0.298,1.471 -0.362,0.409 -1.055,0.611 -2.07,0.591 -2.638,-0.044 -12.04,-0.482 -12.136,-0.488 h -0.029 c -0.292,0 -0.542,0.23 -0.557,0.532 -0.011,0.312 0.224,0.574 0.532,0.582 0.094,0.005 9.274,0.434 12.063,0.487 0.313,0.146 1.431,0.762 1.222,2.237 -0.138,0.697 -0.317,1.642 -2.353,1.642 -2.306,0 -8.102,-0.134 -8.155,-0.14 -0.313,-0.01 -0.566,0.237 -0.571,0.545 -0.01,0.312 0.234,0.569 0.542,0.574 0.055,0 5.234,0.122 7.769,0.139 0.025,0.015 0.056,0.033 0.086,0.045 0.015,0.004 1.365,0.552 1.383,2.197 0.009,1.431 -0.176,1.897 -0.866,2.161 -0.383,0.144 -1.694,0.17 -2.654,0.192 -0.779,0.017 -1.452,0.032 -1.874,0.088 -0.914,0.133 -2.053,0.455 -2.524,0.867 -0.229,0.209 -0.247,0.563 -0.044,0.791 0.108,0.124 0.263,0.188 0.418,0.188 0.133,0 0.268,-0.049 0.372,-0.143 0.175,-0.151 0.965,-0.458 1.938,-0.598 0.354,-0.048 1.029,-0.064 1.739,-0.08 0.493,-0.008 0.931,-0.018 1.317,-0.039 -0.662,0.412 -1.204,0.96 -1.485,1.515 -0.229,-0.106 -0.473,-0.187 -0.728,-0.216 -0.562,-0.071 -1.918,0.005 -2.938,2.021 -3.175,-0.86 -4.468,-2.014 -5.711,-3.127 m 3.118,6.096 c 0.055,0.702 0.506,2.028 2.887,3.082 0.349,0.202 0.706,0.788 1.238,1.661 0.531,0.877 1.223,2.012 2.301,3.434 -3.747,-3.026 -8.013,-7.01 -9.314,-9.598 -0.854,-1.7 -1.56,-3.424 -2.106,-4.898 0.203,0.214 0.413,0.415 0.642,0.615 0.164,0.143 0.328,0.295 0.491,0.442 1.173,1.049 2.48,2.216 5.324,3.126 -0.199,0.123 -0.424,0.264 -0.682,0.43 -0.539,0.346 -0.836,1.002 -0.781,1.706 m 10.347,4.383 c -0.089,0.054 -0.159,0.124 -0.209,0.209 -0.57,-1.114 -1.093,-2.305 -1.521,-3.565 0.005,-0.011 0.011,-0.017 0.021,-0.023 0.01,-0.013 1.104,-1.315 2.459,-1.548 0.587,-0.104 1.232,0.184 1.611,0.721 0.209,0.305 0.497,0.925 0.039,1.706 -0.927,1.609 -2.389,2.486 -2.4,2.5 m 2.302,4.184 c -0.716,-0.961 -1.417,-2.013 -2.058,-3.147 0.011,0 0.023,0 0.035,0 0.099,0 0.197,-0.022 0.281,-0.072 0.041,-0.022 0.549,-0.328 1.181,-0.905 -0.129,1.457 0.134,2.872 0.561,4.124 m 3.45,-12.209 c -1.734,-0.764 -2.376,-2.086 -2.605,-3.122 1.339,1.328 2.53,1.63 4.301,1.722 2.089,0.258 2.412,1.822 2.658,4.19 0.188,1.794 1.208,2.424 1.954,2.563 0.005,0.095 0.005,0.191 0.011,0.283 0.119,1.553 0.655,2.799 1.396,3.793 -0.337,-0.177 -0.704,-0.368 -1.097,-0.582 -4.555,-2.43 -4.386,-3.627 -4.215,-4.894 0.033,-0.204 0.06,-0.415 0.072,-0.637 0.159,-2.347 -1.291,-2.883 -2.475,-3.316 m 58.374,11.523 c -0.198,1.82 -0.69,3.764 -2.177,5.057 -0.065,0.059 -0.109,0.121 -0.141,0.193 -2.048,1.305 -4.239,2.613 -6.591,3.915 1.689,-1.815 3.455,-4.082 4.981,-6.455 0.01,-0.013 0.014,-0.026 0.02,-0.037 1.766,-3.2 3.486,-2.827 3.908,-2.673 m -2.102,-3.757 c 0.056,0.3 0.345,0.504 0.646,0.449 0.109,-0.018 1.068,-0.159 1.313,0.883 0.039,0.164 0.148,0.29 0.283,0.362 -0.01,0.302 -0.023,0.609 -0.044,0.937 -0.548,-0.124 -1.457,-0.163 -2.491,0.44 0.056,-1.485 -0.427,-2.141 -0.49,-2.217 -0.194,-0.245 -0.549,-0.278 -0.79,-0.082 -0.235,0.191 -0.275,0.544 -0.081,0.781 0.005,0.004 0.433,0.655 0.164,2.31 -0.01,0.068 -0.005,0.131 0.006,0.195 -0.226,0.235 -0.443,0.514 -0.667,0.827 -0.248,-0.472 -0.651,-1.001 -1.282,-1.414 -0.71,-0.455 -1.57,-0.681 -2.584,-0.669 0.039,-0.076 0.079,-0.153 0.104,-0.236 0.079,-0.234 -0.011,-0.499 -0.22,-0.641 -0.108,-0.066 -0.184,-0.117 -2.416,-0.471 0.742,-0.496 1.751,-1.264 3.01,-2.427 0.129,-0.115 0.192,-0.288 0.173,-0.455 -0.011,-0.175 -0.108,-0.33 -0.253,-0.422 -1.999,-1.285 -3.41,-1.92 -6.26,0.083 -1.004,0.707 -1.387,0.893 -2.594,0.971 -0.188,0.01 -0.403,-0.114 -0.746,-0.351 -0.135,-0.089 -0.271,-0.176 -0.428,-0.271 -0.203,-0.126 -0.448,-0.294 -0.745,-0.508 -0.633,-0.451 -1.485,-1.063 -2.783,-1.751 0.153,0.021 0.367,0.04 0.63,0.04 0.768,0 1.931,-0.17 3.014,-0.979 0.095,-0.069 0.185,-0.152 0.272,-0.234 0.006,1.194 0.305,2.639 1.473,3.681 0.104,0.087 0.237,0.136 0.372,0.136 0.154,0 0.303,-0.064 0.418,-0.187 0.203,-0.229 0.185,-0.587 -0.052,-0.79 -1.647,-1.457 -0.963,-4.251 -0.869,-4.6 0.35,-0.699 0.598,-1.525 0.752,-2.459 l 1.383,0.631 c 0.054,0.023 0.107,0.034 0.168,0.044 -0.011,0.061 -0.02,0.115 -0.029,0.182 l -0.016,0.128 c -0.168,1.615 -0.273,2.396 -0.84,2.56 -0.3,0.084 -0.467,0.394 -0.384,0.691 0.07,0.241 0.293,0.401 0.537,0.401 0.05,0 0.105,-0.006 0.153,-0.019 1.317,-0.379 1.456,-1.689 1.646,-3.516 l 0.016,-0.13 c 0.119,-1.133 0.722,-1.268 1.438,-1.322 1.42,-0.098 2.122,0.883 2.152,0.932 0.179,0.248 0.521,0.312 0.774,0.144 0.259,-0.175 0.323,-0.521 0.149,-0.78 -0.045,-0.061 -1.084,-1.551 -3.152,-1.408 -0.472,0.036 -1.529,0.115 -2.106,1.105 -0.016,-0.01 -0.024,-0.021 -0.044,-0.025 l -5.271,-2.406 c -2.065,-1.312 -24.038,-11.235 -28.799,-13.385 0.755,-0.631 1.188,-1.305 1.341,-1.882 0.036,-0.114 0.056,-0.223 0.064,-0.335 3.021,1.586 9.813,5.024 18.799,8.87 9.483,4.201 11.999,5.813 12.025,5.825 0.089,0.066 0.197,0.09 0.303,0.09 0.184,0 0.362,-0.09 0.467,-0.248 0.169,-0.264 0.1,-0.605 -0.163,-0.774 -0.096,-0.071 -2.564,-1.656 -12.188,-5.914 -10.145,-4.344 -17.478,-8.167 -19.719,-9.367 0.576,-0.168 1.05,-0.478 1.421,-0.934 0.971,-1.189 0.9,-2.998 0.831,-3.689 0.343,-0.266 0.638,-0.583 0.855,-0.961 1.333,-2.258 -0.169,-5.535 -0.239,-5.672 -0.045,-0.103 -0.114,-0.18 -0.198,-0.234 0.801,-0.499 1.451,-1.069 2.063,-1.716 3.852,-4.142 4.812,-7.862 4.617,-11.497 0.055,-0.044 0.104,-0.095 0.139,-0.165 0.08,-0.138 1.903,-3.571 1.108,-7.696 -0.228,-1.189 0.402,-2.039 1.192,-2.626 0.458,0.734 2.765,4.207 5.731,4.876 0.084,0.021 0.17,0.028 0.254,0.045 0,0.458 0.144,4.299 4.662,8.26 0.104,0.092 0.232,0.142 0.368,0.142 0.152,0 0.307,-0.065 0.418,-0.196 0.203,-0.226 0.183,-0.582 -0.051,-0.785 -3.963,-3.479 -4.256,-6.853 -4.273,-7.365 0.729,-0.071 1.44,-0.33 2.121,-0.786 0.02,-0.01 0.04,-0.025 0.054,-0.044 1.313,-1.157 1.543,-2.073 1.567,-2.172 0.059,-0.301 -0.125,-0.588 -0.418,-0.657 -0.298,-0.069 -0.598,0.115 -0.676,0.407 0,0.009 -0.181,0.667 -1.18,1.563 -0.829,0.547 -1.68,0.71 -2.594,0.504 -2.49,-0.564 -4.593,-3.681 -5.025,-4.354 0.683,-0.325 1.277,-0.479 1.339,-0.493 0.117,-0.029 0.213,-0.088 0.287,-0.169 0.655,-0.075 1.257,-0.23 1.783,-0.438 0.164,0.261 1.009,1.532 2.377,1.968 0.056,0.021 0.115,0.031 0.169,0.031 0.238,0 0.456,-0.153 0.536,-0.389 0.089,-0.291 -0.068,-0.609 -0.362,-0.706 -0.873,-0.282 -1.501,-1.098 -1.711,-1.405 0.424,-0.247 0.768,-0.527 1.023,-0.785 0.011,-0.012 0.021,-0.021 0.031,-0.025 2.122,-2.42 4.255,-2.596 6.139,-2.743 0.621,-0.051 1.207,-0.1 1.739,-0.225 2.172,-0.527 2.739,-1.674 3.459,-3.126 l 0.119,-0.243 c 0.771,-1.531 3.6,-3.823 3.625,-3.85 l 0.035,-0.028 c 0.213,-0.099 0.396,-0.195 0.562,-0.268 1.794,-0.89 4.175,-4.037 4.274,-4.17 0.095,-0.131 0.123,-0.284 0.099,-0.428 6.135,-2.17 11.521,-3.455 14.555,-4.091 0.044,1.75 0.188,6.933 0.309,8.761 0.01,1.094 0.854,3.908 1.745,6.888 0.224,0.747 0.446,1.489 0.65,2.189 0.005,0.015 0.01,0.024 0.017,0.042 0.987,2.651 1.962,5.903 1.817,6.517 -0.184,0.758 -0.557,1.548 -2.715,1.396 l -1.485,-0.407 c -0.174,-0.045 -0.357,-0.004 -0.502,0.109 -0.04,0.033 -1.05,0.886 -0.705,2.495 0.038,0.176 0.108,0.708 0.135,0.899 0.02,0.139 0.094,0.269 0.204,0.357 0.117,0.099 0.49,0.456 0.208,0.89 -0.389,0.599 -0.989,1.229 -1.271,1.512 -0.583,-0.344 -1.239,-0.508 -1.785,-0.486 -0.722,0.025 -3.355,-0.214 -4.305,-0.511 -0.294,-0.093 -0.606,0.078 -0.701,0.372 -0.089,0.292 0.074,0.605 0.368,0.695 1.103,0.343 3.887,0.595 4.682,0.562 0.653,-0.032 1.571,0.385 1.924,1.086 0.017,0.039 0.04,0.067 0.064,0.098 0.149,0.68 0.08,1.055 -0.064,1.12 -0.406,0.16 -1.393,0.115 -1.912,0.055 -0.199,-0.027 -0.394,0.056 -0.513,0.216 -0.117,0.163 -0.144,0.372 -0.069,0.557 0.005,0.012 0.303,0.715 0.521,2.188 0.145,0.973 0.458,4.198 -1.547,4.73 -1.795,0.477 -5.442,0.507 -7.857,0.527 -0.553,0.004 -1.04,0.01 -1.418,0.015 -2.29,0.051 -6.854,1.416 -7.754,6.209 -0.863,4.627 -0.763,13.283 -0.417,15.017 0.056,0.263 0.29,0.446 0.547,0.446 0.035,0 0.074,0 0.114,-0.008 0.298,-0.061 0.496,-0.356 0.432,-0.658 -0.144,-0.729 -0.241,-2.846 -0.229,-5.357 0.041,0.028 0.085,0.055 0.134,0.075 0.047,0.013 4.383,1.652 4.951,8.306 0.114,1.322 0.255,4.299 0.259,4.327 0.016,0.301 0.259,0.533 0.558,0.533 h 0.024 c 0.309,-0.014 0.547,-0.276 0.531,-0.583 -0.006,-0.121 -0.14,-3.032 -0.258,-4.378 -0.631,-7.35 -5.479,-9.186 -5.688,-9.259 -0.175,-0.064 -0.362,-0.03 -0.502,0.062 0.01,-0.752 0.03,-1.54 0.064,-2.331 0.401,0.122 1.191,0.351 2.271,0.679 0.492,0.209 1.269,0.6 2.188,1.33 2.022,1.611 4.19,6.542 4.464,13.919 0.006,0.175 0.089,0.323 0.219,0.423 -0.259,0.396 -0.422,0.878 -0.407,1.48 0.028,1.322 0.814,2.446 0.847,2.496 0.107,0.153 0.282,0.237 0.462,0.237 0.107,0 0.224,-0.034 0.316,-0.104 0.253,-0.172 0.313,-0.527 0.135,-0.774 -0.004,-0.01 -0.616,-0.909 -0.642,-1.882 -0.034,-1.438 1.69,-1.751 1.771,-1.767 0.299,-0.051 0.507,-0.333 0.457,-0.637 -0.05,-0.306 -0.333,-0.513 -0.642,-0.46 -0.393,0.061 -0.925,0.237 -1.418,0.555 -0.048,-1.086 -0.144,-2.156 -0.276,-3.182 0.999,-0.1 1.778,-0.297 2.355,-0.602 0.07,0.097 0.173,0.17 0.293,0.2 0.069,0.014 1.602,0.423 1.602,2.043 0,1.134 -0.418,1.994 -1.153,2.361 -0.277,0.133 -0.388,0.472 -0.254,0.744 0.1,0.201 0.3,0.314 0.503,0.314 0.084,0 0.168,-0.021 0.247,-0.06 1.02,-0.509 1.66,-1.611 1.761,-2.983 0.68,-0.118 3.534,-0.473 4.155,1.858 0.03,0.11 0.089,0.193 0.169,0.264 0.064,0.243 0.147,0.457 0.224,0.632 -1.048,0.954 -2.027,2.775 -2.352,3.41 -0.313,0.139 -0.879,0.462 -1.477,1.108 -0.428,0.472 -0.726,0.665 -0.983,0.836 -0.188,0.119 -0.357,0.233 -0.532,0.405 -0.218,0.214 -0.869,0.871 -0.502,1.497 0.134,0.225 0.518,0.885 3.579,0.109 l 0.04,0.91 c 0,0 0,0.005 0,0.011 -0.04,0.197 -0.074,0.451 -0.074,0.739 -1.015,-0.646 -2.113,-0.427 -2.68,-0.129 -0.27,0.14 -0.373,0.478 -0.233,0.745 0.146,0.274 0.478,0.384 0.75,0.245 0.129,-0.065 1.154,-0.537 2.014,0.49 -0.491,0.603 -1.427,1.914 -1.725,3.477 -0.611,-0.57 -1.451,-0.631 -1.943,-0.549 -0.304,0.052 -0.508,0.342 -0.454,0.651 m 33.09,-36.286 c -0.049,-0.354 -0.089,-0.656 -0.115,-0.962 0,-0.028 -0.004,-0.06 -0.014,-0.083 -0.368,-1.579 -1.354,-3.529 -3.894,-4.408 -0.029,-0.018 -0.063,-0.034 -0.099,-0.045 -0.03,-0.01 -0.343,-0.115 -0.86,-0.219 -0.021,0 -0.035,-0.005 -0.05,-0.011 -0.03,-0.006 -0.115,-0.023 -0.204,-0.169 -0.153,-0.232 -0.188,-0.611 -0.133,-0.825 0.133,-0.531 0.495,-0.871 1.066,-1.009 0.557,-0.136 1.18,-0.038 1.597,0.121 0.165,0.109 0.333,0.221 0.513,0.341 0.687,0.575 1.023,1.502 1.027,1.507 0.081,0.229 0.295,0.373 0.526,0.373 0.062,0 0.125,-0.011 0.189,-0.037 0.287,-0.099 0.441,-0.422 0.338,-0.709 -0.02,-0.05 -0.438,-1.218 -1.373,-1.994 -0.173,-0.188 -0.412,-0.347 -0.694,-0.473 -2.918,-1.964 -2.958,-2.234 -2.987,-2.847 0.01,-0.626 0.175,-1.032 0.481,-1.212 0.722,-0.429 2.228,0.198 2.699,0.45 0.055,0.03 0.11,0.047 0.164,0.061 1.704,1.518 2.987,4.221 2.614,10.03 -0.015,0.309 0.214,0.571 0.521,0.593 h 0.035 c 0.294,0 0.541,-0.225 0.562,-0.522 0.632,-9.851 -3.39,-11.61 -6.327,-12.895 -0.616,-0.269 -1.202,-0.526 -1.646,-0.823 -0.61,-0.42 -0.919,-0.815 -0.84,-1.11 0.149,-0.535 1.438,-1.192 3.267,-1.318 0.028,-0.004 0.064,-0.01 0.101,-0.017 4.602,-1.168 7.022,3.786 7.122,4 0.004,0.011 0.01,0.016 0.015,0.02 0.085,0.265 0.17,0.544 0.244,0.864 0.342,1.483 0.079,11.562 -3.431,20.156 l -0.353,0.876 c 0.386,-4.454 0.123,-6.352 -0.061,-7.704 M 149.825,93.023 c 8.028,-14.673 26.986,-38.954 63.724,-36.772 36.11,2.146 53.396,25.106 61.53,43.984 9.003,20.882 5.966,51.004 5.831,52.248 -1.019,1.124 -1.849,2.397 -2.276,3.613 -0.01,0.011 -0.01,0.02 -0.015,0.035 l -0.154,0.547 c -0.016,-0.044 -0.033,-0.088 -0.055,-0.131 -0.016,-0.038 -0.039,-0.083 -0.063,-0.114 -0.185,-0.247 -0.429,-0.467 -0.705,-0.66 v -0.015 c 0.033,-0.324 2.792,-33.92 -5.896,-54.081 C 260.497,75.575 240.843,61.516 213.33,59.88 c -1.44,-0.085 -2.892,-0.13 -4.313,-0.13 -32.057,0 -48.848,21.939 -56.011,35.018 -12.093,22.266 -8.928,59.799 -8.883,60.16 0.021,0.178 0.13,0.335 0.279,0.418 -0.293,0.263 -0.551,0.526 -0.761,0.761 -0.563,-0.946 -1.393,-1.846 -2.316,-2.642 0,-0.023 0,-0.043 -0.006,-0.066 -0.043,-0.368 -4.114,-37.153 8.506,-60.376 m 139.614,58.16 c -0.049,-0.684 -0.457,-1.244 -1.207,-1.672 -0.847,-0.481 -1.949,-0.499 -3.176,-0.039 -0.972,0.362 -1.979,1.003 -2.913,1.811 0.521,-6.235 2.122,-32.565 -6.035,-51.486 -5.318,-12.335 -12.63,-22.33 -21.74,-29.706 -11.081,-8.972 -24.795,-14.007 -40.755,-14.952 -15.622,-0.931 -29.674,2.848 -41.763,11.223 -11.598,8.04 -18.914,18.646 -23.011,26.125 -6.685,12.313 -8.679,28.262 -9.166,39.47 -0.431,9.837 0.185,17.847 0.438,20.577 -1.277,-0.899 -2.595,-1.562 -3.573,-1.82 -0.689,-0.183 -1.188,-0.152 -1.517,0.097 -1.382,1.067 -0.348,2.503 1.909,5.65 1.014,1.478 1.913,3.281 2.568,4.751 -0.402,-0.297 -0.795,-0.516 -1.167,-0.615 -0.646,-0.181 -1.09,0.012 -1.343,0.193 -1.293,0.948 -0.149,3.879 1.129,6.791 l 0.014,0.03 c 0.971,2.201 3.068,6.639 4.759,10.209 0.433,0.91 0.835,1.771 1.187,2.517 2.396,5.09 4.619,9.99 6.234,13.569 0.368,0.813 0.681,1.505 0.949,2.091 -0.095,-0.104 -0.186,-0.203 -0.265,-0.286 -1.571,-1.689 -3.86,-3.758 -5.854,-4.014 -1.094,-0.147 -2.777,0.071 -3.103,0.992 -0.099,0.292 -0.145,0.855 0.716,1.365 0.249,0.148 0.463,0.279 0.643,0.394 -0.079,0.051 -0.159,0.111 -0.238,0.183 -0.502,0.449 -0.727,1.135 -0.673,2.052 0.046,0.702 0.599,1.328 1.2,1.811 -0.679,0.064 -1.507,0.164 -2.417,0.328 -0.045,0.009 -0.09,0.026 -0.128,0.045 -1.264,0.569 -2.045,1.507 -2.192,2.625 -0.129,0.967 0.247,1.928 1.014,2.569 1.383,1.149 3.772,1.467 5.233,0.696 0.124,-0.066 0.239,-0.144 0.357,-0.23 1.766,2.09 3.093,1.553 3.376,1.397 2.561,-1.139 4.896,-0.259 6.6,0.383 l 0.031,0.017 c 0.943,0.357 2.415,1.251 3.786,2.168 -2.768,0.093 -5.005,2.23 -5.814,3.126 -1.208,1.317 -0.983,2.32 -0.61,3.121 0.229,0.487 0.682,0.715 1.139,0.813 -0.114,0.164 -0.243,0.324 -0.39,0.482 -0.89,0.965 -1.271,1.651 -1.152,2.102 0.056,0.23 0.259,0.4 0.498,0.422 0.033,0 0.615,0.038 1.277,0.038 0.348,0 0.721,-0.011 1.054,-0.038 0.253,-0.025 1.377,-0.049 2.684,-0.066 -0.029,0.094 -0.039,0.182 -0.039,0.248 0,0.641 0.438,1.941 1.606,2.704 1.306,0.854 3.181,1.024 4.655,0.423 0.606,-0.242 0.803,-0.386 1.158,-0.658 0.209,-0.158 0.474,-0.356 0.979,-0.69 1.145,-0.731 1.676,-0.714 3.29,-0.304 1.479,0.375 2.592,0.615 3.669,0.85 1.581,0.336 2.953,0.632 5.012,1.264 0.66,0.205 1.346,0.536 2.058,0.912 -1.228,0.369 -2.484,1.192 -2.66,2.822 -0.005,0.027 -0.005,0.05 -0.005,0.078 0.034,1.332 0.104,3.8 -0.229,4.117 -0.396,0.248 -0.517,0.727 -0.276,1.125 0.247,0.416 0.818,0.697 1.461,0.697 0.372,0 0.766,-0.09 1.133,-0.301 0.086,-0.045 0.164,-0.1 0.238,-0.154 0.278,0.365 1.358,1.623 3.122,1.623 1.268,0 1.84,-0.569 2.499,-1.224 0.423,-0.418 0.9,-0.896 1.701,-1.371 2.479,-1.491 4.404,-2.292 4.946,-2.292 0.113,0 0.213,-0.035 0.298,-0.09 0.387,0.082 0.784,0.164 1.192,0.23 v 5.09 c 0,0.31 0.248,0.563 0.562,0.563 h 4.097 v 0.374 c 0,0.309 0.248,0.555 0.557,0.555 h 2.246 c 0.007,0.026 0.011,0.055 0.021,0.086 l 1.301,3.912 c 0.076,0.228 0.289,0.381 0.532,0.381 h 16.198 c 0.234,0 0.442,-0.149 0.526,-0.367 l 1.442,-3.912 c 0.01,-0.033 0.02,-0.064 0.023,-0.1 h 1.406 c 0.309,0 0.563,-0.246 0.563,-0.555 v -1.354 h 3.488 c 0.309,0 0.558,-0.252 0.558,-0.555 v -3.466 c 1.461,0.915 3.647,2.323 4.638,3.187 0.898,0.779 1.962,1.068 3.103,1.068 1.162,0 2.415,-0.306 3.644,-0.678 1.521,-0.463 2.788,-0.913 3.494,-1.182 0.039,0.01 0.074,0.018 0.113,0.018 0.035,0 0.074,-0.005 0.114,-0.008 0.681,-0.141 1.292,-0.656 1.637,-1.382 0.276,-0.58 0.604,-1.81 -0.279,-3.485 -0.726,-1.355 -3.155,-1.867 -5.05,-2.063 0.904,-0.363 1.847,-0.764 2.817,-1.2 0.065,-0.03 6.429,-2.618 9.488,-2.618 0.926,0 1.775,0.159 2.68,0.336 2.068,0.389 4.414,0.828 8.027,-0.803 0.035,-0.014 0.071,-0.031 0.101,-0.055 1.045,-0.76 1.477,-1.5 1.313,-2.191 2.789,-1.785 4.259,-3.622 4.36,-5.481 0.103,-1.926 -1.31,-3.081 -1.47,-3.208 -0.02,-0.012 -0.037,-0.026 -0.058,-0.039 -0.518,-0.306 -1.06,-0.492 -1.616,-0.58 0.328,-0.488 0.627,-0.73 0.632,-0.737 0.015,-0.014 0.029,-0.024 0.05,-0.044 0.188,-0.19 4.718,-4.638 10.181,-2.654 1.371,0.452 2.713,0.274 3.429,-0.458 0.338,-0.347 0.497,-0.796 0.479,-1.279 0.322,0.061 0.7,0.137 1.128,0.221 1.054,0.196 2.003,-0.204 2.477,-1.028 0.532,-0.936 0.313,-2.183 -0.558,-3.17 -1.734,-1.99 -3.645,-3.268 -7.308,-2.989 -0.021,0.006 -0.034,0.006 -0.049,0.011 -0.672,0.11 -1.393,0.292 -2.139,0.551 0.736,-0.874 2.028,-2.076 4.141,-2.951 0.273,-0.114 0.646,-0.235 1.045,-0.357 1.455,-0.462 3.453,-1.099 4.056,-2.556 0.13,-0.313 0.185,-0.658 0.179,-1.005 1.064,-0.049 2.566,-0.497 2.699,-1.996 0.184,-1.984 -0.851,-3.5 -3.071,-4.52 -1.676,-0.771 -3.493,-0.258 -5.433,1.505 1.058,-3.453 3.737,-12.195 4.522,-14.652 0.606,-1.897 1.263,-3.477 1.785,-4.743 0.461,-1.103 0.824,-1.986 1.009,-2.704 0.259,-0.69 -0.021,-1.596 -0.65,-2.08 -0.209,-0.164 -0.435,-0.261 -0.667,-0.306 0.243,-0.867 1.272,-3.911 3.922,-5.403 0.023,-0.015 0.051,-0.022 0.069,-0.044 2.196,-1.721 3.18,-3.061 3.095,-4.218"
   id="path15" />

			<path
   fill="#003366"
   d="m 233.147,209.679 c -0.272,0.149 -0.373,0.49 -0.225,0.764 0.007,0.005 0.442,0.849 0.141,1.902 -0.085,0.297 0.089,0.604 0.383,0.697 0.055,0.01 0.104,0.017 0.154,0.017 0.242,0 0.467,-0.161 0.536,-0.406 0.433,-1.507 -0.204,-2.7 -0.232,-2.748 -0.145,-0.271 -0.488,-0.368 -0.757,-0.226"
   id="path16" />

			<path
   fill="#003366"
   d="m 215.432,224.435 c 0.375,0.34 1.243,0.817 2.178,0.817 0.135,0 0.273,-0.008 0.408,-0.03 0.745,-0.119 1.346,-0.56 1.744,-1.282 0.148,-0.27 0.05,-0.604 -0.219,-0.756 -0.27,-0.146 -0.611,-0.049 -0.763,0.22 -0.228,0.418 -0.536,0.651 -0.938,0.718 -0.63,0.101 -1.316,-0.234 -1.595,-0.463 -0.239,-0.388 -0.299,-0.736 -0.193,-1.063 0.242,-0.756 1.315,-1.319 1.709,-1.475 0.289,-0.108 0.434,-0.433 0.318,-0.718 -0.108,-0.29 -0.433,-0.437 -0.722,-0.325 -0.193,0.076 -1.918,0.772 -2.366,2.168 -0.153,0.467 -0.213,1.207 0.354,2.084 0.026,0.032 0.055,0.069 0.085,0.105"
   id="path17" />

			<path
   fill="#003366"
   d="m 203.573,217.997 c -0.283,0.131 -0.403,0.463 -0.274,0.744 0.125,0.277 0.458,0.399 0.74,0.273 0.628,-0.286 1.676,0.181 2.231,1.009 0.271,0.399 0.618,1.163 -0.104,1.849 -0.223,0.209 -0.231,0.569 -0.019,0.791 0.108,0.114 0.257,0.174 0.4,0.174 0.141,0 0.278,-0.055 0.389,-0.152 0.935,-0.889 1.034,-2.148 0.259,-3.284 -0.774,-1.151 -2.344,-1.992 -3.622,-1.404"
   id="path18" />

		</g>
  </g>
</svg>
