<?xml version="1.0" encoding="UTF-8" standalone="no"?>
<!-- Created with Inkscape (http://www.inkscape.org/) -->

<svg
   width="100mm"
   height="25mm"
   viewBox="0 0 100 25"
   version="1.1"
   id="svg1"
   inkscape:version="1.4.2 (ebf0e940d0, 2025-05-08)"
   sodipodi:docname="logo_programa_capa.svg"
   xmlns:inkscape="http://www.inkscape.org/namespaces/inkscape"
   xmlns:sodipodi="http://sodipodi.sourceforge.net/DTD/sodipodi-0.dtd"
   xmlns="http://www.w3.org/2000/svg"
   xmlns:svg="http://www.w3.org/2000/svg">
  <sodipodi:namedview
     id="namedview1"
     pagecolor="#ffffff"
     bordercolor="#000000"
     borderopacity="0.25"
     inkscape:showpageshadow="2"
     inkscape:pageopacity="0.0"
     inkscape:pagecheckerboard="0"
     inkscape:deskcolor="#d1d1d1"
     inkscape:document-units="mm"
     inkscape:zoom="3.1500561"
     inkscape:cx="208.72644"
     inkscape:cy="42.22147"
     inkscape:window-width="1920"
     inkscape:window-height="1048"
     inkscape:window-x="1920"
     inkscape:window-y="0"
     inkscape:window-maximized="1"
     inkscape:current-layer="layer1" />
  <defs
     id="defs1" />
  <g
     inkscape:label="Layer 1"
     inkscape:groupmode="layer"
     id="layer1">
    <g
       id="g1"
       transform="matrix(0.39745026,0,0,0.39745026,-6.8519657,-69.518571)"
       inkscape:export-filename="logo_programa.pdf"
       inkscape:export-xdpi="96"
       inkscape:export-ydpi="96">
      <g
         id="g594"
         transform="matrix(0.29847474,0,0,0.29847474,-12.393837,120.24666)">
        <g
           aria-label="Universidade Federal do Rio de Janeiro"
           transform="scale(0.89664154,1.1152729)"
           id="text999"
           style="font-size:46.147px;line-height:1.25;font-family:'Press Start 2P';-inkscape-font-specification:'Press Start 2P';stroke-width:1.15368">
          <g
             id="g428" />
        </g>
        <g
           id="g493">
          <g
             style="font-size:48.7518px;line-height:1.25;font-family:'Press Start 2P';-inkscape-font-specification:'Press Start 2P';fill:#29536f;fill-opacity:1;stroke-width:1.2188"
             id="text30"
             transform="scale(0.98153787,1.0188094)"
             aria-label="PROGRAMA">
            <path
               id="path241"
               style="font-style:normal;font-variant:normal;font-weight:normal;font-stretch:normal;font-family:'Envy Code R';-inkscape-font-specification:'Envy Code R';opacity:1;fill:#29536f;fill-opacity:1;stroke-width:1.2188"
               d="m 472.95072,245.31253 h -3.76113 V 211.4624 h 9.40282 q 1.95197,0 3.6659,0.73795 1.71393,0.73794 2.97558,2.02339 1.28544,1.26164 2.02339,2.97557 0.73794,1.71393 0.73794,3.66591 0,1.95197 -0.73794,3.6659 -0.73795,1.71393 -2.02339,2.99938 -1.26165,1.26164 -2.97558,1.99959 -1.71393,0.73794 -3.6659,0.73794 h -5.64169 z m 5.64169,-18.80563 q 1.16642,0 2.19002,-0.42848 1.02359,-0.45229 1.78534,-1.21403 0.78555,-0.78555 1.21404,-1.80915 0.45228,-1.0236 0.45228,-2.19002 0,-1.16643 -0.45228,-2.19003 -0.42849,-1.02359 -1.21404,-1.78534 -0.76175,-0.78555 -1.78534,-1.21403 -1.0236,-0.45229 -2.19002,-0.45229 h -5.64169 v 11.28337 z" />
            <path
               id="path243"
               style="font-style:normal;font-variant:normal;font-weight:normal;font-stretch:normal;font-family:'Envy Code R';-inkscape-font-specification:'Envy Code R';opacity:1;fill:#29536f;fill-opacity:1;stroke-width:1.2188"
               d="m 506.91987,230.02998 q 7.42703,15.21114 7.42703,15.28255 h -4.30863 q -7.33182,-14.97309 -7.33182,-15.0445 h -3.57068 v 15.0445 h -3.76113 V 211.4624 h 9.40281 q 1.95198,0 3.66591,0.73795 1.71393,0.73794 2.97557,2.02339 1.28545,1.26164 2.02339,2.97557 0.73795,1.71393 0.73795,3.66591 0,1.66632 -0.54751,3.16601 -0.5475,1.49969 -1.52349,2.71372 -0.97599,1.21403 -2.30905,2.071 -1.33305,0.85696 -2.88035,1.21403 z m -2.14242,-3.52308 q 1.16643,0 2.19003,-0.42848 1.02359,-0.45229 1.78534,-1.21403 0.78555,-0.78555 1.21403,-1.80915 0.45229,-1.0236 0.45229,-2.19002 0,-1.16643 -0.45229,-2.19003 -0.42848,-1.02359 -1.21403,-1.78534 -0.76175,-0.78555 -1.78534,-1.21403 -1.0236,-0.45229 -2.19003,-0.45229 h -5.64168 v 11.28337 z" />
            <path
               id="path245"
               style="font-style:normal;font-variant:normal;font-weight:normal;font-stretch:normal;font-family:'Envy Code R';-inkscape-font-specification:'Envy Code R';opacity:1;fill:#29536f;fill-opacity:1;stroke-width:1.2188"
               d="m 521.55969,220.86522 q 0,-1.95198 0.73794,-3.66591 0.73794,-1.71393 1.99959,-2.97557 1.28545,-1.28545 2.99938,-2.02339 1.71393,-0.73795 3.6659,-0.73795 1.95198,0 3.66591,0.73795 1.71393,0.73794 2.97557,2.02339 1.28545,1.26164 2.02339,2.97557 0.73795,1.71393 0.73795,3.66591 v 15.0445 q 0,1.95197 -0.73795,3.6659 -0.73794,1.71393 -2.02339,2.99938 -1.26164,1.26165 -2.97557,1.99959 -1.71393,0.73794 -3.66591,0.73794 -1.95197,0 -3.6659,-0.73794 -1.71393,-0.73794 -2.99938,-1.99959 -1.26165,-1.28545 -1.99959,-2.99938 -0.73794,-1.71393 -0.73794,-3.6659 z m 9.40281,-5.64169 q -1.16642,0 -2.19002,0.45229 -1.0236,0.42848 -1.80915,1.21403 -0.76174,0.76175 -1.21403,1.78534 -0.42848,1.0236 -0.42848,2.19003 v 15.0445 q 0,1.16642 0.42848,2.19002 0.45229,1.0236 1.21403,1.80915 0.78555,0.76175 1.80915,1.21403 1.0236,0.42849 2.19002,0.42849 1.16643,0 2.19003,-0.42849 1.02359,-0.45228 1.78534,-1.21403 0.78555,-0.78555 1.21403,-1.80915 0.45229,-1.0236 0.45229,-2.19002 v -15.0445 q 0,-1.16643 -0.45229,-2.19003 -0.42848,-1.02359 -1.21403,-1.78534 -0.76175,-0.78555 -1.78534,-1.21403 -1.0236,-0.45229 -2.19003,-0.45229 z" />
            <path
               id="path247"
               style="font-style:normal;font-variant:normal;font-weight:normal;font-stretch:normal;font-family:'Envy Code R';-inkscape-font-specification:'Envy Code R';opacity:1;fill:#29536f;fill-opacity:1;stroke-width:1.2188"
               d="m 562.78924,241.55141 q 0,0.71413 -0.59512,1.38066 -0.57131,0.66653 -1.42827,1.21404 -0.85697,0.5237 -1.85676,0.85696 -0.97599,0.30946 -1.76154,0.30946 -1.95198,0 -3.66591,-0.73794 -1.71393,-0.73794 -2.99937,-1.99959 -1.26165,-1.28545 -1.99959,-2.99938 -0.73794,-1.71393 -0.73794,-3.6659 v -15.0445 q 0,-1.95198 0.73794,-3.66591 0.73794,-1.71393 1.99959,-2.97557 1.28544,-1.28545 2.99937,-2.02339 1.71393,-0.73795 3.66591,-0.73795 1.71393,0 3.23742,0.57131 1.5235,0.57131 2.73753,1.59491 1.21404,0.99979 2.0472,2.38046 0.85696,1.38067 1.19023,2.97557 h -3.90396 q -0.28565,-0.80935 -0.80935,-1.49969 -0.5237,-0.69033 -1.21404,-1.19022 -0.69033,-0.4999 -1.52349,-0.78556 -0.83316,-0.28565 -1.76154,-0.28565 -1.16642,0 -2.19002,0.45229 -1.0236,0.42848 -1.80915,1.21403 -0.76175,0.76175 -1.21403,1.78534 -0.42849,1.0236 -0.42849,2.19003 v 15.0445 q 0,1.16642 0.42849,2.19002 0.45228,1.0236 1.21403,1.80915 0.78555,0.76175 1.80915,1.21403 1.0236,0.42849 2.19002,0.42849 1.14262,0 2.16622,-0.61892 1.0236,-0.61892 1.78534,-1.49969 0.78555,-0.88077 1.23784,-1.83296 0.45229,-0.97598 0.45229,-1.69012 v -5.64169 h -3.76113 v -3.76113 h 7.52225 v 18.80563 h -3.76112 z" />
            <path
               id="path249"
               style="font-style:normal;font-variant:normal;font-weight:normal;font-stretch:normal;font-family:'Envy Code R';-inkscape-font-specification:'Envy Code R';opacity:1;fill:#29536f;fill-opacity:1;stroke-width:1.2188"
               d="m 585.47501,230.02998 q 7.42704,15.21114 7.42704,15.28255 h -4.30863 q -7.33182,-14.97309 -7.33182,-15.0445 h -3.57069 v 15.0445 h -3.76112 V 211.4624 h 9.40281 q 1.95198,0 3.66591,0.73795 1.71393,0.73794 2.97557,2.02339 1.28545,1.26164 2.02339,2.97557 0.73794,1.71393 0.73794,3.66591 0,1.66632 -0.5475,3.16601 -0.54751,1.49969 -1.52349,2.71372 -0.97599,1.21403 -2.30905,2.071 -1.33306,0.85696 -2.88036,1.21403 z m -2.14241,-3.52308 q 1.16643,0 2.19002,-0.42848 1.0236,-0.45229 1.78535,-1.21403 0.78555,-0.78555 1.21403,-1.80915 0.45229,-1.0236 0.45229,-2.19002 0,-1.16643 -0.45229,-2.19003 -0.42848,-1.02359 -1.21403,-1.78534 -0.76175,-0.78555 -1.78535,-1.21403 -1.02359,-0.45229 -2.19002,-0.45229 h -5.64169 v 11.28337 z" />
            <path
               id="path251"
               style="font-style:normal;font-variant:normal;font-weight:normal;font-stretch:normal;font-family:'Envy Code R';-inkscape-font-specification:'Envy Code R';opacity:1;fill:#29536f;fill-opacity:1;stroke-width:1.2188"
               d="m 600.11484,220.86522 q 0,-1.95198 0.73794,-3.66591 0.73794,-1.71393 1.99959,-2.97557 1.28544,-1.28545 2.99938,-2.02339 1.71393,-0.73795 3.6659,-0.73795 1.95198,0 3.66591,0.73795 1.71393,0.73794 2.97557,2.02339 1.28545,1.26164 2.02339,2.97557 0.73795,1.71393 0.73795,3.66591 v 24.44731 h -3.76113 v -15.0445 h -11.28338 v 15.0445 h -3.76112 z m 15.0445,5.64168 v -5.64168 q 0,-1.16643 -0.45229,-2.19003 -0.42848,-1.02359 -1.21403,-1.78534 -0.76175,-0.78555 -1.78535,-1.21403 -1.02359,-0.45229 -2.19002,-0.45229 -1.16642,0 -2.19002,0.45229 -1.0236,0.42848 -1.80915,1.21403 -0.76175,0.76175 -1.21403,1.78534 -0.42849,1.0236 -0.42849,2.19003 v 5.64168 z" />
            <path
               id="path253"
               style="font-style:normal;font-variant:normal;font-weight:normal;font-stretch:normal;font-family:'Envy Code R';-inkscape-font-specification:'Envy Code R';opacity:1;fill:#29536f;fill-opacity:1;stroke-width:1.2188"
               d="m 641.34438,218.98465 -5.64168,9.8551 -5.64169,-9.8551 v 26.32788 h -3.76113 V 211.4624 h 3.76113 l 5.64169,11.28338 5.64168,-11.28338 h 3.76113 v 33.85013 h -3.76113 z" />
            <path
               id="path255"
               style="font-style:normal;font-variant:normal;font-weight:normal;font-stretch:normal;font-family:'Envy Code R';-inkscape-font-specification:'Envy Code R';opacity:1;fill:#29536f;fill-opacity:1;stroke-width:1.2188"
               d="m 652.48494,220.86522 q 0,-1.95198 0.73794,-3.66591 0.73795,-1.71393 1.99959,-2.97557 1.28545,-1.28545 2.99938,-2.02339 1.71393,-0.73795 3.6659,-0.73795 1.95198,0 3.66591,0.73795 1.71393,0.73794 2.97557,2.02339 1.28545,1.26164 2.0234,2.97557 0.73794,1.71393 0.73794,3.66591 v 24.44731 h -3.76113 v -15.0445 h -11.28337 v 15.0445 h -3.76113 z m 15.0445,5.64168 v -5.64168 q 0,-1.16643 -0.45229,-2.19003 -0.42848,-1.02359 -1.21403,-1.78534 -0.76175,-0.78555 -1.78534,-1.21403 -1.0236,-0.45229 -2.19003,-0.45229 -1.16642,0 -2.19002,0.45229 -1.0236,0.42848 -1.80915,1.21403 -0.76174,0.76175 -1.21403,1.78534 -0.42848,1.0236 -0.42848,2.19003 v 5.64168 z" />
          </g>
          <g
             style="font-size:47.4585px;line-height:1.25;font-family:'Press Start 2P';-inkscape-font-specification:'Press Start 2P';word-spacing:-16.4626px;fill:#29536f;fill-opacity:1;stroke-width:1.18646"
             id="text30-8"
             transform="scale(0.9554976,1.0465751)"
             aria-label="DE PÓS-GRADUAÇÃO">
            <path
               id="path258"
               style="font-style:normal;font-variant:normal;font-weight:normal;font-stretch:normal;font-family:'Envy Code R';-inkscape-font-specification:'Envy Code R';fill:#29536f;fill-opacity:1;stroke-width:1.18646"
               d="m 483.27957,260.13712 h 9.15338 q 1.90019,0 3.56865,0.71837 1.66847,0.71836 2.89664,1.96971 1.25135,1.22818 1.96971,2.89664 0.71837,1.66846 0.71837,3.56865 v 14.6454 q 0,1.90019 -0.71837,3.56866 -0.71836,1.66846 -1.96971,2.91981 -1.22817,1.22817 -2.89664,1.94654 -1.66846,0.71836 -3.56865,0.71836 h -9.15338 z m 9.15338,29.29079 q 1.13548,0 2.13192,-0.41711 0.99644,-0.44029 1.73798,-1.18183 0.76472,-0.76471 1.18183,-1.76115 0.44029,-0.99645 0.44029,-2.13193 v -14.6454 q 0,-1.13548 -0.44029,-2.13192 -0.41711,-0.99644 -1.18183,-1.73798 -0.74154,-0.76471 -1.73798,-1.18183 -0.99644,-0.44029 -2.13192,-0.44029 h -5.49203 v 25.62944 z" />
            <path
               id="path260"
               style="font-style:normal;font-variant:normal;font-weight:normal;font-stretch:normal;font-family:'Envy Code R';-inkscape-font-specification:'Envy Code R';fill:#29536f;fill-opacity:1;stroke-width:1.18646"
               d="m 508.76998,260.13712 h 18.30675 v 3.66135 h -14.6454 v 10.98405 h 10.98405 v 3.66135 h -10.98405 v 10.98404 h 14.6454 v 3.66135 h -18.30675 z" />
            <path
               id="path262"
               style="font-style:normal;font-variant:normal;font-weight:normal;font-stretch:normal;font-family:'Envy Code R';-inkscape-font-specification:'Envy Code R';fill:#29536f;fill-opacity:1;stroke-width:1.18646"
               d="m 546.94954,293.08926 h -3.66135 v -32.95214 h 9.15337 q 1.9002,0 3.56866,0.71837 1.66846,0.71836 2.89664,1.96971 1.25135,1.22818 1.96971,2.89664 0.71837,1.66846 0.71837,3.56865 0,1.9002 -0.71837,3.56866 -0.71836,1.66846 -1.96971,2.91981 -1.22818,1.22818 -2.89664,1.94654 -1.66846,0.71837 -3.56866,0.71837 h -5.49202 z m 5.49202,-18.30674 q 1.13549,0 2.13193,-0.41712 0.99644,-0.44029 1.73798,-1.18183 0.76471,-0.76471 1.18183,-1.76115 0.44029,-0.99644 0.44029,-2.13193 0,-1.13548 -0.44029,-2.13192 -0.41712,-0.99644 -1.18183,-1.73798 -0.74154,-0.76471 -1.73798,-1.18183 -0.99644,-0.44029 -2.13193,-0.44029 h -5.49202 v 10.98405 z" />
            <path
               id="path264"
               style="font-style:normal;font-variant:normal;font-weight:normal;font-stretch:normal;font-family:'Envy Code R';-inkscape-font-specification:'Envy Code R';fill:#29536f;fill-opacity:1;stroke-width:1.18646"
               d="m 568.7786,269.29049 q 0,-1.90019 0.71836,-3.56865 0.71837,-1.66846 1.94654,-2.89664 1.25135,-1.25135 2.91981,-1.96971 1.66847,-0.71837 3.56866,-0.71837 1.90019,0 3.56866,0.71837 1.66846,0.71836 2.89663,1.96971 1.25135,1.22818 1.96972,2.89664 0.71836,1.66846 0.71836,3.56865 v 14.6454 q 0,1.90019 -0.71836,3.56866 -0.71837,1.66846 -1.96972,2.91981 -1.22817,1.22817 -2.89663,1.94654 -1.66847,0.71836 -3.56866,0.71836 -1.90019,0 -3.56866,-0.71836 -1.66846,-0.71837 -2.91981,-1.94654 -1.22817,-1.25135 -1.94654,-2.91981 -0.71836,-1.66847 -0.71836,-3.56866 z m 9.15337,-5.49202 q -1.13548,0 -2.13192,0.44029 -0.99645,0.41712 -1.76116,1.18183 -0.74154,0.74154 -1.18183,1.73798 -0.41711,0.99644 -0.41711,2.13192 v 14.6454 q 0,1.13548 0.41711,2.13193 0.44029,0.99644 1.18183,1.76115 0.76471,0.74154 1.76116,1.18183 0.99644,0.41711 2.13192,0.41711 1.13548,0 2.13193,-0.41711 0.99644,-0.44029 1.73798,-1.18183 0.76471,-0.76471 1.18183,-1.76115 0.44028,-0.99645 0.44028,-2.13193 v -14.6454 q 0,-1.13548 -0.44028,-2.13192 -0.41712,-0.99644 -1.18183,-1.73798 -0.74154,-0.76471 -1.73798,-1.18183 -0.99645,-0.44029 -2.13193,-0.44029 z m -3.66135,-7.3227 -1.83067,-1.83067 9.15337,-5.49203 1.83067,1.83068 z" />
            <path
               id="path266"
               style="font-style:normal;font-variant:normal;font-weight:normal;font-stretch:normal;font-family:'Envy Code R';-inkscape-font-specification:'Envy Code R';fill:#29536f;fill-opacity:1;stroke-width:1.18646"
               d="m 597.93035,269.29049 q 0,1.13549 0.41711,2.13193 0.44029,0.99644 1.18183,1.76115 0.76471,0.74154 1.76116,1.18183 0.99644,0.41712 2.13192,0.41712 1.9002,0 3.56866,0.71836 1.66846,0.71837 2.89664,1.96972 1.25134,1.22817 1.96971,2.89663 0.71837,1.66847 0.71837,3.56866 0,1.90019 -0.71837,3.56866 -0.71837,1.66846 -1.96971,2.91981 -1.22818,1.22817 -2.89664,1.94654 -1.66846,0.71836 -3.56866,0.71836 H 594.269 v -3.66135 h 9.15337 q 1.13548,0 2.13193,-0.41711 0.99644,-0.44029 1.73798,-1.18183 0.76471,-0.76471 1.18183,-1.76115 0.44029,-0.99645 0.44029,-2.13193 0,-1.13548 -0.44029,-2.13192 -0.41712,-0.99645 -1.18183,-1.73799 -0.74154,-0.76471 -1.73798,-1.18182 -0.99645,-0.44029 -2.13193,-0.44029 -1.90019,0 -3.56865,-0.71837 -1.66847,-0.71836 -2.91981,-1.94654 -1.22818,-1.25135 -1.94654,-2.91981 -0.71837,-1.66846 -0.71837,-3.56866 0,-1.90019 0.71837,-3.56865 0.71836,-1.66846 1.94654,-2.89664 1.25134,-1.25135 2.91981,-1.96971 1.66846,-0.71837 3.56865,-0.71837 h 9.15338 v 3.66135 h -9.15338 q -1.13548,0 -2.13192,0.44029 -0.99645,0.41712 -1.76116,1.18183 -0.74154,0.74154 -1.18183,1.73798 -0.41711,0.99644 -0.41711,2.13192 z" />
            <path
               id="path268"
               style="font-style:normal;font-variant:normal;font-weight:normal;font-stretch:normal;font-family:'Envy Code R';-inkscape-font-specification:'Envy Code R';fill:#29536f;fill-opacity:1;stroke-width:1.18646"
               d="m 619.7594,274.78252 h 18.30675 v 3.66135 H 619.7594 Z" />
            <path
               id="path270"
               style="font-style:normal;font-variant:normal;font-weight:normal;font-stretch:normal;font-family:'Envy Code R';-inkscape-font-specification:'Envy Code R';fill:#29536f;fill-opacity:1;stroke-width:1.18646"
               d="m 659.89522,289.42791 q 0,0.6952 -0.57933,1.34404 -0.55616,0.64885 -1.39039,1.18183 -0.83423,0.50981 -1.8075,0.83423 -0.9501,0.30125 -1.71481,0.30125 -1.90019,0 -3.56865,-0.71836 -1.66847,-0.71837 -2.91981,-1.94654 -1.22818,-1.25135 -1.94654,-2.91981 -0.71837,-1.66847 -0.71837,-3.56866 v -14.6454 q 0,-1.90019 0.71837,-3.56865 0.71836,-1.66846 1.94654,-2.89664 1.25134,-1.25135 2.91981,-1.96971 1.66846,-0.71837 3.56865,-0.71837 1.66847,0 3.15154,0.55616 1.48308,0.55615 2.66491,1.55259 1.18183,0.97327 1.99289,2.31731 0.83423,1.34404 1.15865,2.89664 h -3.80039 q -0.27807,-0.78789 -0.78788,-1.4599 -0.50981,-0.67202 -1.18183,-1.15866 -0.67202,-0.48663 -1.48308,-0.76471 -0.81106,-0.27808 -1.71481,-0.27808 -1.13548,0 -2.13192,0.44029 -0.99645,0.41712 -1.76116,1.18183 -0.74154,0.74154 -1.18183,1.73798 -0.41711,0.99644 -0.41711,2.13192 v 14.6454 q 0,1.13548 0.41711,2.13193 0.44029,0.99644 1.18183,1.76115 0.76471,0.74154 1.76116,1.18183 0.99644,0.41711 2.13192,0.41711 1.11231,0 2.10875,-0.6025 0.99645,-0.6025 1.73799,-1.4599 0.76471,-0.85741 1.205,-1.78433 0.44029,-0.9501 0.44029,-1.64529 v -5.49202 h -3.66135 v -3.66135 h 7.3227 v 18.30674 h -3.66135 z" />
            <path
               id="path272"
               style="font-style:normal;font-variant:normal;font-weight:normal;font-stretch:normal;font-family:'Envy Code R';-inkscape-font-specification:'Envy Code R';fill:#29536f;fill-opacity:1;stroke-width:1.18646"
               d="m 681.97917,278.21214 q 7.23001,14.8076 7.23001,14.87712 h -4.19433 q -7.13731,-14.57587 -7.13731,-14.64539 h -3.47597 v 14.64539 h -3.66135 v -32.95214 h 9.15337 q 1.9002,0 3.56866,0.71837 1.66846,0.71836 2.89664,1.96971 1.25135,1.22818 1.96971,2.89664 0.71837,1.66846 0.71837,3.56865 0,1.62212 -0.53298,3.08203 -0.53299,1.4599 -1.48308,2.64173 -0.9501,1.18183 -2.24779,2.01606 -1.2977,0.83423 -2.80395,1.18183 z m -2.08558,-3.42962 q 1.13549,0 2.13193,-0.41712 0.99644,-0.44029 1.73798,-1.18183 0.76471,-0.76471 1.18183,-1.76115 0.44029,-0.99644 0.44029,-2.13193 0,-1.13548 -0.44029,-2.13192 -0.41712,-0.99644 -1.18183,-1.73798 -0.74154,-0.76471 -1.73798,-1.18183 -0.99644,-0.44029 -2.13193,-0.44029 h -5.49202 v 10.98405 z" />
            <path
               id="path274"
               style="font-style:normal;font-variant:normal;font-weight:normal;font-stretch:normal;font-family:'Envy Code R';-inkscape-font-specification:'Envy Code R';fill:#29536f;fill-opacity:1;stroke-width:1.18646"
               d="m 696.23062,269.29049 q 0,-1.90019 0.71837,-3.56865 0.71837,-1.66846 1.94654,-2.89664 1.25135,-1.25135 2.91981,-1.96971 1.66846,-0.71837 3.56866,-0.71837 1.90019,0 3.56865,0.71837 1.66847,0.71836 2.89664,1.96971 1.25135,1.22818 1.96971,2.89664 0.71837,1.66846 0.71837,3.56865 v 23.79877 h -3.66135 v -14.64539 h -10.98405 v 14.64539 h -3.66135 z m 14.6454,5.49203 v -5.49203 q 0,-1.13548 -0.44029,-2.13192 -0.41711,-0.99644 -1.18183,-1.73798 -0.74154,-0.76471 -1.73798,-1.18183 -0.99644,-0.44029 -2.13192,-0.44029 -1.13548,0 -2.13193,0.44029 -0.99644,0.41712 -1.76115,1.18183 -0.74154,0.74154 -1.18183,1.73798 -0.41712,0.99644 -0.41712,2.13192 v 5.49203 z" />
            <path
               id="path276"
               style="font-style:normal;font-variant:normal;font-weight:normal;font-stretch:normal;font-family:'Envy Code R';-inkscape-font-specification:'Envy Code R';fill:#29536f;fill-opacity:1;stroke-width:1.18646"
               d="m 721.72104,260.13712 h 9.15337 q 1.9002,0 3.56866,0.71837 1.66846,0.71836 2.89664,1.96971 1.25135,1.22818 1.96971,2.89664 0.71837,1.66846 0.71837,3.56865 v 14.6454 q 0,1.90019 -0.71837,3.56866 -0.71836,1.66846 -1.96971,2.91981 -1.22818,1.22817 -2.89664,1.94654 -1.66846,0.71836 -3.56866,0.71836 h -9.15337 z m 9.15337,29.29079 q 1.13549,0 2.13193,-0.41711 0.99644,-0.44029 1.73798,-1.18183 0.76471,-0.76471 1.18183,-1.76115 0.44029,-0.99645 0.44029,-2.13193 v -14.6454 q 0,-1.13548 -0.44029,-2.13192 -0.41712,-0.99644 -1.18183,-1.73798 -0.74154,-0.76471 -1.73798,-1.18183 -0.99644,-0.44029 -2.13193,-0.44029 h -5.49202 v 25.62944 z" />
            <path
               id="path278"
               style="font-style:normal;font-variant:normal;font-weight:normal;font-stretch:normal;font-family:'Envy Code R';-inkscape-font-specification:'Envy Code R';fill:#29536f;fill-opacity:1;stroke-width:1.18646"
               d="m 747.21143,260.13712 h 3.66135 v 23.79877 q 0,1.13548 0.41711,2.13193 0.44029,0.99644 1.18183,1.76115 0.76471,0.74154 1.76116,1.18183 0.99644,0.41711 2.13192,0.41711 1.13548,0 2.13193,-0.41711 0.99644,-0.44029 1.73798,-1.18183 0.76471,-0.76471 1.18183,-1.76115 0.44028,-0.99645 0.44028,-2.13193 v -23.79877 h 3.66135 v 23.79877 q 0,1.90019 -0.71836,3.56866 -0.71837,1.66846 -1.96972,2.91981 -1.22817,1.22817 -2.89663,1.94654 -1.66846,0.71836 -3.56866,0.71836 -1.90019,0 -3.56866,-0.71836 -1.66846,-0.71837 -2.91981,-1.94654 -1.22817,-1.25135 -1.94654,-2.91981 -0.71836,-1.66847 -0.71836,-3.56866 v -9.15337 z" />
            <path
               id="path280"
               style="font-style:normal;font-variant:normal;font-weight:normal;font-stretch:normal;font-family:'Envy Code R';-inkscape-font-specification:'Envy Code R';fill:#29536f;fill-opacity:1;stroke-width:1.18646"
               d="m 772.70185,269.29049 q 0,-1.90019 0.71836,-3.56865 0.71837,-1.66846 1.94654,-2.89664 1.25135,-1.25135 2.91981,-1.96971 1.66846,-0.71837 3.56866,-0.71837 1.90019,0 3.56866,0.71837 1.66846,0.71836 2.89663,1.96971 1.25135,1.22818 1.96972,2.89664 0.71836,1.66846 0.71836,3.56865 v 23.79877 h -3.66135 V 278.44387 H 776.3632 v 14.64539 h -3.66135 z m 14.64539,5.49203 v -5.49203 q 0,-1.13548 -0.44029,-2.13192 -0.41711,-0.99644 -1.18182,-1.73798 -0.74154,-0.76471 -1.73799,-1.18183 -0.99644,-0.44029 -2.13192,-0.44029 -1.13548,0 -2.13193,0.44029 -0.99644,0.41712 -1.76115,1.18183 -0.74154,0.74154 -1.18183,1.73798 -0.41711,0.99644 -0.41711,2.13192 v 5.49203 z" />
            <path
               id="path282"
               style="font-style:normal;font-variant:normal;font-weight:normal;font-stretch:normal;font-family:'Envy Code R';-inkscape-font-specification:'Envy Code R';fill:#29536f;fill-opacity:1;stroke-width:1.18646"
               d="m 807.53102,263.79847 q -1.205,0 -2.24779,0.44029 -1.01962,0.41712 -1.76115,1.18183 -0.74154,0.74154 -1.18183,1.73798 -0.44029,0.99644 -0.44029,2.13192 v 14.6454 q 0,1.13548 0.44029,2.13193 0.44029,0.99644 1.18183,1.76115 0.74153,0.74154 1.76115,1.18183 1.04279,0.41711 2.24779,0.41711 0.97327,0 1.83068,-0.2549 0.88057,-0.27808 1.59894,-0.76471 0.71837,-0.48664 1.22817,-1.15866 0.53298,-0.67202 0.81106,-1.48307 h 3.7077 q -0.32443,1.57577 -1.15866,2.91981 -0.81106,1.34404 -2.01606,2.31731 -1.205,0.97327 -2.73442,1.52942 -1.52943,0.55615 -3.26741,0.55615 -1.96971,0 -3.68452,-0.71836 -1.69164,-0.71837 -2.96616,-1.94654 -1.25134,-1.25135 -1.96971,-2.91981 -0.69519,-1.66847 -0.69519,-3.56866 v -14.6454 q 0,-1.90019 0.69519,-3.56865 0.71837,-1.66846 1.96971,-2.89664 1.27452,-1.25135 2.96616,-1.96971 1.71481,-0.71837 3.68452,-0.71837 1.73798,0 3.26741,0.55616 1.55259,0.55615 2.73442,1.55259 1.205,0.97327 2.01606,2.31731 0.83423,1.34404 1.15866,2.89664 h -3.7077 q -0.27808,-0.78789 -0.81106,-1.4599 -0.5098,-0.67202 -1.22817,-1.15866 -0.69519,-0.48663 -1.57577,-0.76471 -0.88058,-0.27808 -1.85385,-0.27808 z m 1.59894,29.29079 q 0,2.06241 -0.69519,3.7077 -0.67202,1.66846 -2.0624,2.68808 -1.36722,1.04279 -3.42962,1.32086 -2.06241,0.30126 -4.79683,-0.39394 v -3.66135 q 2.0624,0.6952 3.45279,0.71837 1.41356,0.0232 2.27096,-0.48664 0.85741,-0.5098 1.22818,-1.52942 0.37077,-0.99644 0.37077,-2.36366 z" />
            <path
               id="path284"
               style="font-style:normal;font-variant:normal;font-weight:normal;font-stretch:normal;font-family:'Envy Code R';-inkscape-font-specification:'Envy Code R';fill:#29536f;fill-opacity:1;stroke-width:1.18646"
               d="m 823.68265,269.29049 q 0,-1.90019 0.71837,-3.56865 0.71836,-1.66846 1.94654,-2.89664 1.25134,-1.25135 2.91981,-1.96971 1.66846,-0.71837 3.56865,-0.71837 1.9002,0 3.56866,0.71837 1.66846,0.71836 2.89664,1.96971 1.25134,1.22818 1.96971,2.89664 0.71837,1.66846 0.71837,3.56865 v 23.79877 h -3.66135 V 278.44387 H 827.344 v 14.64539 h -3.66135 z m 14.6454,5.49203 v -5.49203 q 0,-1.13548 -0.44029,-2.13192 -0.41712,-0.99644 -1.18183,-1.73798 -0.74154,-0.76471 -1.73798,-1.18183 -0.99645,-0.44029 -2.13193,-0.44029 -1.13548,0 -2.13192,0.44029 -0.99644,0.41712 -1.76116,1.18183 -0.74154,0.74154 -1.18182,1.73798 -0.41712,0.99644 -0.41712,2.13192 v 5.49203 z m 3.66135,-23.79877 q -2.7576,5.49202 -5.49203,5.49202 -1.36721,0 -2.20144,-0.2549 -0.81106,-0.27808 -1.32087,-0.69519 -0.50981,-0.41712 -0.83423,-0.88058 -0.30125,-0.46346 -0.67202,-0.88058 -0.3476,-0.41712 -0.88058,-0.67202 -0.50981,-0.27808 -1.41356,-0.27808 -0.69519,0 -1.34404,0.32443 -0.64884,0.30125 -1.18182,0.83423 -0.50981,0.50981 -0.83423,1.15865 -0.30126,0.64885 -0.30126,1.34404 l -1.83067,-1.83067 q 2.73443,-5.49203 5.49202,-5.49203 1.36722,0 2.17828,0.27808 0.83423,0.25491 1.34403,0.67202 0.50981,0.41712 0.81106,0.88058 0.32443,0.46346 0.67202,0.88058 0.37077,0.41711 0.88058,0.69519 0.50981,0.2549 1.43673,0.2549 0.6952,0 1.34404,-0.30125 0.64885,-0.32442 1.15866,-0.83423 0.53298,-0.53298 0.83423,-1.18183 0.32442,-0.64884 0.32442,-1.34404 z" />
            <path
               id="path286"
               style="font-style:normal;font-variant:normal;font-weight:normal;font-stretch:normal;font-family:'Envy Code R';-inkscape-font-specification:'Envy Code R';fill:#29536f;fill-opacity:1;stroke-width:1.18646"
               d="m 849.17307,269.29049 q 0,-1.90019 0.71836,-3.56865 0.71837,-1.66846 1.94654,-2.89664 1.25135,-1.25135 2.91981,-1.96971 1.66847,-0.71837 3.56866,-0.71837 1.90019,0 3.56866,0.71837 1.66846,0.71836 2.89663,1.96971 1.25135,1.22818 1.96972,2.89664 0.71836,1.66846 0.71836,3.56865 v 14.6454 q 0,1.90019 -0.71836,3.56866 -0.71837,1.66846 -1.96972,2.91981 -1.22817,1.22817 -2.89663,1.94654 -1.66847,0.71836 -3.56866,0.71836 -1.90019,0 -3.56866,-0.71836 -1.66846,-0.71837 -2.91981,-1.94654 -1.22817,-1.25135 -1.94654,-2.91981 -0.71836,-1.66847 -0.71836,-3.56866 z m 9.15337,-5.49202 q -1.13548,0 -2.13192,0.44029 -0.99645,0.41712 -1.76116,1.18183 -0.74154,0.74154 -1.18183,1.73798 -0.41711,0.99644 -0.41711,2.13192 v 14.6454 q 0,1.13548 0.41711,2.13193 0.44029,0.99644 1.18183,1.76115 0.76471,0.74154 1.76116,1.18183 0.99644,0.41711 2.13192,0.41711 1.13548,0 2.13193,-0.41711 0.99644,-0.44029 1.73798,-1.18183 0.76471,-0.76471 1.18183,-1.76115 0.44028,-0.99645 0.44028,-2.13193 v -14.6454 q 0,-1.13548 -0.44028,-2.13192 -0.41712,-0.99644 -1.18183,-1.73798 -0.74154,-0.76471 -1.73798,-1.18183 -0.99645,-0.44029 -2.13193,-0.44029 z" />
          </g>
          <g
             id="g377">
            <g
               aria-label="EM"
               transform="scale(0.94283719,1.0606285)"
               id="text50"
               style="font-size:46.8297px;line-height:1.25;font-family:'Press Start 2P';-inkscape-font-specification:'Press Start 2P';word-spacing:-8.24981px;fill:#29536f;fill-opacity:1;stroke-width:1.17074">
              <path
                 d="m 490.18291,309.30468 h 18.06419 v 3.61284 h -14.45136 v 10.83851 h 10.83852 v 3.61284 h -10.83852 v 10.83851 h 14.45136 v 3.61284 h -18.06419 z"
                 style="font-style:normal;font-variant:normal;font-weight:normal;font-stretch:normal;font-family:'Envy Code R';-inkscape-font-specification:'Envy Code R';fill:#29536f;fill-opacity:1;stroke-width:1.17074"
                 id="path289" />
              <path
                 d="m 529.78693,316.53035 -5.41926,9.46655 -5.41925,-9.46655 v 25.28987 h -3.61284 v -32.51554 h 3.61284 l 5.41925,10.83851 5.41926,-10.83851 h 3.61284 v 32.51554 h -3.61284 z"
                 style="font-style:normal;font-variant:normal;font-weight:normal;font-stretch:normal;font-family:'Envy Code R';-inkscape-font-specification:'Envy Code R';fill:#29536f;fill-opacity:1;stroke-width:1.17074"
                 id="path291" />
            </g>
            <g
               aria-label="I"
               transform="scale(0.81010248,1.2344117)"
               id="text957"
               style="font-size:39.0876px;line-height:0;font-family:'Press Start 2P';-inkscape-font-specification:'Press Start 2P';letter-spacing:0px;word-spacing:0px;fill:#29536f;fill-opacity:1;stroke-width:0.97719">
              <path
                 d="m 648.7194,291.03716 h 6.0311 v -21.10883 h -6.0311 v -3.01555 h 15.07774 v 3.01555 h -6.03109 v 21.10883 h 6.03109 v 3.01554 H 648.7194 Z"
                 style="font-style:normal;font-variant:normal;font-weight:normal;font-stretch:normal;font-family:'Envy Code R';-inkscape-font-specification:'Envy Code R';fill:#29536f;fill-opacity:1;stroke-width:0.97719"
                 id="path294" />
            </g>
            <g
               aria-label="N"
               transform="scale(0.8929753,1.1198518)"
               id="text1176"
               style="font-size:43.0862px;line-height:0;font-family:'Press Start 2P';-inkscape-font-specification:'Press Start 2P';letter-spacing:0px;word-spacing:0px;fill:#29536f;fill-opacity:1;stroke-width:1.07716">
              <path
                 d="m 612.82159,324.13406 v -29.91629 h 3.32403 l 9.9721,22.13217 v -22.13217 h 3.32404 v 29.91629 h -3.32404 l -9.9721,-22.13217 v 22.13217 z"
                 style="font-style:normal;font-variant:normal;font-weight:normal;font-stretch:normal;font-family:'Envy Code R';-inkscape-font-specification:'Envy Code R';fill:#29536f;fill-opacity:1;stroke-width:1.07716"
                 id="path297" />
            </g>
            <g
               aria-label="F"
               transform="scale(0.82449326,1.2128662)"
               id="text1180"
               style="font-size:39.782px;line-height:0;font-family:'Press Start 2P';-inkscape-font-specification:'Press Start 2P';letter-spacing:0px;word-spacing:0px;fill:#29536f;fill-opacity:1;stroke-width:0.994549">
              <path
                 d="m 694.29593,271.65423 h 15.34559 v 3.06912 h -12.27647 v 9.20736 h 9.20735 v 3.06912 h -9.20735 v 12.27648 h -3.06912 z"
                 style="font-style:normal;font-variant:normal;font-weight:normal;font-stretch:normal;font-family:'Envy Code R';-inkscape-font-specification:'Envy Code R';fill:#29536f;fill-opacity:1;stroke-width:0.994549"
                 id="path300" />
            </g>
            <g
               aria-label="O"
               transform="scale(0.82449326,1.2128662)"
               id="text1184"
               style="font-size:39.782px;line-height:0;font-family:'Press Start 2P';-inkscape-font-specification:'Press Start 2P';letter-spacing:0px;word-spacing:0px;fill:#29536f;fill-opacity:1;stroke-width:0.994549">
              <path
                 d="m 720.84659,279.32703 q 0,-1.59283 0.60216,-2.99142 0.60217,-1.39859 1.63169,-2.4281 1.04894,-1.04894 2.44752,-1.65111 1.39859,-0.60217 2.99142,-0.60217 1.59284,0 2.99142,0.60217 1.39859,0.60217 2.4281,1.65111 1.04894,1.02951 1.65111,2.4281 0.60217,1.39859 0.60217,2.99142 v 12.27648 q 0,1.59283 -0.60217,2.99142 -0.60217,1.39858 -1.65111,2.44752 -1.02951,1.02952 -2.4281,1.63169 -1.39858,0.60217 -2.99142,0.60217 -1.59283,0 -2.99142,-0.60217 -1.39858,-0.60217 -2.44752,-1.63169 -1.02952,-1.04894 -1.63169,-2.44752 -0.60216,-1.39859 -0.60216,-2.99142 z m 7.67279,-4.60368 q -0.95181,0 -1.78708,0.36907 -0.83527,0.34965 -1.47628,0.99067 -0.6216,0.62159 -0.99067,1.45686 -0.34965,0.83527 -0.34965,1.78708 v 12.27648 q 0,0.95181 0.34965,1.78708 0.36907,0.83527 0.99067,1.47629 0.64101,0.62159 1.47628,0.99066 0.83527,0.34965 1.78708,0.34965 0.95182,0 1.78709,-0.34965 0.83526,-0.36907 1.45686,-0.99066 0.64101,-0.64102 0.99066,-1.47629 0.36907,-0.83527 0.36907,-1.78708 v -12.27648 q 0,-0.95181 -0.36907,-1.78708 -0.34965,-0.83527 -0.99066,-1.45686 -0.6216,-0.64102 -1.45686,-0.99067 -0.83527,-0.36907 -1.78709,-0.36907 z"
                 style="font-style:normal;font-variant:normal;font-weight:normal;font-stretch:normal;font-family:'Envy Code R';-inkscape-font-specification:'Envy Code R';fill:#29536f;fill-opacity:1;stroke-width:0.994549"
                 id="path303" />
            </g>
            <g
               aria-label="R"
               transform="scale(0.95548638,1.0465874)"
               id="text1188"
               style="font-size:46.1024px;line-height:0;font-family:'Press Start 2P';-inkscape-font-specification:'Press Start 2P';letter-spacing:0px;word-spacing:0px;fill:#29536f;fill-opacity:1;stroke-width:1.15256">
              <path
                 d="m 657.45372,332.37241 q 7.02341,14.38449 7.02341,14.45202 h -4.07448 q -6.93337,-14.15938 -6.93337,-14.22691 h -3.37664 v 14.22691 h -3.55672 v -32.01055 h 8.89182 q 1.84589,0 3.46668,0.69784 1.62079,0.69784 2.81387,1.91343 1.21559,1.19308 1.91343,2.81386 0.69784,1.62079 0.69784,3.46669 0,1.57576 -0.51776,2.99395 -0.51775,1.41819 -1.4407,2.56625 -0.92294,1.14806 -2.18356,1.95845 -1.26061,0.8104 -2.72382,1.14806 z m -2.02598,-3.33162 q 1.10303,0 2.071,-0.4052 0.96797,-0.4277 1.68832,-1.14805 0.74286,-0.74286 1.14806,-1.71083 0.42771,-0.96798 0.42771,-2.07101 0,-1.10304 -0.42771,-2.07101 -0.4052,-0.96797 -1.14806,-1.68832 -0.72035,-0.74286 -1.68832,-1.14806 -0.96797,-0.4277 -2.071,-0.4277 h -5.3351 v 10.67018 z"
                 style="font-style:normal;font-variant:normal;font-weight:normal;font-stretch:normal;font-family:'Envy Code R';-inkscape-font-specification:'Envy Code R';fill:#29536f;fill-opacity:1;stroke-width:1.15256"
                 id="path306" />
            </g>
            <g
               aria-label="M"
               transform="scale(1.0549411,0.94792023)"
               id="text1192"
               style="font-size:50.9012px;line-height:0;font-family:'Press Start 2P';-inkscape-font-specification:'Press Start 2P';letter-spacing:0px;word-spacing:0px;fill:#29536f;fill-opacity:1;stroke-width:1.27253">
              <path
                 d="m 624.9473,355.43611 -5.89042,10.2896 -5.89042,-10.2896 v 27.48863 h -3.92695 v -35.34253 h 3.92695 l 5.89042,11.78085 5.89042,-11.78085 h 3.92695 v 35.34253 h -3.92695 z"
                 style="font-style:normal;font-variant:normal;font-weight:normal;font-stretch:normal;font-family:'Envy Code R';-inkscape-font-specification:'Envy Code R';fill:#29536f;fill-opacity:1;stroke-width:1.27253"
                 id="path309" />
            </g>
            <g
               aria-label="Á"
               transform="scale(0.91251816,1.0958686)"
               id="text1196"
               style="font-size:44.0293px;line-height:0;font-family:'Press Start 2P';-inkscape-font-specification:'Press Start 2P';letter-spacing:0px;word-spacing:0px;fill:#29536f;fill-opacity:1;stroke-width:1.10073">
              <path
                 d="m 737.43305,309.14861 q 0,-1.7629 0.66646,-3.3108 0.66645,-1.54791 1.80589,-2.68734 1.16092,-1.16092 2.70883,-1.82738 1.5479,-0.66646 3.3108,-0.66646 1.76289,0 3.31079,0.66646 1.54791,0.66646 2.68734,1.82738 1.16093,1.13943 1.82739,2.68734 0.66646,1.5479 0.66646,3.3108 v 22.07914 h -3.3968 v -13.58716 h -10.19037 v 13.58716 h -3.39679 z m 13.58716,5.09518 v -5.09518 q 0,-1.05344 -0.40847,-1.97788 -0.38698,-0.92445 -1.09643,-1.6124 -0.68796,-0.70946 -1.61241,-1.09644 -0.92444,-0.40847 -1.97787,-0.40847 -1.05344,0 -1.97788,0.40847 -0.92445,0.38698 -1.6339,1.09644 -0.68796,0.68795 -1.09644,1.6124 -0.38697,0.92444 -0.38697,1.97788 v 5.09518 z m -8.49198,-16.98395 -1.69839,-1.6984 8.49198,-5.09519 1.69839,1.6984 z"
                 style="font-style:normal;font-variant:normal;font-weight:normal;font-stretch:normal;font-family:'Envy Code R';-inkscape-font-specification:'Envy Code R';fill:#29536f;fill-opacity:1;stroke-width:1.10073"
                 id="path312" />
            </g>
            <g
               aria-label="I"
               transform="scale(0.81010248,1.2344117)"
               id="text1200"
               style="font-size:39.0876px;line-height:0;font-family:'Press Start 2P';-inkscape-font-specification:'Press Start 2P';letter-spacing:0px;word-spacing:0px;fill:#29536f;fill-opacity:1;stroke-width:0.97719">
              <path
                 d="m 886.78526,291.03716 h 6.0311 v -21.10883 h -6.0311 v -3.01555 H 901.863 v 3.01555 h -6.0311 v 21.10883 h 6.0311 v 3.01554 h -15.07774 z"
                 style="font-style:normal;font-variant:normal;font-weight:normal;font-stretch:normal;font-family:'Envy Code R';-inkscape-font-specification:'Envy Code R';fill:#29536f;fill-opacity:1;stroke-width:0.97719"
                 id="path318" />
            </g>
            <g
               aria-label="T"
               transform="scale(0.95039923,1.0521894)"
               id="text1204"
               style="font-size:45.8569px;line-height:0;font-family:'Press Start 2P';-inkscape-font-specification:'Press Start 2P';letter-spacing:0px;word-spacing:0px;fill:#29536f;fill-opacity:1;stroke-width:1.14642">
              <path
                 d="m 738.37954,316.6756 h -7.07558 v -3.53779 h 17.68894 v 3.53779 h -7.07557 v 28.30231 h -3.53779 z"
                 style="font-style:normal;font-variant:normal;font-weight:normal;font-stretch:normal;font-family:'Envy Code R';-inkscape-font-specification:'Envy Code R';fill:#29536f;fill-opacity:1;stroke-width:1.14642"
                 id="path315" />
            </g>
            <g
               aria-label="C"
               transform="scale(0.90605063,1.1036911)"
               id="text1208"
               style="font-size:43.7171px;line-height:0;font-family:'Press Start 2P';-inkscape-font-specification:'Press Start 2P';letter-spacing:0px;word-spacing:0px;fill:#29536f;fill-opacity:1;stroke-width:1.09293">
              <path
                 d="m 824.39945,301.89854 q -1.08865,0 -2.02789,0.40558 -0.93923,0.38423 -1.62231,1.08866 -0.68308,0.68308 -1.08866,1.60097 -0.38423,0.91788 -0.38423,1.96385 v 13.49082 q 0,1.04597 0.38423,1.96386 0.40558,0.91789 1.08866,1.62231 0.68308,0.68308 1.62231,1.08866 0.93924,0.38423 2.02789,0.38423 0.89655,0 1.68636,-0.23481 0.78981,-0.25615 1.43019,-0.70442 0.66174,-0.44827 1.13136,-1.06731 0.49096,-0.61905 0.74711,-1.36616 h 3.37271 q -0.29885,1.45154 -1.04597,2.68962 -0.74711,1.23808 -1.85712,2.13463 -1.08866,0.89654 -2.47616,1.40885 -1.38751,0.51231 -2.98848,0.51231 -1.79308,0 -3.35136,-0.66174 -1.53692,-0.66173 -2.68962,-1.79308 -1.1527,-1.1527 -1.81443,-2.68963 -0.64039,-1.53692 -0.64039,-3.28732 V 306.9576 q 0,-1.75039 0.64039,-3.28732 0.66173,-1.53693 1.81443,-2.66828 1.1527,-1.1527 2.68962,-1.81443 1.55828,-0.66173 3.35136,-0.66173 1.60097,0 2.98848,0.51231 1.40885,0.51231 2.49751,1.43019 1.08866,0.89655 1.83577,2.13463 0.74712,1.23808 1.04597,2.66828 h -3.37271 q -0.25615,-0.72577 -0.74711,-1.34482 -0.46962,-0.61904 -1.11001,-1.06731 -0.64039,-0.44827 -1.45154,-0.70442 -0.78981,-0.25616 -1.68636,-0.25616 z"
                 style="font-style:normal;font-variant:normal;font-weight:normal;font-stretch:normal;font-family:'Envy Code R';-inkscape-font-specification:'Envy Code R';fill:#29536f;fill-opacity:1;stroke-width:1.09293"
                 id="path321" />
            </g>
            <g
               aria-label="A"
               transform="scale(0.91251816,1.0958686)"
               id="text1212"
               style="font-size:44.0293px;line-height:0;font-family:'Press Start 2P';-inkscape-font-specification:'Press Start 2P';letter-spacing:0px;word-spacing:0px;fill:#29536f;fill-opacity:1;stroke-width:1.10073">
              <path
                 d="m 834.11041,309.14861 q 0,-1.7629 0.66646,-3.3108 0.66646,-1.54791 1.80589,-2.68734 1.16093,-1.16092 2.70884,-1.82738 1.5479,-0.66646 3.31079,-0.66646 1.7629,0 3.3108,0.66646 1.54791,0.66646 2.68734,1.82738 1.16093,1.13943 1.82738,2.68734 0.66646,1.5479 0.66646,3.3108 v 22.07914 h -3.39679 v -13.58716 h -10.19037 v 13.58716 h -3.3968 z m 13.58717,5.09518 v -5.09518 q 0,-1.05344 -0.40847,-1.97788 -0.38698,-0.92445 -1.09644,-1.6124 -0.68795,-0.70946 -1.6124,-1.09644 -0.92444,-0.40847 -1.97788,-0.40847 -1.05343,0 -1.97787,0.40847 -0.92445,0.38698 -1.6339,1.09644 -0.68796,0.68795 -1.09644,1.6124 -0.38697,0.92444 -0.38697,1.97788 v 5.09518 z"
                 style="font-style:normal;font-variant:normal;font-weight:normal;font-stretch:normal;font-family:'Envy Code R';-inkscape-font-specification:'Envy Code R';fill:#29536f;fill-opacity:1;stroke-width:1.10073"
                 id="path324" />
            </g>
          </g>
          <g
             id="g389">
            <path
               d="m 213.84069,240.07268 a 61.343388,60.635996 0 0 1 4.65553,15.75511 h 8.7173 0.26251 0.32815 v 0.008 c 4.54517,0.17609 8.13936,3.91138 8.14007,8.45995 -7.9e-4,4.54858 -3.5949,8.28394 -8.14007,8.45994 v 0.008 h -0.32815 -8.83873 a 61.343388,60.635996 0 0 1 -4.52737,16.14011 h 14.94999 v -0.003 c 12.82392,-0.71184 22.86062,-11.43855 22.86062,-24.40211 -0.004,-12.9604 -10.03983,-23.6589 -22.86062,-24.37061 v -0.0574 z m -29.32896,79.3135 a 61.343388,60.635996 0 0 1 -16.70802,5.23018 v 37.31347 c 0.27883,0.0106 16.13749,0 16.41657,0 0.16129,-10e-5 0.22073,-22.49088 0.29145,-42.54365 z"
               style="fill:#29536f;fill-opacity:1;stroke:none;stroke-width:3.16103"
               id="rect1262" />
            <path
               d="m 191.41157,214.05308 a 61.343388,60.635996 0 0 1 16.7504,16.08274 c 6.34514,3e-5 11.98166,-7e-5 18.35392,0 19.1426,0 34.66093,15.51833 34.66093,34.66092 0,19.14261 -15.51833,34.66095 -34.66093,34.66095 h -18.36167 a 61.343388,60.635996 0 0 1 -13.6555,13.93817 v 48.53501 h 15.54479 v -47.44104 c 6.2523,0.009 12.63523,0.003 17.94929,-0.0238 27.23055,-0.68548 48.95004,-22.95464 48.95514,-50.19383 0,-27.2424 -21.72138,-49.51671 -48.95514,-50.20263 v -0.016 h -1.26349 z"
               style="fill:#29536f;fill-opacity:1;stroke:none;stroke-width:3.17619;stroke-miterlimit:4;stroke-dasharray:none"
               id="path1245" />
          </g>
          <g
             id="g385">
            <rect
               style="fill:#29536f;fill-opacity:1;stroke:none;stroke-width:0.421317;stroke-miterlimit:4;stroke-dasharray:none;stroke-opacity:0.968627"
               id="rect1001"
               width="15.47152"
               height="146.85252"
               x="430.90784"
               y="214.46477" />
            <rect
               y="214.46477"
               x="405.68713"
               height="146.85252"
               width="15.47152"
               id="rect1003"
               style="fill:#29536f;fill-opacity:1;stroke:none;stroke-width:0.421317;stroke-miterlimit:4;stroke-dasharray:none;stroke-opacity:0.968627" />
          </g>
          <g
             id="g381">
            <path
               id="path1214"
               style="fill:#29536f;fill-opacity:1;stroke-width:3.34555"
               d="m 336.1261,214.25678 c -40.59976,0.0349 -73.49306,32.76261 -73.48998,73.12071 10e-4,40.38037 32.93346,73.11393 73.55562,73.1125 40.62216,0.001 73.5541,-32.73213 73.55562,-73.1125 -7.6e-4,-5.00109 -0.51765,-9.98888 -1.54264,-14.88509 l -15.74668,-10e-4 h -49.50059 v 14.88521 h 51.46175 c -3e-5,31.967 -26.06901,57.88284 -58.22741,57.88397 -32.15842,-10e-4 -58.22738,-25.91579 -58.22743,-57.88279 -0.002,-31.7422 25.71416,-57.56409 57.64481,-57.88278 0.1942,-9.6e-4 0.3884,-9.6e-4 0.5826,0 15.64822,0.003 30.63655,6.26717 41.58632,17.3796 l 11.31562,-10.29811 c -13.85944,-14.26334 -32.95275,-22.31885 -52.90194,-22.31942 z"
               sodipodi:nodetypes="sccccccccccccccss" />
            <path
               id="path1235"
               style="fill:#29536f;fill-opacity:1;stroke:none;stroke-width:3.3194"
               d="m 336.64305,239.62051 c -26.62696,-0.002 -48.2124,21.65669 -48.20831,48.3724 4.3e-4,26.71252 21.58454,48.36643 48.20831,48.36421 23.49475,-0.004 43.56415,-17.0025 47.51081,-40.24059 l -41.19645,-0.0572 v 16.20123 h 13.56895 c 0.0413,-0.18388 -5.03663,8.28978 -19.88329,8.29298 -17.92521,0.002 -32.45852,-14.57515 -32.46163,-32.56009 -0.001,-17.98815 14.53323,-32.57056 32.46163,-32.5683 8.51003,0.003 16.67842,3.35947 22.7461,9.34626 l 11.86541,-10.44578 c -9.07886,-9.39846 -21.56657,-14.70382 -34.61151,-14.70457 z"
               sodipodi:nodetypes="cccccccccccccc" />
          </g>
          <g
             id="g393">
            <path
               sodipodi:nodetypes="cccsccccccccccc"
               d="M 99.284193,214.05289 V 230.136 c 17.486587,-2.5e-4 38.327577,-2.2e-4 58.711557,0 19.1426,0 34.66074,15.51814 34.66074,34.66074 0,19.14259 -15.51814,34.66075 -34.66074,34.66075 l -32.01714,10e-6 v 62.47328 h 15.54483 v -47.4411 c 6.2523,0.009 12.63528,0.003 17.94934,-0.0238 27.23055,-0.68549 48.94989,-22.9547 48.955,-50.19389 -6.7e-4,-27.2424 -21.72126,-49.51637 -48.95502,-50.20228 v -0.0159 h -1.26364 z"
               style="fill:#29536f;fill-opacity:1;stroke:none;stroke-width:15.8808;stroke-miterlimit:4;stroke-dasharray:none"
               id="path1281" />
            <path
               sodipodi:nodetypes="ccccccccccccccccccccc"
               d="m 99.284193,240.07306 v 15.75489 h 59.409027 0.26264 0.32821 v 0.008 c 4.54518,0.17609 8.13931,3.91147 8.14002,8.46004 -7.1e-4,4.54858 -3.59484,8.28401 -8.14002,8.46004 v 0.008 h -0.32821 -59.671619 l -6.51e-4,16.13893 v 73.02702 c 0.278834,0.0105 16.1374,-5.9e-4 16.41647,0 0.28995,-2.1e-4 0.25009,-73.01653 0.54004,-73.02704 l 44.29949,0.002 v -0.002 c 12.82393,-0.71185 22.861,-11.43857 22.861,-24.40215 -0.004,-12.9604 -10.0402,-23.65912 -22.861,-24.37083 v -0.0572 z"
               style="fill:#29536f;fill-opacity:1;stroke:none;stroke-width:15.8808;stroke-miterlimit:4;stroke-dasharray:none"
               id="path1283" />
          </g>
        </g>
      </g>
    </g>
  </g>
</svg>
